SplineFontDB: 3.0
FontName: NimbusMonL-Regu
FullName: Nimbus Mono L Regular
FamilyName: Nimbus Mono L
Weight: Book
Copyright: Copyright (URW)++,Copyright 1999 by (URW)++ Design & Development; Cyrillic glyphs added by Valek Filippov (C) 2001-2002
Version: 1.06
ItalicAngle: 0
UnderlinePosition: -150
UnderlineWidth: 50
Ascent: 800
Descent: 200
LayerCount: 2
Layer: 0 1 "Back" 
Layer: 1 1 "Fore" 
NeedsXUIDChange: 1
XUID: [1021 548 848922286 16332408]
FSType: 0
OS2Version: 1
OS2_WeightWidthSlopeOnly: 0
OS2_UseTypoMetrics: 1
CreationTime: 1040848774
ModificationTime: 1214461796
PfmFamily: 17
TTFWeight: 400
TTFWidth: 5
LineGap: 90
VLineGap: 0
Panose: 2 0 5 9 0 0 0 0 0 0
OS2TypoAscent: 0
OS2TypoAOffset: 1
OS2TypoDescent: 0
OS2TypoDOffset: 1
OS2TypoLinegap: 90
OS2WinAscent: 0
OS2WinAOffset: 1
OS2WinDescent: 0
OS2WinDOffset: 1
HheadAscent: 0
HheadAOffset: 1
HheadDescent: 0
HheadDOffset: 1
OS2SubXSize: 650
OS2SubYSize: 700
OS2SubXOff: 0
OS2SubYOff: 140
OS2SupXSize: 650
OS2SupYSize: 700
OS2SupXOff: 0
OS2SupYOff: 480
OS2StrikeYSize: 49
OS2StrikeYPos: 258
OS2Vendor: 'PfEd'
OS2CodePages: 20000097.0fd60000
OS2UnicodeRanges: 800002af.5000204a.00000000.00000000
Lookup: 4 0 1 "'liga' Standard Ligatures in Latin lookup 0"  {"'liga' Standard Ligatures in Latin lookup 0 subtable"  } ['liga' ('latn' <'dflt' > ) ]
DEI: 0
ShortTable: maxp 16
  1
  0
  562
  251
  7
  81
  4
  2
  0
  1
  1
  0
  64
  0
  2
  1
EndShort
LangName: 1033 "" "" "" "FontForge 2.0 : Nimbus Mono L Regular : 4-6-2008" 
GaspTable: 1 65535 2
Encoding: UnicodeBmp
UnicodeInterp: none
NameList: Adobe Glyph List
DisplaySize: -36
AntiAlias: 1
FitToEm: 1
WinInfo: 432 18 15
BeginChars: 65543 644

StartChar: exclam
Encoding: 33 33 4
Width: 600
GlyphClass: 2
Flags: W
LayerCount: 2
Fore
SplineSet
339 563 m 1,0,-1
 320 237 l 2,1,2
 319 209 319 209 299 209 c 0,3,4
 280 209 280 209 279 237 c 2,5,-1
 261 563 l 2,6,7
 260 570 260 570 260 579 c 0,8,9
 260 596 260 596 271.5 607 c 128,-1,10
 283 618 283 618 300 618 c 0,11,12
 316 618 316 618 327.5 607 c 128,-1,13
 339 596 339 596 339 579 c 2,14,-1
 339 563 l 1,0,-1
292 85 m 2,15,-1
 306 85 l 2,16,17
 329 85 329 85 344.5 70.5 c 128,-1,18
 360 56 360 56 360 35 c 128,-1,19
 360 14 360 14 344.5 -0.5 c 128,-1,20
 329 -15 329 -15 306 -15 c 2,21,-1
 292 -15 l 2,22,23
 270 -15 270 -15 255 -0.5 c 128,-1,24
 240 14 240 14 240 35 c 128,-1,25
 240 56 240 56 255 70.5 c 128,-1,26
 270 85 270 85 292 85 c 2,15,-1
EndSplineSet
EndChar

StartChar: quotedbl
Encoding: 34 34 5
Width: 600
GlyphClass: 2
Flags: W
LayerCount: 2
Fore
SplineSet
146 604 m 1,0,-1
 274 604 l 1,1,-1
 240 351 l 2,2,3
 236 316 236 316 210 316 c 128,-1,4
 184 316 184 316 180 351 c 2,5,-1
 146 604 l 1,0,-1
326 604 m 1,6,-1
 454 604 l 1,7,-1
 420 351 l 2,8,9
 416 316 416 316 390 316 c 128,-1,10
 364 316 364 316 360 351 c 2,11,-1
 326 604 l 1,6,-1
EndSplineSet
EndChar

StartChar: numbersign
Encoding: 35 35 6
Width: 600
GlyphClass: 2
Flags: W
LayerCount: 2
Fore
SplineSet
394 356 m 1,0,-1
 386 231 l 1,1,-1
 461 231 l 2,2,3
 488 231 488 231 488 210 c 128,-1,4
 488 189 488 189 461 189 c 2,5,-1
 383 189 l 1,6,-1
 367 -36 l 2,7,8
 367 -62 367 -62 346 -62 c 0,9,10
 338 -62 338 -62 331.5 -55.5 c 128,-1,11
 325 -49 325 -49 326 -41 c 2,12,-1
 326 -33 l 1,13,-1
 342 189 l 1,14,-1
 242 189 l 1,15,-1
 226 -36 l 2,16,17
 224 -62 224 -62 205 -62 c 0,18,19
 197 -62 197 -62 190.5 -56 c 128,-1,20
 184 -50 184 -50 184 -41 c 2,21,-1
 184 -33 l 1,22,-1
 201 189 l 1,23,-1
 119 189 l 2,24,25
 92 189 92 189 92 210 c 128,-1,26
 92 231 92 231 119 231 c 2,27,-1
 203 231 l 1,28,-1
 212 356 l 1,29,-1
 140 356 l 2,30,31
 112 356 112 356 112 377 c 0,32,33
 112 397 112 397 140 397 c 2,34,-1
 215 397 l 1,35,-1
 231 623 l 2,36,37
 232 647 232 647 252 647 c 0,38,39
 260 647 260 647 266.5 640.5 c 128,-1,40
 273 634 273 634 272 626 c 2,41,-1
 271 619 l 1,42,-1
 256 397 l 1,43,-1
 357 397 l 1,44,-1
 373 623 l 2,45,46
 374 647 374 647 393 647 c 0,47,48
 415 647 415 647 413 619 c 2,49,-1
 397 397 l 1,50,-1
 481 397 l 2,51,52
 508 397 508 397 508 377 c 0,53,54
 508 356 508 356 481 356 c 2,55,-1
 394 356 l 1,0,-1
354 356 m 1,56,-1
 252 356 l 1,57,-1
 244 231 l 1,58,-1
 345 231 l 1,59,-1
 354 356 l 1,56,-1
EndSplineSet
EndChar

StartChar: dollar
Encoding: 36 36 7
Width: 600
GlyphClass: 2
Flags: W
LayerCount: 2
Fore
SplineSet
280 576 m 1,0,-1
 280 627 l 2,1,2
 280 655 280 655 301 655 c 128,-1,3
 322 655 322 655 322 627 c 2,4,-1
 322 576 l 1,5,6
 379 571 379 571 425 534 c 1,7,8
 427 563 427 563 447 563 c 0,9,10
 466 563 466 563 466 536 c 2,11,-1
 466 476 l 2,12,13
 466 449 466 449 447 449 c 128,-1,14
 428 449 428 449 425 471 c 0,15,16
 421 498 421 498 384.5 518 c 128,-1,17
 348 538 348 538 302 538 c 0,18,19
 250 538 250 538 213.5 507.5 c 128,-1,20
 177 477 177 477 177 434 c 128,-1,21
 177 391 177 391 212 371 c 0,22,23
 238 356 238 356 312 342 c 0,24,25
 404 324 404 324 438 301 c 0,26,27
 487 267 487 267 487 201 c 0,28,29
 487 142 487 142 442.5 102.5 c 128,-1,30
 398 63 398 63 322 53 c 1,31,-1
 322 -66 l 2,32,33
 322 -92 322 -92 301 -92 c 128,-1,34
 280 -92 280 -92 280 -66 c 2,35,-1
 280 53 l 1,36,37
 245 55 245 55 209 70.5 c 128,-1,38
 173 86 173 86 154 108 c 1,39,-1
 154 92 l 2,40,41
 154 66 154 66 133 66 c 0,42,43
 113 66 113 66 113 92 c 2,44,-1
 113 171 l 2,45,46
 113 198 113 198 133 198 c 0,47,48
 151 198 151 198 154 174 c 0,49,50
 157 141 157 141 200 117 c 128,-1,51
 243 93 243 93 299 93 c 0,52,53
 362 93 362 93 404.5 123.5 c 128,-1,54
 447 154 447 154 447 201 c 128,-1,55
 447 248 447 248 408 272 c 0,56,57
 380 288 380 288 302 303 c 0,58,59
 217 320 217 320 183 341 c 0,60,61
 136 372 136 372 136 434 c 0,62,63
 136 489 136 489 177 528.5 c 128,-1,64
 218 568 218 568 280 576 c 1,0,-1
EndSplineSet
EndChar

StartChar: percent
Encoding: 37 37 8
Width: 600
GlyphClass: 2
Flags: W
LayerCount: 2
Fore
SplineSet
360 235 m 0,0,1
 413 235 413 235 448.5 199 c 128,-1,2
 484 163 484 163 484 110 c 0,3,4
 484 60 484 60 448 24 c 128,-1,5
 412 -12 412 -12 362 -12 c 0,6,7
 311 -12 311 -12 275 24.5 c 128,-1,8
 239 61 239 61 239 112 c 128,-1,9
 239 163 239 163 274.5 199 c 128,-1,10
 310 235 310 235 360 235 c 0,0,1
360 198 m 0,11,12
 327 198 327 198 302 173 c 128,-1,13
 277 148 277 148 277 112 c 0,14,15
 277 77 277 77 302.5 51 c 128,-1,16
 328 25 328 25 362 25 c 128,-1,17
 396 25 396 25 421.5 51 c 128,-1,18
 447 77 447 77 447 110 c 0,19,20
 447 147 447 147 422 172.5 c 128,-1,21
 397 198 397 198 360 198 c 0,11,12
237 610 m 0,22,23
 289 610 289 610 324.5 574 c 128,-1,24
 360 538 360 538 360 485 c 0,25,26
 360 436 360 436 323.5 399.5 c 128,-1,27
 287 363 287 363 238 363 c 0,28,29
 187 363 187 363 151 399.5 c 128,-1,30
 115 436 115 436 115 487 c 128,-1,31
 115 538 115 538 151 574 c 128,-1,32
 187 610 187 610 237 610 c 0,22,23
237 573 m 0,33,34
 203 573 203 573 178 547.5 c 128,-1,35
 153 522 153 522 153 487 c 128,-1,36
 153 452 153 452 178 426 c 128,-1,37
 203 400 203 400 238 400 c 0,38,39
 271 400 271 400 296.5 426 c 128,-1,40
 322 452 322 452 322 485 c 0,41,42
 322 522 322 522 297.5 547.5 c 128,-1,43
 273 573 273 573 237 573 c 0,33,34
495 343 m 2,44,-1
 117 222 l 2,45,46
 114 221 114 221 109.5 219.5 c 128,-1,47
 105 218 105 218 104 218 c 0,48,49
 98 218 98 218 92.5 224.5 c 128,-1,50
 87 231 87 231 87 238 c 0,51,52
 87 253 87 253 106 258 c 2,53,-1
 484 380 l 2,54,55
 492 382 492 382 496 382 c 0,56,57
 503 382 503 382 508 376.5 c 128,-1,58
 513 371 513 371 513 363 c 0,59,60
 513 350 513 350 495 343 c 2,44,-1
EndSplineSet
EndChar

StartChar: ampersand
Encoding: 38 38 9
Width: 600
GlyphClass: 2
Flags: W
LayerCount: 2
Fore
SplineSet
393 0 m 1,0,-1
 362 49 l 1,1,2
 319 -16 319 -16 250 -16 c 0,3,4
 186 -16 186 -16 140.5 30 c 128,-1,5
 95 76 95 76 95 142 c 0,6,7
 95 194 95 194 128.5 232 c 128,-1,8
 162 270 162 270 216 286 c 1,9,10
 182 342 182 342 174 360 c 128,-1,11
 166 378 166 378 166 400 c 0,12,13
 166 449 166 449 202.5 484 c 128,-1,14
 239 519 239 519 289 519 c 0,15,16
 323 519 323 519 356 499 c 1,17,-1
 365 505 l 2,18,19
 375 510 375 510 381 510 c 0,20,21
 388 510 388 510 394 503.5 c 128,-1,22
 400 497 400 497 400 489 c 0,23,24
 400 477 400 477 383 468 c 2,25,-1
 352 451 l 1,26,27
 322 478 322 478 289 478 c 0,28,29
 257 478 257 478 232.5 454 c 128,-1,30
 208 430 208 430 208 398 c 0,31,32
 208 365 208 365 251 299 c 2,33,-1
 362 121 l 1,34,35
 393 179 393 179 408 249 c 1,36,-1
 471 249 l 2,37,38
 498 249 498 249 498 229 c 0,39,40
 498 208 498 208 471 208 c 2,41,-1
 439 208 l 1,42,43
 415 120 415 120 386 83 c 1,44,-1
 413 41 l 1,45,-1
 471 41 l 2,46,47
 498 41 498 41 498 21 c 0,48,49
 498 0 498 0 471 0 c 2,50,-1
 393 0 l 1,0,-1
339 86 m 1,51,-1
 233 251 l 1,52,53
 191 242 191 242 163.5 213 c 128,-1,54
 136 184 136 184 136 142 c 0,55,56
 136 93 136 93 169.5 59 c 128,-1,57
 203 25 203 25 249 25 c 0,58,59
 303 25 303 25 339 86 c 1,51,-1
EndSplineSet
EndChar

StartChar: quoteright
Encoding: 8217 8217 10
Width: 600
GlyphClass: 2
Flags: W
LayerCount: 2
Fore
SplineSet
286 604 m 1,0,-1
 419 604 l 1,1,-1
 274 339 l 2,2,3
 262 314 262 314 243 314 c 0,4,5
 231 314 231 314 222.5 322 c 128,-1,6
 214 330 214 330 214 343 c 0,7,8
 214 346 214 346 216 354 c 2,9,-1
 286 604 l 1,0,-1
EndSplineSet
EndChar

StartChar: parenleft
Encoding: 40 40 11
Width: 600
GlyphClass: 2
Flags: W
LayerCount: 2
Fore
SplineSet
413 604 m 0,0,1
 421 604 421 604 427 598 c 128,-1,2
 433 592 433 592 433 584 c 0,3,4
 433 580 433 580 430 573 c 0,5,6
 330 399 330 399 330 240 c 0,7,8
 330 86 330 86 430 -93 c 1,9,10
 433 -101 433 -101 433 -104 c 0,11,12
 433 -112 433 -112 427 -118 c 128,-1,13
 421 -124 421 -124 411 -124 c 0,14,15
 399 -124 399 -124 370 -76 c 0,16,17
 269 90 269 90 269 243 c 0,18,19
 269 400 269 400 379 570 c 0,20,21
 400 604 400 604 413 604 c 0,0,1
EndSplineSet
EndChar

StartChar: parenright
Encoding: 41 41 12
Width: 600
GlyphClass: 2
Flags: W
LayerCount: 2
Fore
SplineSet
188 604 m 0,0,1
 203 604 203 604 231 557 c 0,2,3
 331 392 331 392 331 237 c 0,4,5
 331 79 331 79 221 -90 c 0,6,7
 200 -124 200 -124 187 -124 c 0,8,9
 179 -124 179 -124 173 -118 c 128,-1,10
 167 -112 167 -112 167 -104 c 0,11,12
 167 -98 167 -98 170 -93 c 0,13,14
 269 82 269 82 269 240 c 0,15,16
 269 396 269 396 170 573 c 0,17,18
 167 578 167 578 167 584 c 0,19,20
 167 592 167 592 173.5 598 c 128,-1,21
 180 604 180 604 188 604 c 0,0,1
EndSplineSet
EndChar

StartChar: asterisk
Encoding: 42 42 13
Width: 600
GlyphClass: 2
Flags: W
LayerCount: 2
Fore
SplineSet
279 438 m 1,0,-1
 279 576 l 2,1,2
 279 604 279 604 300 604 c 0,3,4
 320 604 320 604 320 576 c 2,5,-1
 320 438 l 1,6,-1
 453 481 l 2,7,8
 461 484 461 484 468 484 c 0,9,10
 476 484 476 484 481.5 478 c 128,-1,11
 487 472 487 472 487 464 c 0,12,13
 487 449 487 449 466 442 c 2,14,-1
 333 400 l 1,15,-1
 414 288 l 1,16,17
 421 274 421 274 421 269 c 0,18,19
 421 261 421 261 414.5 255.5 c 128,-1,20
 408 250 408 250 400 250 c 0,21,22
 391 250 391 250 381 265 c 2,23,-1
 299 376 l 1,24,-1
 218 265 l 2,25,26
 207 250 207 250 197 250 c 0,27,28
 177 250 177 250 177 271 c 0,29,30
 177 276 177 276 184 288 c 2,31,-1
 266 400 l 1,32,-1
 133 442 l 1,33,-1
 129 443 l 2,34,35
 123 444 123 444 118 450 c 128,-1,36
 113 456 113 456 113 464 c 128,-1,37
 113 472 113 472 119 477.5 c 128,-1,38
 125 483 125 483 133 483 c 0,39,40
 134 483 134 483 146 481 c 1,41,-1
 279 438 l 1,0,-1
EndSplineSet
EndChar

StartChar: plus
Encoding: 43 43 14
Width: 600
GlyphClass: 2
Flags: W
LayerCount: 2
Fore
SplineSet
320 231 m 1,0,-1
 320 49 l 2,1,2
 320 22 320 22 300 22 c 0,3,4
 279 22 279 22 279 49 c 2,5,-1
 279 231 l 1,6,-1
 109 231 l 2,7,8
 83 231 83 231 83 252 c 0,9,10
 83 272 83 272 109 272 c 2,11,-1
 279 272 l 1,12,-1
 279 453 l 2,13,14
 279 481 279 481 300 481 c 0,15,16
 320 481 320 481 320 453 c 2,17,-1
 320 272 l 1,18,-1
 490 272 l 2,19,20
 518 272 518 272 518 252 c 0,21,22
 518 231 518 231 490 231 c 2,23,-1
 320 231 l 1,0,-1
EndSplineSet
EndChar

StartChar: comma
Encoding: 44 44 15
Width: 600
GlyphClass: 2
Flags: W
LayerCount: 2
Fore
SplineSet
208 144 m 1,0,-1
 340 144 l 1,1,-1
 195 -120 l 2,2,3
 182 -144 182 -144 164 -144 c 0,4,5
 152 -144 152 -144 143.5 -136 c 128,-1,6
 135 -128 135 -128 135 -117 c 0,7,8
 135 -112 135 -112 137 -106 c 2,9,-1
 208 144 l 1,0,-1
EndSplineSet
EndChar

StartChar: hyphen
Encoding: 45 45 16
Width: 600
GlyphClass: 2
Flags: W
LayerCount: 2
Fore
SplineSet
501 231 m 2,0,-1
 100 231 l 2,1,2
 72 231 72 231 72 252 c 0,3,4
 72 272 72 272 100 272 c 2,5,-1
 501 272 l 2,6,7
 528 272 528 272 528 252 c 0,8,9
 528 231 528 231 501 231 c 2,0,-1
EndSplineSet
EndChar

StartChar: period
Encoding: 46 46 17
Width: 600
GlyphClass: 2
Flags: W
LayerCount: 2
Fore
SplineSet
295 117 m 2,0,-1
 305 117 l 2,1,2
 334 117 334 117 354 98 c 128,-1,3
 374 79 374 79 374 51 c 128,-1,4
 374 23 374 23 354 4 c 128,-1,5
 334 -15 334 -15 305 -15 c 2,6,-1
 295 -15 l 2,7,8
 266 -15 266 -15 246 4.5 c 128,-1,9
 226 24 226 24 226 51 c 0,10,11
 226 79 226 79 246 98 c 128,-1,12
 266 117 266 117 295 117 c 2,0,-1
EndSplineSet
EndChar

StartChar: slash
Encoding: 47 47 18
Width: 600
GlyphClass: 2
Flags: W
LayerCount: 2
Fore
SplineSet
482 633 m 2,0,-1
 155 -63 l 2,1,2
 145 -81 145 -81 133 -81 c 0,3,4
 125 -81 125 -81 119 -75 c 128,-1,5
 113 -69 113 -69 113 -62 c 128,-1,6
 113 -55 113 -55 118 -46 c 2,7,-1
 445 650 l 2,8,9
 452 667 452 667 467 667 c 0,10,11
 475 667 475 667 481 661.5 c 128,-1,12
 487 656 487 656 487 649 c 0,13,14
 487 646 487 646 482 633 c 2,0,-1
EndSplineSet
EndChar

StartChar: zero
Encoding: 48 48 19
Width: 600
GlyphClass: 2
Flags: W
LayerCount: 2
Fore
SplineSet
487 351 m 2,0,-1
 487 251 l 2,1,2
 487 133 487 133 435 59 c 128,-1,3
 383 -15 383 -15 300 -15 c 128,-1,4
 217 -15 217 -15 165 59 c 128,-1,5
 113 133 113 133 113 251 c 2,6,-1
 113 351 l 2,7,8
 113 470 113 470 165 544 c 128,-1,9
 217 618 217 618 300 618 c 128,-1,10
 383 618 383 618 435 544 c 128,-1,11
 487 470 487 470 487 351 c 2,0,-1
154 346 m 2,12,-1
 154 257 l 2,13,14
 154 154 154 154 201 79 c 0,15,16
 239 25 239 25 300 25 c 0,17,18
 363 25 363 25 398 79 c 0,19,20
 447 154 447 154 447 257 c 2,21,-1
 447 346 l 2,22,23
 447 449 447 449 398 524 c 0,24,25
 364 576 364 576 300 576 c 0,26,27
 238 576 238 576 201 524 c 0,28,29
 154 449 154 449 154 346 c 2,12,-1
EndSplineSet
EndChar

StartChar: one
Encoding: 49 49 20
Width: 600
GlyphClass: 2
Flags: W
LayerCount: 2
Fore
SplineSet
322 612 m 1,0,-1
 322 41 l 1,1,-1
 460 41 l 2,2,3
 487 41 487 41 487 21 c 0,4,5
 487 0 487 0 460 0 c 2,6,-1
 141 0 l 2,7,8
 113 0 113 0 113 21 c 0,9,10
 113 41 113 41 141 41 c 2,11,-1
 280 41 l 1,12,-1
 280 557 l 1,13,-1
 148 515 l 1,14,15
 146 515 146 515 140 513.5 c 128,-1,16
 134 512 134 512 133 512 c 0,17,18
 127 512 127 512 121 518.5 c 128,-1,19
 115 525 115 525 115 532 c 0,20,21
 115 548 115 548 136 553 c 2,22,-1
 322 612 l 1,0,-1
EndSplineSet
EndChar

StartChar: two
Encoding: 50 50 21
Width: 600
GlyphClass: 2
Flags: W
LayerCount: 2
Fore
SplineSet
131 41 m 1,0,-1
 445 41 l 1,1,-1
 445 76 l 2,2,3
 445 104 445 104 466 104 c 0,4,5
 485 104 485 104 485 76 c 2,6,-1
 485 0 l 1,7,-1
 92 0 l 1,8,-1
 92 59 l 1,9,-1
 328 282 l 2,10,11
 398 351 398 351 419.5 382 c 128,-1,12
 441 413 441 413 441 447 c 0,13,14
 441 499 441 499 398 537.5 c 128,-1,15
 355 576 355 576 299 576 c 0,16,17
 248 576 248 576 205.5 546.5 c 128,-1,18
 163 517 163 517 152 472 c 0,19,20
 146 451 146 451 131 451 c 0,21,22
 124 451 124 451 118 457 c 128,-1,23
 112 463 112 463 112 470 c 0,24,25
 112 502 112 502 144 542 c 0,26,27
 203 618 203 618 299 618 c 0,28,29
 371 618 371 618 426.5 566 c 128,-1,30
 482 514 482 514 482 447 c 0,31,32
 482 402 482 402 456.5 365 c 128,-1,33
 431 328 431 328 339 237 c 0,34,35
 217 117 217 117 131 44 c 1,36,-1
 131 41 l 1,0,-1
EndSplineSet
EndChar

StartChar: three
Encoding: 51 51 22
Width: 600
GlyphClass: 2
Flags: W
LayerCount: 2
Fore
SplineSet
359 328 m 1,0,1
 417 304 417 304 450.5 261 c 128,-1,2
 484 218 484 218 484 167 c 0,3,4
 484 92 484 92 422.5 38.5 c 128,-1,5
 361 -15 361 -15 275 -15 c 0,6,7
 203 -15 203 -15 127 25 c 0,8,9
 81 48 81 48 81 69 c 0,10,11
 81 77 81 77 87 83 c 128,-1,12
 93 89 93 89 100 89 c 0,13,14
 106 89 106 89 117 81 c 0,15,16
 190 25 190 25 275 25 c 0,17,18
 344 25 344 25 393.5 67.5 c 128,-1,19
 443 110 443 110 443 167 c 0,20,21
 443 226 443 226 390 269 c 128,-1,22
 337 312 337 312 265 312 c 0,23,24
 237 312 237 312 237 333 c 0,25,26
 237 353 237 353 265 353 c 0,27,28
 328 353 328 353 351 364 c 0,29,30
 383 378 383 378 402 405 c 128,-1,31
 421 432 421 432 421 464 c 0,32,33
 421 512 421 512 382 544 c 128,-1,34
 343 576 343 576 285 576 c 0,35,36
 197 576 197 576 150 523 c 0,37,38
 139 508 139 508 130 508 c 0,39,40
 122 508 122 508 116 514 c 128,-1,41
 110 520 110 520 110 528 c 0,42,43
 110 545 110 545 144 572 c 0,44,45
 205 618 205 618 286 618 c 0,46,47
 361 618 361 618 411.5 573.5 c 128,-1,48
 462 529 462 529 462 464 c 0,49,50
 462 421 462 421 435.5 385.5 c 128,-1,51
 409 350 409 350 364 330 c 1,52,53
 361 330 361 330 359 328 c 1,0,1
EndSplineSet
EndChar

StartChar: four
Encoding: 52 52 23
Width: 600
GlyphClass: 2
Flags: W
LayerCount: 2
Fore
SplineSet
386 169 m 1,0,-1
 115 169 l 1,1,-1
 115 216 l 1,2,-1
 343 604 l 1,3,-1
 427 604 l 1,4,-1
 427 210 l 1,5,-1
 476 210 l 2,6,7
 502 210 502 210 502 189 c 0,8,9
 502 169 502 169 476 169 c 2,10,-1
 427 169 l 1,11,-1
 427 41 l 1,12,-1
 476 41 l 2,13,14
 502 41 502 41 502 21 c 0,15,16
 502 0 502 0 476 0 c 2,17,-1
 295 0 l 2,18,19
 268 0 268 0 268 21 c 0,20,21
 268 41 268 41 295 41 c 2,22,-1
 386 41 l 1,23,-1
 386 169 l 1,0,-1
386 210 m 1,24,-1
 386 563 l 1,25,-1
 362 563 l 1,26,-1
 154 210 l 1,27,-1
 386 210 l 1,24,-1
EndSplineSet
EndChar

StartChar: five
Encoding: 53 53 24
Width: 600
GlyphClass: 2
Flags: W
LayerCount: 2
Fore
SplineSet
186 563 m 1,0,-1
 186 365 l 1,1,2
 256 394 256 394 318 394 c 0,3,4
 395 394 395 394 445 339.5 c 128,-1,5
 495 285 495 285 495 201 c 0,6,7
 495 106 495 106 437.5 45.5 c 128,-1,8
 380 -15 380 -15 291 -15 c 0,9,10
 212 -15 212 -15 138 34 c 0,11,12
 92 64 92 64 92 83 c 0,13,14
 92 91 92 91 98 96.5 c 128,-1,15
 104 102 104 102 112 102 c 0,16,17
 121 102 121 102 129 93 c 0,18,19
 203 25 203 25 289 25 c 0,20,21
 362 25 362 25 408 74.5 c 128,-1,22
 454 124 454 124 454 203 c 0,23,24
 454 270 454 270 414.5 312 c 128,-1,25
 375 354 375 354 312 354 c 0,26,27
 250 354 250 354 186 322 c 0,28,29
 168 313 168 313 164 313 c 0,30,31
 156 313 156 313 150 319 c 128,-1,32
 144 325 144 325 144 335 c 2,33,-1
 144 604 l 1,34,-1
 427 604 l 2,35,36
 455 604 455 604 455 584 c 0,37,38
 455 563 455 563 427 563 c 2,39,-1
 186 563 l 1,0,-1
EndSplineSet
EndChar

StartChar: six
Encoding: 54 54 25
Width: 600
GlyphClass: 2
Flags: W
LayerCount: 2
Fore
SplineSet
140 242 m 1,0,1
 200 364 200 364 305 364 c 0,2,3
 373 364 373 364 422.5 309 c 128,-1,4
 472 254 472 254 472 178 c 0,5,6
 472 97 472 97 422 41 c 128,-1,7
 372 -15 372 -15 299 -15 c 0,8,9
 210 -15 210 -15 154 68 c 128,-1,10
 98 151 98 151 98 282 c 0,11,12
 98 455 98 455 208 547 c 0,13,14
 288 618 288 618 390 618 c 0,15,16
 422 618 422 618 445 607.5 c 128,-1,17
 468 597 468 597 468 583 c 0,18,19
 468 563 468 563 450 563 c 0,20,21
 443 563 443 563 433 569 c 0,22,23
 420 576 420 576 386 576 c 0,24,25
 328 576 328 576 273.5 543.5 c 128,-1,26
 219 511 219 511 182 455 c 0,27,28
 137 384 137 384 137 285 c 0,29,30
 137 270 137 270 140 242 c 1,0,1
144 188 m 1,31,32
 151 163 151 163 154 155 c 0,33,34
 174 92 174 92 211.5 58.5 c 128,-1,35
 249 25 249 25 300 25 c 0,36,37
 355 25 355 25 393 69 c 128,-1,38
 431 113 431 113 431 178 c 0,39,40
 431 237 431 237 393.5 280 c 128,-1,41
 356 323 356 323 303 323 c 0,42,43
 246 323 246 323 195 266 c 0,44,45
 178 248 178 248 144 188 c 1,31,32
EndSplineSet
EndChar

StartChar: seven
Encoding: 55 55 26
Width: 600
GlyphClass: 2
Flags: W
LayerCount: 2
Fore
SplineSet
462 545 m 1,0,-1
 462 563 l 1,1,-1
 171 563 l 1,2,-1
 171 528 l 2,3,4
 171 500 171 500 150 500 c 0,5,6
 130 500 130 500 130 528 c 2,7,-1
 130 604 l 1,8,-1
 502 604 l 1,9,-1
 502 539 l 1,10,-1
 340 19 l 2,11,12
 333 -1 333 -1 320 -1 c 0,13,14
 312 -1 312 -1 306 5 c 128,-1,15
 300 11 300 11 300 19 c 0,16,17
 300 24 300 24 302 32 c 2,18,-1
 462 545 l 1,0,-1
EndSplineSet
EndChar

StartChar: eight
Encoding: 56 56 27
Width: 600
GlyphClass: 2
Flags: W
LayerCount: 2
Fore
SplineSet
375 313 m 1,0,1
 487 262 487 262 487 161 c 0,2,3
 487 88 487 88 432 36.5 c 128,-1,4
 377 -15 377 -15 300 -15 c 128,-1,5
 223 -15 223 -15 168 36.5 c 128,-1,6
 113 88 113 88 113 161 c 0,7,8
 113 261 113 261 225 313 c 1,9,10
 123 367 123 367 123 453 c 0,11,12
 123 520 123 520 175.5 569 c 128,-1,13
 228 618 228 618 300 618 c 128,-1,14
 372 618 372 618 424.5 569 c 128,-1,15
 477 520 477 520 477 453 c 0,16,17
 477 407 477 407 453 374 c 128,-1,18
 429 341 429 341 375 313 c 1,0,1
300 576 m 0,19,20
 244 576 244 576 204 539.5 c 128,-1,21
 164 503 164 503 164 451 c 0,22,23
 164 402 164 402 204 367.5 c 128,-1,24
 244 333 244 333 300 333 c 128,-1,25
 356 333 356 333 396 367 c 128,-1,26
 436 401 436 401 436 450 c 0,27,28
 436 503 436 503 396.5 539.5 c 128,-1,29
 357 576 357 576 300 576 c 0,19,20
300 292 m 128,-1,31
 238 292 238 292 196 254 c 128,-1,32
 154 216 154 216 154 161 c 0,33,34
 154 105 154 105 196.5 65 c 128,-1,35
 239 25 239 25 300 25 c 0,36,37
 360 25 360 25 403.5 65 c 128,-1,38
 447 105 447 105 447 160 c 0,39,40
 447 216 447 216 404.5 254 c 128,-1,30
 362 292 362 292 300 292 c 128,-1,31
EndSplineSet
EndChar

StartChar: nine
Encoding: 57 57 28
Width: 600
GlyphClass: 2
Flags: W
LayerCount: 2
Fore
SplineSet
444 360 m 1,0,1
 383 239 383 239 278 239 c 0,2,3
 210 239 210 239 160 294 c 128,-1,4
 110 349 110 349 110 425 c 0,5,6
 110 506 110 506 160.5 562 c 128,-1,7
 211 618 211 618 284 618 c 0,8,9
 373 618 373 618 429 535 c 128,-1,10
 485 452 485 452 485 322 c 0,11,12
 485 149 485 149 376 56 c 0,13,14
 294 -15 294 -15 193 -15 c 0,15,16
 161 -15 161 -15 137.5 -5 c 128,-1,17
 114 5 114 5 114 19 c 0,18,19
 114 28 114 28 119.5 34 c 128,-1,20
 125 40 125 40 133 40 c 0,21,22
 140 40 140 40 150 34 c 0,23,24
 168 25 168 25 197 25 c 0,25,26
 254 25 254 25 309 58.5 c 128,-1,27
 364 92 364 92 400 148 c 0,28,29
 447 222 447 222 447 318 c 0,30,31
 447 322 447 322 445.5 337 c 128,-1,32
 444 352 444 352 444 360 c 1,0,1
438 415 m 1,33,34
 431 440 431 440 428 448 c 0,35,36
 388 576 388 576 283 576 c 0,37,38
 227 576 227 576 189.5 532.5 c 128,-1,39
 152 489 152 489 152 425 c 0,40,41
 152 366 152 366 189.5 323 c 128,-1,42
 227 280 227 280 279 280 c 0,43,44
 337 280 337 280 388 337 c 0,45,46
 406 356 406 356 438 415 c 1,33,34
EndSplineSet
EndChar

StartChar: colon
Encoding: 58 58 29
Width: 600
GlyphClass: 2
Flags: W
LayerCount: 2
Fore
SplineSet
295 117 m 2,0,-1
 305 117 l 2,1,2
 334 117 334 117 354 98 c 128,-1,3
 374 79 374 79 374 51 c 128,-1,4
 374 23 374 23 354 4 c 128,-1,5
 334 -15 334 -15 305 -15 c 2,6,-1
 295 -15 l 2,7,8
 266 -15 266 -15 246 4.5 c 128,-1,9
 226 24 226 24 226 51 c 0,10,11
 226 79 226 79 246 98 c 128,-1,12
 266 117 266 117 295 117 c 2,0,-1
295 417 m 2,13,-1
 305 417 l 2,14,15
 334 417 334 417 354 398 c 128,-1,16
 374 379 374 379 374 351 c 128,-1,17
 374 323 374 323 354 304 c 128,-1,18
 334 285 334 285 305 285 c 2,19,-1
 295 285 l 2,20,21
 266 285 266 285 246 304 c 128,-1,22
 226 323 226 323 226 351 c 128,-1,23
 226 379 226 379 246 398 c 128,-1,24
 266 417 266 417 295 417 c 2,13,-1
EndSplineSet
EndChar

StartChar: semicolon
Encoding: 59 59 30
Width: 600
GlyphClass: 2
Flags: W
LayerCount: 2
Fore
SplineSet
235 144 m 1,0,-1
 368 144 l 1,1,-1
 223 -120 l 2,2,3
 212 -144 212 -144 192 -144 c 0,4,5
 180 -144 180 -144 171.5 -136 c 128,-1,6
 163 -128 163 -128 163 -117 c 0,7,8
 163 -112 163 -112 165 -106 c 2,9,-1
 235 144 l 1,0,-1
295 417 m 2,10,-1
 305 417 l 2,11,12
 334 417 334 417 354 398 c 128,-1,13
 374 379 374 379 374 351 c 128,-1,14
 374 323 374 323 354 304 c 128,-1,15
 334 285 334 285 305 285 c 2,16,-1
 295 285 l 2,17,18
 266 285 266 285 246 304 c 128,-1,19
 226 323 226 323 226 351 c 128,-1,20
 226 379 226 379 246 398 c 128,-1,21
 266 417 266 417 295 417 c 2,10,-1
EndSplineSet
EndChar

StartChar: less
Encoding: 60 60 31
Width: 600
GlyphClass: 2
Flags: W
LayerCount: 2
Fore
SplineSet
72 252 m 1,0,-1
 490 484 l 2,1,2
 498 489 498 489 502 489 c 0,3,4
 513 489 513 489 518 479 c 1,5,-1
 519 476 l 1,6,7
 522 472 522 472 522 467 c 0,8,9
 522 456 522 456 508 449 c 2,10,-1
 154 252 l 1,11,-1
 508 55 l 2,12,13
 522 48 522 48 522 38 c 0,14,15
 522 34 522 34 519 28 c 2,16,-1
 517 25 l 1,17,18
 514 15 514 15 502 15 c 0,19,20
 499 15 499 15 489 19 c 2,21,-1
 72 252 l 1,0,-1
EndSplineSet
EndChar

StartChar: equal
Encoding: 61 61 32
Width: 600
GlyphClass: 2
Flags: W
LayerCount: 2
Fore
SplineSet
522 303 m 2,0,-1
 78 303 l 2,1,2
 51 303 51 303 51 325 c 0,3,4
 51 345 51 345 78 345 c 2,5,-1
 522 345 l 2,6,7
 549 345 549 345 549 325 c 0,8,9
 549 303 549 303 522 303 c 2,0,-1
522 160 m 2,10,-1
 78 160 l 2,11,12
 51 160 51 160 51 181 c 0,13,14
 51 201 51 201 78 201 c 2,15,-1
 522 201 l 2,16,17
 549 201 549 201 549 181 c 0,18,19
 549 160 549 160 522 160 c 2,10,-1
EndSplineSet
EndChar

StartChar: greater
Encoding: 62 62 33
Width: 600
GlyphClass: 2
Flags: W
LayerCount: 2
Fore
SplineSet
528 251 m 1,0,-1
 110 19 l 1,1,2
 105 15 105 15 98 15 c 0,3,4
 86 15 86 15 83 24 c 1,5,-1
 81 27 l 2,6,7
 78 32 78 32 78 36 c 0,8,9
 78 46 78 46 91 53 c 2,10,-1
 447 251 l 1,11,-1
 91 448 l 2,12,13
 78 456 78 456 78 466 c 0,14,15
 78 471 78 471 81 475 c 2,16,-1
 83 478 l 2,17,18
 88 488 88 488 98 488 c 0,19,20
 100 488 100 488 110 483 c 2,21,-1
 528 251 l 1,0,-1
EndSplineSet
EndChar

StartChar: question
Encoding: 63 63 34
Width: 600
GlyphClass: 2
Flags: W
LayerCount: 2
Fore
SplineSet
322 248 m 1,0,-1
 322 206 l 2,1,2
 322 178 322 178 302 178 c 128,-1,3
 282 178 282 178 282 206 c 2,4,-1
 282 274 l 1,5,6
 369 311 369 311 408 346.5 c 128,-1,7
 447 382 447 382 447 424 c 0,8,9
 447 473 447 473 406.5 504.5 c 128,-1,10
 366 536 366 536 303 536 c 0,11,12
 243 536 243 536 175 502 c 1,13,-1
 175 461 l 2,14,15
 175 434 175 434 155 434 c 0,16,17
 133 434 133 434 133 461 c 2,18,-1
 133 529 l 1,19,20
 139 531 139 531 150 535.5 c 128,-1,21
 161 540 161 540 163 541 c 0,22,23
 242 576 242 576 309 576 c 0,24,25
 389 576 389 576 438 534 c 128,-1,26
 487 492 487 492 487 424 c 0,27,28
 487 368 487 368 451 329.5 c 128,-1,29
 415 291 415 291 322 248 c 1,0,-1
286 85 m 2,30,-1
 314 85 l 2,31,32
 340 85 340 85 355.5 71.5 c 128,-1,33
 371 58 371 58 371 35 c 0,34,35
 371 13 371 13 355 -1 c 128,-1,36
 339 -15 339 -15 314 -15 c 2,37,-1
 286 -15 l 2,38,39
 261 -15 261 -15 246 -1.5 c 128,-1,40
 231 12 231 12 231 35 c 128,-1,41
 231 58 231 58 245.5 71.5 c 128,-1,42
 260 85 260 85 286 85 c 2,30,-1
EndSplineSet
EndChar

StartChar: at
Encoding: 64 64 35
Width: 600
GlyphClass: 2
Flags: W
LayerCount: 2
Fore
SplineSet
430 144 m 1,0,-1
 430 150 l 1,1,2
 400 147 400 147 390 147 c 0,3,4
 332 147 332 147 293 183 c 128,-1,5
 254 219 254 219 254 272 c 0,6,7
 254 335 254 335 304 376 c 128,-1,8
 354 417 354 417 430 416 c 1,9,-1
 430 464 l 2,10,11
 430 516 430 516 397 549.5 c 128,-1,12
 364 583 364 583 313 583 c 0,13,14
 245 583 245 583 201.5 520 c 128,-1,15
 158 457 158 457 158 358 c 2,16,-1
 158 198 l 2,17,18
 158 106 158 106 205 36 c 0,19,20
 246 -21 246 -21 317 -21 c 0,21,22
 382 -21 382 -21 422 8 c 1,23,24
 433 19 433 19 441 19 c 128,-1,25
 449 19 449 19 455 13.5 c 128,-1,26
 461 8 461 8 461 1 c 0,27,28
 461 -22 461 -22 413.5 -42 c 128,-1,29
 366 -62 366 -62 311 -62 c 0,30,31
 225 -62 225 -62 171 13 c 0,32,33
 117 92 117 92 117 198 c 2,34,-1
 117 360 l 2,35,36
 117 475 117 475 172 549.5 c 128,-1,37
 227 624 227 624 312 624 c 0,38,39
 380 624 380 624 425.5 578 c 128,-1,40
 471 532 471 532 471 464 c 2,41,-1
 471 186 l 1,42,43
 490 183 490 183 490 166 c 0,44,45
 490 144 490 144 464 144 c 2,46,-1
 430 144 l 1,0,-1
430 192 m 1,47,-1
 430 376 l 1,48,49
 371 376 371 376 333 347 c 128,-1,50
 295 318 295 318 295 273 c 0,51,52
 295 235 295 235 322.5 211.5 c 128,-1,53
 350 188 350 188 393 188 c 0,54,55
 413 188 413 188 430 192 c 1,47,-1
EndSplineSet
EndChar

StartChar: A
Encoding: 65 65 36
Width: 600
GlyphClass: 2
Flags: W
LayerCount: 2
Fore
SplineSet
428 188 m 1,0,-1
 161 188 l 1,1,-1
 108 41 l 1,2,-1
 187 41 l 2,3,4
 214 41 214 41 214 21 c 0,5,6
 214 0 214 0 187 0 c 2,7,-1
 36 0 l 2,8,9
 8 0 8 0 8 21 c 0,10,11
 8 41 8 41 36 41 c 2,12,-1
 67 41 l 1,13,-1
 246 522 l 1,14,-1
 126 522 l 2,15,16
 100 522 100 522 100 542 c 0,17,18
 100 563 100 563 126 563 c 2,19,-1
 330 563 l 1,20,-1
 527 41 l 1,21,-1
 564 41 l 2,22,23
 591 41 591 41 591 21 c 0,24,25
 591 0 591 0 564 0 c 2,26,-1
 408 0 l 2,27,28
 381 0 381 0 381 21 c 0,29,30
 381 41 381 41 408 41 c 2,31,-1
 484 41 l 1,32,-1
 428 188 l 1,0,-1
413 229 m 1,33,-1
 301 522 l 1,34,-1
 286 522 l 1,35,-1
 178 229 l 1,36,-1
 413 229 l 1,33,-1
EndSplineSet
EndChar

StartChar: B
Encoding: 66 66 37
Width: 600
GlyphClass: 2
Flags: W
LayerCount: 2
Fore
SplineSet
124 41 m 1,0,-1
 124 522 l 1,1,-1
 70 522 l 2,2,3
 42 522 42 522 42 542 c 0,4,5
 42 563 42 563 70 563 c 2,6,-1
 328 563 l 2,7,8
 401 563 401 563 450 521 c 128,-1,9
 499 479 499 479 499 417 c 0,10,11
 499 344 499 344 414 299 c 1,12,13
 541 252 541 252 541 153 c 0,14,15
 541 90 541 90 492.5 45 c 128,-1,16
 444 0 444 0 376 0 c 2,17,-1
 70 0 l 2,18,19
 42 0 42 0 42 21 c 0,20,21
 42 41 42 41 70 41 c 2,22,-1
 124 41 l 1,0,-1
165 313 m 1,23,-1
 312 313 l 2,24,25
 376 313 376 313 417 343 c 128,-1,26
 458 373 458 373 458 419 c 0,27,28
 458 463 458 463 421 492.5 c 128,-1,29
 384 522 384 522 329 522 c 2,30,-1
 165 522 l 1,31,-1
 165 313 l 1,23,-1
165 41 m 1,32,-1
 373 41 l 2,33,34
 426 41 426 41 463 73.5 c 128,-1,35
 500 106 500 106 500 153 c 0,36,37
 500 180 500 180 484.5 205 c 128,-1,38
 469 230 469 230 441 246 c 0,39,40
 397 272 397 272 314 272 c 2,41,-1
 165 272 l 1,42,-1
 165 41 l 1,32,-1
EndSplineSet
EndChar

StartChar: C
Encoding: 67 67 38
Width: 600
GlyphClass: 2
Flags: W
LayerCount: 2
Fore
SplineSet
478 507 m 1,0,-1
 478 536 l 2,1,2
 478 563 478 563 499 563 c 0,3,4
 519 563 519 563 519 536 c 2,5,-1
 519 424 l 2,6,7
 519 397 519 397 498 397 c 0,8,9
 480 397 480 397 478 421 c 0,10,11
 476 467 476 467 424 501 c 128,-1,12
 372 535 372 535 305 535 c 0,13,14
 222 535 222 535 163 471.5 c 128,-1,15
 104 408 104 408 104 319 c 2,16,-1
 104 248 l 2,17,18
 104 157 104 157 168.5 91 c 128,-1,19
 233 25 233 25 322 25 c 0,20,21
 374 25 374 25 415 46 c 128,-1,22
 456 67 456 67 496 115 c 0,23,24
 504 125 504 125 515 125 c 0,25,26
 523 125 523 125 528.5 119.5 c 128,-1,27
 534 114 534 114 534 106 c 0,28,29
 534 90 534 90 496 55 c 0,30,31
 422 -16 422 -16 322 -16 c 0,32,33
 220 -16 220 -16 141.5 62.5 c 128,-1,34
 63 141 63 141 63 242 c 2,35,-1
 63 325 l 2,36,37
 63 371 63 371 82 419 c 128,-1,38
 101 467 101 467 133 502 c 0,39,40
 202 576 202 576 305 576 c 0,41,42
 406 576 406 576 478 507 c 1,0,-1
EndSplineSet
EndChar

StartChar: D
Encoding: 68 68 39
Width: 600
GlyphClass: 2
Flags: W
LayerCount: 2
Fore
SplineSet
124 41 m 1,0,-1
 124 522 l 1,1,-1
 90 522 l 2,2,3
 63 522 63 522 63 542 c 0,4,5
 63 563 63 563 90 563 c 2,6,-1
 309 563 l 2,7,8
 406 563 406 563 473 489.5 c 128,-1,9
 540 416 540 416 540 309 c 2,10,-1
 540 254 l 2,11,12
 540 147 540 147 473 73.5 c 128,-1,13
 406 0 406 0 309 0 c 2,14,-1
 90 0 l 2,15,16
 63 0 63 0 63 21 c 0,17,18
 63 41 63 41 90 41 c 2,19,-1
 124 41 l 1,0,-1
165 41 m 1,20,-1
 316 41 l 2,21,22
 387 41 387 41 443 103.5 c 128,-1,23
 499 166 499 166 499 245 c 2,24,-1
 499 318 l 2,25,26
 499 358 499 358 481.5 400 c 128,-1,27
 464 442 464 442 434 472 c 0,28,29
 384 522 384 522 308 522 c 2,30,-1
 165 522 l 1,31,-1
 165 41 l 1,20,-1
EndSplineSet
EndChar

StartChar: E
Encoding: 69 69 40
Width: 600
GlyphClass: 2
Flags: W
LayerCount: 2
Fore
SplineSet
165 272 m 1,0,-1
 165 41 l 1,1,-1
 479 41 l 1,2,-1
 479 160 l 2,3,4
 479 187 479 187 500 187 c 0,5,6
 519 187 519 187 519 160 c 2,7,-1
 519 0 l 1,8,-1
 70 0 l 2,9,10
 42 0 42 0 42 21 c 0,11,12
 42 41 42 41 70 41 c 2,13,-1
 124 41 l 1,14,-1
 124 522 l 1,15,-1
 70 522 l 2,16,17
 42 522 42 522 42 542 c 0,18,19
 42 563 42 563 70 563 c 2,20,-1
 499 563 l 1,21,-1
 499 424 l 2,22,23
 499 397 499 397 478 397 c 0,24,25
 458 397 458 397 458 424 c 2,26,-1
 458 522 l 1,27,-1
 165 522 l 1,28,-1
 165 313 l 1,29,-1
 309 313 l 1,30,-1
 309 358 l 2,31,32
 309 385 309 385 331 385 c 0,33,34
 351 385 351 385 351 358 c 2,35,-1
 351 227 l 2,36,37
 351 200 351 200 331 200 c 0,38,39
 309 200 309 200 309 227 c 2,40,-1
 309 272 l 1,41,-1
 165 272 l 1,0,-1
EndSplineSet
EndChar

StartChar: F
Encoding: 70 70 41
Width: 600
GlyphClass: 2
Flags: W
LayerCount: 2
Fore
SplineSet
165 272 m 1,0,-1
 165 41 l 1,1,-1
 303 41 l 2,2,3
 331 41 331 41 331 21 c 0,4,5
 331 0 331 0 303 0 c 2,6,-1
 70 0 l 2,7,8
 42 0 42 0 42 21 c 0,9,10
 42 41 42 41 70 41 c 2,11,-1
 124 41 l 1,12,-1
 124 522 l 1,13,-1
 70 522 l 2,14,15
 42 522 42 522 42 542 c 0,16,17
 42 563 42 563 70 563 c 2,18,-1
 519 563 l 1,19,-1
 519 424 l 2,20,21
 519 397 519 397 499 397 c 128,-1,22
 479 397 479 397 479 424 c 2,23,-1
 479 522 l 1,24,-1
 165 522 l 1,25,-1
 165 313 l 1,26,-1
 309 313 l 1,27,-1
 309 358 l 2,28,29
 309 385 309 385 330 385 c 128,-1,30
 351 385 351 385 351 358 c 2,31,-1
 351 227 l 2,32,33
 351 200 351 200 330 200 c 128,-1,34
 309 200 309 200 309 227 c 2,35,-1
 309 272 l 1,36,-1
 165 272 l 1,0,-1
EndSplineSet
EndChar

StartChar: G
Encoding: 71 71 42
Width: 600
GlyphClass: 2
Flags: W
LayerCount: 2
Fore
SplineSet
519 209 m 1,0,-1
 519 36 l 1,1,2
 430 -16 430 -16 333 -16 c 0,3,4
 210 -16 210 -16 136.5 55 c 128,-1,5
 63 126 63 126 63 244 c 2,6,-1
 63 318 l 2,7,8
 63 372 63 372 84.5 424 c 128,-1,9
 106 476 106 476 144 511 c 0,10,11
 214 576 214 576 313 576 c 128,-1,12
 412 576 412 576 479 522 c 1,13,-1
 479 536 l 2,14,15
 479 563 479 563 500 563 c 0,16,17
 519 563 519 563 519 536 c 2,18,-1
 519 445 l 2,19,20
 519 417 519 417 500 417 c 128,-1,21
 481 417 481 417 481 443 c 0,22,23
 477 481 477 481 429.5 508 c 128,-1,24
 382 535 382 535 316 535 c 0,25,26
 231 535 231 535 176 481 c 0,27,28
 143 451 143 451 123.5 406 c 128,-1,29
 104 361 104 361 104 317 c 2,30,-1
 104 244 l 2,31,32
 104 142 104 142 166 83.5 c 128,-1,33
 228 25 228 25 336 25 c 0,34,35
 407 25 407 25 479 59 c 1,36,-1
 479 209 l 1,37,-1
 340 209 l 2,38,39
 313 209 313 209 313 231 c 0,40,41
 313 250 313 250 340 250 c 2,42,-1
 534 250 l 2,43,44
 562 250 562 250 562 231 c 0,45,46
 562 209 562 209 534 209 c 2,47,-1
 519 209 l 1,0,-1
EndSplineSet
EndChar

StartChar: H
Encoding: 72 72 43
Width: 600
GlyphClass: 2
Flags: W
LayerCount: 2
Fore
SplineSet
437 272 m 1,0,-1
 165 272 l 1,1,-1
 165 41 l 1,2,-1
 218 41 l 2,3,4
 246 41 246 41 246 21 c 0,5,6
 246 0 246 0 218 0 c 2,7,-1
 79 0 l 2,8,9
 51 0 51 0 51 21 c 0,10,11
 51 41 51 41 79 41 c 2,12,-1
 124 41 l 1,13,-1
 124 522 l 1,14,-1
 100 522 l 2,15,16
 72 522 72 522 72 542 c 0,17,18
 72 563 72 563 100 563 c 2,19,-1
 218 563 l 2,20,21
 246 563 246 563 246 542 c 0,22,23
 246 522 246 522 218 522 c 2,24,-1
 165 522 l 1,25,-1
 165 313 l 1,26,-1
 437 313 l 1,27,-1
 437 522 l 1,28,-1
 383 522 l 2,29,30
 356 522 356 522 356 542 c 0,31,32
 356 563 356 563 383 563 c 2,33,-1
 502 563 l 2,34,35
 530 563 530 563 530 542 c 0,36,37
 530 522 530 522 502 522 c 2,38,-1
 478 522 l 1,39,-1
 478 41 l 1,40,-1
 524 41 l 2,41,42
 551 41 551 41 551 21 c 0,43,44
 551 0 551 0 524 0 c 2,45,-1
 383 0 l 2,46,47
 356 0 356 0 356 21 c 0,48,49
 356 41 356 41 383 41 c 2,50,-1
 437 41 l 1,51,-1
 437 272 l 1,0,-1
EndSplineSet
EndChar

StartChar: I
Encoding: 73 73 44
Width: 600
GlyphClass: 2
Flags: W
LayerCount: 2
Fore
SplineSet
320 522 m 1,0,-1
 320 41 l 1,1,-1
 459 41 l 2,2,3
 487 41 487 41 487 21 c 0,4,5
 487 0 487 0 459 0 c 2,6,-1
 140 0 l 2,7,8
 113 0 113 0 113 21 c 0,9,10
 113 41 113 41 140 41 c 2,11,-1
 279 41 l 1,12,-1
 279 522 l 1,13,-1
 140 522 l 2,14,15
 113 522 113 522 113 542 c 0,16,17
 113 563 113 563 140 563 c 2,18,-1
 459 563 l 2,19,20
 487 563 487 563 487 542 c 0,21,22
 487 522 487 522 459 522 c 2,23,-1
 320 522 l 1,0,-1
EndSplineSet
EndChar

StartChar: J
Encoding: 74 74 45
Width: 600
GlyphClass: 2
Flags: W
LayerCount: 2
Fore
SplineSet
437 522 m 1,0,-1
 437 165 l 2,1,2
 437 91 437 91 381.5 37.5 c 128,-1,3
 326 -16 326 -16 249 -16 c 0,4,5
 200 -16 200 -16 157.5 4.5 c 128,-1,6
 115 25 115 25 61 74 c 1,7,-1
 61 223 l 2,8,9
 61 250 61 250 83 250 c 0,10,11
 102 250 102 250 102 223 c 2,12,-1
 102 93 l 1,13,14
 177 25 177 25 250 25 c 0,15,16
 311 25 311 25 353.5 66 c 128,-1,17
 396 107 396 107 396 165 c 2,18,-1
 396 522 l 1,19,-1
 237 522 l 2,20,21
 210 522 210 522 210 542 c 0,22,23
 210 563 210 563 237 563 c 2,24,-1
 533 563 l 2,25,26
 559 563 559 563 559 542 c 0,27,28
 559 522 559 522 533 522 c 2,29,-1
 437 522 l 1,0,-1
EndSplineSet
EndChar

StartChar: K
Encoding: 75 75 46
Width: 600
GlyphClass: 2
Flags: W
LayerCount: 2
Fore
SplineSet
165 221 m 1,0,-1
 165 41 l 1,1,-1
 240 41 l 2,2,3
 267 41 267 41 267 21 c 0,4,5
 267 0 267 0 240 0 c 2,6,-1
 70 0 l 2,7,8
 42 0 42 0 42 21 c 0,9,10
 42 41 42 41 70 41 c 2,11,-1
 124 41 l 1,12,-1
 124 522 l 1,13,-1
 70 522 l 2,14,15
 42 522 42 522 42 542 c 0,16,17
 42 563 42 563 70 563 c 2,18,-1
 240 563 l 2,19,20
 267 563 267 563 267 542 c 0,21,22
 267 522 267 522 240 522 c 2,23,-1
 165 522 l 1,24,-1
 165 273 l 1,25,-1
 445 522 l 1,26,-1
 400 522 l 2,27,28
 373 522 373 522 373 542 c 0,29,30
 373 563 373 563 400 563 c 2,31,-1
 518 563 l 2,32,33
 546 563 546 563 546 542 c 0,34,35
 546 522 546 522 518 522 c 2,36,-1
 502 522 l 1,37,-1
 280 324 l 1,38,39
 353 294 353 294 393 239.5 c 128,-1,40
 433 185 433 185 489 41 c 1,41,-1
 545 41 l 2,42,43
 572 41 572 41 572 21 c 0,44,45
 572 0 572 0 545 0 c 2,46,-1
 458 0 l 1,47,48
 403 152 403 152 360 211.5 c 128,-1,49
 317 271 317 271 246 294 c 1,50,-1
 165 221 l 1,0,-1
EndSplineSet
EndChar

StartChar: L
Encoding: 76 76 47
Width: 600
GlyphClass: 2
Flags: W
LayerCount: 2
Fore
SplineSet
208 522 m 1,0,-1
 208 41 l 1,1,-1
 485 41 l 1,2,-1
 485 201 l 2,3,4
 485 228 485 228 506 228 c 0,5,6
 525 228 525 228 525 201 c 2,7,-1
 525 0 l 1,8,-1
 90 0 l 2,9,10
 63 0 63 0 63 21 c 0,11,12
 63 41 63 41 90 41 c 2,13,-1
 166 41 l 1,14,-1
 166 522 l 1,15,-1
 90 522 l 2,16,17
 63 522 63 522 63 542 c 0,18,19
 63 563 63 563 90 563 c 2,20,-1
 283 563 l 2,21,22
 309 563 309 563 309 542 c 0,23,24
 309 522 309 522 283 522 c 2,25,-1
 208 522 l 1,0,-1
EndSplineSet
EndChar

StartChar: M
Encoding: 77 77 48
Width: 600
GlyphClass: 2
Flags: W
LayerCount: 2
Fore
SplineSet
326 169 m 1,0,-1
 280 169 l 1,1,-1
 121 522 l 1,2,-1
 113 522 l 1,3,-1
 113 41 l 1,4,-1
 187 41 l 2,5,6
 215 41 215 41 215 21 c 0,7,8
 215 0 215 0 187 0 c 2,9,-1
 38 0 l 2,10,11
 11 0 11 0 11 21 c 0,12,13
 11 41 11 41 38 41 c 2,14,-1
 72 41 l 1,15,-1
 72 522 l 1,16,-1
 47 522 l 2,17,18
 19 522 19 522 19 542 c 0,19,20
 19 563 19 563 47 563 c 2,21,-1
 146 563 l 1,22,-1
 303 215 l 1,23,-1
 458 563 l 1,24,-1
 557 563 l 2,25,26
 584 563 584 563 584 542 c 0,27,28
 584 522 584 522 557 522 c 2,29,-1
 532 522 l 1,30,-1
 532 41 l 1,31,-1
 566 41 l 2,32,33
 593 41 593 41 593 21 c 0,34,35
 593 0 593 0 566 0 c 2,36,-1
 417 0 l 2,37,38
 390 0 390 0 390 21 c 0,39,40
 390 41 390 41 417 41 c 2,41,-1
 492 41 l 1,42,-1
 492 522 l 1,43,-1
 483 522 l 1,44,-1
 326 169 l 1,0,-1
EndSplineSet
EndChar

StartChar: N
Encoding: 78 78 49
Width: 600
GlyphClass: 2
Flags: W
LayerCount: 2
Fore
SplineSet
501 0 m 1,0,-1
 449 0 l 1,1,-1
 144 504 l 1,2,-1
 144 41 l 1,3,-1
 218 41 l 2,4,5
 246 41 246 41 246 21 c 0,6,7
 246 0 246 0 218 0 c 2,8,-1
 69 0 l 2,9,10
 42 0 42 0 42 21 c 0,11,12
 42 41 42 41 69 41 c 2,13,-1
 103 41 l 1,14,-1
 103 522 l 1,15,-1
 49 522 l 2,16,17
 22 522 22 522 22 542 c 0,18,19
 22 563 22 563 49 563 c 2,20,-1
 155 563 l 1,21,-1
 460 59 l 1,22,-1
 460 522 l 1,23,-1
 386 522 l 2,24,25
 358 522 358 522 358 542 c 0,26,27
 358 563 358 563 386 563 c 2,28,-1
 535 563 l 2,29,30
 562 563 562 563 562 542 c 0,31,32
 562 522 562 522 535 522 c 2,33,-1
 501 522 l 1,34,-1
 501 0 l 1,0,-1
EndSplineSet
EndChar

StartChar: O
Encoding: 79 79 50
Width: 600
GlyphClass: 2
Flags: W
LayerCount: 2
Fore
SplineSet
300 576 m 0,0,1
 406 576 406 576 477.5 490 c 128,-1,2
 549 404 549 404 549 275 c 0,3,4
 549 155 549 155 476 69.5 c 128,-1,5
 403 -16 403 -16 300 -16 c 0,6,7
 196 -16 196 -16 123.5 70 c 128,-1,8
 51 156 51 156 51 280 c 128,-1,9
 51 404 51 404 123.5 490 c 128,-1,10
 196 576 196 576 300 576 c 0,0,1
300 535 m 128,-1,12
 213 535 213 535 152.5 460 c 128,-1,13
 92 385 92 385 92 280 c 128,-1,14
 92 175 92 175 153 100 c 128,-1,15
 214 25 214 25 300 25 c 0,16,17
 385 25 385 25 446.5 99.5 c 128,-1,18
 508 174 508 174 508 277 c 0,19,20
 508 385 508 385 447.5 460 c 128,-1,11
 387 535 387 535 300 535 c 128,-1,12
EndSplineSet
EndChar

StartChar: P
Encoding: 80 80 51
Width: 600
GlyphClass: 2
Flags: W
LayerCount: 2
Fore
SplineSet
165 231 m 1,0,-1
 165 41 l 1,1,-1
 303 41 l 2,2,3
 331 41 331 41 331 21 c 0,4,5
 331 0 331 0 303 0 c 2,6,-1
 70 0 l 2,7,8
 42 0 42 0 42 21 c 0,9,10
 42 41 42 41 70 41 c 2,11,-1
 124 41 l 1,12,-1
 124 522 l 1,13,-1
 70 522 l 2,14,15
 42 522 42 522 42 542 c 0,16,17
 42 563 42 563 70 563 c 2,18,-1
 346 563 l 2,19,20
 425 563 425 563 480 515.5 c 128,-1,21
 535 468 535 468 535 398 c 128,-1,22
 535 328 535 328 476.5 279.5 c 128,-1,23
 418 231 418 231 333 231 c 2,24,-1
 165 231 l 1,0,-1
165 272 m 1,25,-1
 335 272 l 2,26,27
 400 272 400 272 447 309 c 128,-1,28
 494 346 494 346 494 398 c 0,29,30
 494 449 494 449 451.5 485.5 c 128,-1,31
 409 522 409 522 350 522 c 2,32,-1
 165 522 l 1,33,-1
 165 272 l 1,25,-1
EndSplineSet
EndChar

StartChar: Q
Encoding: 81 81 52
Width: 600
GlyphClass: 2
Flags: W
LayerCount: 2
Fore
SplineSet
305 -16 m 1,0,-1
 251 -56 l 1,1,2
 287 -49 287 -49 318 -49 c 0,3,4
 362 -49 362 -49 400 -63 c 0,5,6
 429 -74 429 -74 445 -74 c 0,7,8
 472 -74 472 -74 515 -47 c 1,9,10
 520 -42 520 -42 525 -42 c 0,11,12
 533 -42 533 -42 539.5 -48.5 c 128,-1,13
 546 -55 546 -55 546 -64 c 0,14,15
 546 -79 546 -79 509.5 -97 c 128,-1,16
 473 -115 473 -115 442 -115 c 0,17,18
 424 -115 424 -115 386 -102 c 0,19,20
 351 -89 351 -89 318 -89 c 0,21,22
 260 -89 260 -89 178 -112 c 0,23,24
 170 -114 170 -114 167 -114 c 0,25,26
 159 -114 159 -114 153.5 -108 c 128,-1,27
 148 -102 148 -102 148 -93 c 0,28,29
 148 -83 148 -83 159 -75 c 2,30,-1
 249 -10 l 1,31,32
 164 9 164 9 107.5 92 c 128,-1,33
 51 175 51 175 51 280 c 0,34,35
 51 404 51 404 123.5 490 c 128,-1,36
 196 576 196 576 300 576 c 128,-1,37
 404 576 404 576 476.5 490 c 128,-1,38
 549 404 549 404 549 280 c 0,39,40
 549 158 549 158 478.5 72.5 c 128,-1,41
 408 -13 408 -13 305 -16 c 1,0,-1
300 535 m 128,-1,43
 213 535 213 535 152.5 460 c 128,-1,44
 92 385 92 385 92 280 c 128,-1,45
 92 175 92 175 153 100 c 128,-1,46
 214 25 214 25 300 25 c 0,47,48
 385 25 385 25 446.5 99.5 c 128,-1,49
 508 174 508 174 508 277 c 0,50,51
 508 385 508 385 447.5 460 c 128,-1,42
 387 535 387 535 300 535 c 128,-1,43
EndSplineSet
EndChar

StartChar: R
Encoding: 82 82 53
Width: 600
GlyphClass: 2
Flags: W
LayerCount: 2
Fore
SplineSet
165 251 m 1,0,-1
 165 41 l 1,1,-1
 240 41 l 2,2,3
 267 41 267 41 267 21 c 0,4,5
 267 0 267 0 240 0 c 2,6,-1
 70 0 l 2,7,8
 42 0 42 0 42 21 c 0,9,10
 42 41 42 41 70 41 c 2,11,-1
 124 41 l 1,12,-1
 124 522 l 1,13,-1
 70 522 l 2,14,15
 42 522 42 522 42 542 c 0,16,17
 42 563 42 563 70 563 c 2,18,-1
 318 563 l 2,19,20
 391 563 391 563 444.5 517 c 128,-1,21
 498 471 498 471 498 407 c 0,22,23
 498 310 498 310 359 262 c 1,24,25
 406 229 406 229 438 188 c 128,-1,26
 470 147 470 147 532 41 c 1,27,-1
 562 41 l 2,28,29
 589 41 589 41 589 21 c 0,30,31
 589 0 589 0 562 0 c 2,32,-1
 505 0 l 1,33,34
 438 122 438 122 395.5 173.5 c 128,-1,35
 353 225 353 225 297 251 c 1,36,-1
 165 251 l 1,0,-1
165 292 m 1,37,-1
 279 292 l 2,38,39
 353 292 353 292 405.5 326 c 128,-1,40
 458 360 458 360 458 408 c 0,41,42
 458 453 458 453 415 487.5 c 128,-1,43
 372 522 372 522 318 522 c 2,44,-1
 165 522 l 1,45,-1
 165 292 l 1,37,-1
EndSplineSet
EndChar

StartChar: S
Encoding: 83 83 54
Width: 600
GlyphClass: 2
Flags: W
LayerCount: 2
Fore
SplineSet
445 517 m 1,0,-1
 445 536 l 2,1,2
 445 563 445 563 466 563 c 0,3,4
 485 563 485 563 485 536 c 2,5,-1
 485 433 l 2,6,7
 485 407 485 407 466 407 c 0,8,9
 448 407 448 407 445 430 c 0,10,11
 442 475 442 475 401 505 c 128,-1,12
 360 535 360 535 302 535 c 0,13,14
 241 535 241 535 200 502 c 128,-1,15
 159 469 159 469 159 420 c 128,-1,16
 159 371 159 371 198 343 c 0,17,18
 232 322 232 322 311 309 c 0,19,20
 409 293 409 293 447 269 c 0,21,22
 508 230 508 230 508 150 c 0,23,24
 508 77 508 77 450 30.5 c 128,-1,25
 392 -16 392 -16 302 -16 c 0,26,27
 194 -16 194 -16 133 56 c 1,28,-1
 133 27 l 2,29,30
 133 0 133 0 112 0 c 0,31,32
 92 0 92 0 92 27 c 2,33,-1
 92 140 l 2,34,35
 92 166 92 166 113 166 c 0,36,37
 132 166 132 166 133 142 c 0,38,39
 135 93 135 93 184 59 c 128,-1,40
 233 25 233 25 301 25 c 0,41,42
 371 25 371 25 417.5 61.5 c 128,-1,43
 464 98 464 98 464 153 c 0,44,45
 464 210 464 210 419 237 c 0,46,47
 388 255 388 255 303 271 c 0,48,49
 207 287 207 287 167 317 c 0,50,51
 115 352 115 352 115 421 c 0,52,53
 115 487 115 487 168 531.5 c 128,-1,54
 221 576 221 576 299 576 c 0,55,56
 385 576 385 576 445 517 c 1,0,-1
EndSplineSet
EndChar

StartChar: T
Encoding: 84 84 55
Width: 600
GlyphClass: 2
Flags: W
LayerCount: 2
Fore
SplineSet
322 41 m 1,0,-1
 426 41 l 2,1,2
 453 41 453 41 453 21 c 0,3,4
 453 0 453 0 426 0 c 2,5,-1
 175 0 l 2,6,7
 148 0 148 0 148 21 c 0,8,9
 148 41 148 41 175 41 c 2,10,-1
 280 41 l 1,11,-1
 280 522 l 1,12,-1
 113 522 l 1,13,-1
 113 449 l 2,14,15
 113 422 113 422 92 422 c 0,16,17
 72 422 72 422 72 449 c 2,18,-1
 72 563 l 1,19,-1
 528 563 l 1,20,-1
 528 449 l 2,21,22
 528 422 528 422 508 422 c 0,23,24
 499 422 499 422 493 429.5 c 128,-1,25
 487 437 487 437 487 449 c 2,26,-1
 487 522 l 1,27,-1
 322 522 l 1,28,-1
 322 41 l 1,0,-1
EndSplineSet
EndChar

StartChar: U
Encoding: 85 85 56
Width: 600
GlyphClass: 2
Flags: W
LayerCount: 2
Fore
SplineSet
499 522 m 1,0,-1
 499 184 l 2,1,2
 499 100 499 100 441 42 c 128,-1,3
 383 -16 383 -16 300 -16 c 0,4,5
 216 -16 216 -16 158.5 42 c 128,-1,6
 101 100 101 100 101 184 c 2,7,-1
 101 522 l 1,8,-1
 67 522 l 2,9,10
 40 522 40 522 40 542 c 0,11,12
 40 563 40 563 67 563 c 2,13,-1
 216 563 l 2,14,15
 243 563 243 563 243 542 c 0,16,17
 243 522 243 522 216 522 c 2,18,-1
 142 522 l 1,19,-1
 142 184 l 2,20,21
 142 117 142 117 187.5 71 c 128,-1,22
 233 25 233 25 300 25 c 0,23,24
 366 25 366 25 412 71 c 128,-1,25
 458 117 458 117 458 184 c 2,26,-1
 458 522 l 1,27,-1
 383 522 l 2,28,29
 357 522 357 522 357 542 c 0,30,31
 357 563 357 563 383 563 c 2,32,-1
 533 563 l 2,33,34
 559 563 559 563 559 542 c 0,35,36
 559 522 559 522 533 522 c 2,37,-1
 499 522 l 1,0,-1
EndSplineSet
EndChar

StartChar: V
Encoding: 86 86 57
Width: 600
GlyphClass: 2
Flags: W
LayerCount: 2
Fore
SplineSet
267 0 m 1,0,-1
 67 522 l 1,1,-1
 36 522 l 2,2,3
 8 522 8 522 8 542 c 0,4,5
 8 563 8 563 36 563 c 2,6,-1
 187 563 l 2,7,8
 214 563 214 563 214 542 c 0,9,10
 214 522 214 522 187 522 c 2,11,-1
 110 522 l 1,12,-1
 296 41 l 1,13,-1
 299 41 l 1,14,-1
 492 522 l 1,15,-1
 414 522 l 2,16,17
 387 522 387 522 387 542 c 0,18,19
 387 563 387 563 414 563 c 2,20,-1
 564 563 l 2,21,22
 591 563 591 563 591 542 c 0,23,24
 591 522 591 522 564 522 c 2,25,-1
 533 522 l 1,26,-1
 324 0 l 1,27,-1
 267 0 l 1,0,-1
EndSplineSet
EndChar

StartChar: W
Encoding: 87 87 58
Width: 600
GlyphClass: 2
Flags: W
LayerCount: 2
Fore
SplineSet
123 0 m 1,0,-1
 62 522 l 1,1,-1
 42 522 l 2,2,3
 15 522 15 522 15 542 c 0,4,5
 15 563 15 563 42 563 c 2,6,-1
 186 563 l 2,7,8
 214 563 214 563 214 542 c 0,9,10
 214 522 214 522 186 522 c 2,11,-1
 103 522 l 1,12,-1
 159 46 l 1,13,-1
 271 438 l 1,14,-1
 333 438 l 1,15,-1
 442 46 l 1,16,-1
 499 522 l 1,17,-1
 413 522 l 2,18,19
 386 522 386 522 386 542 c 0,20,21
 386 563 386 563 413 563 c 2,22,-1
 558 563 l 2,23,24
 585 563 585 563 585 542 c 0,25,26
 585 522 585 522 558 522 c 2,27,-1
 538 522 l 1,28,-1
 476 0 l 1,29,-1
 411 0 l 1,30,-1
 300 400 l 1,31,-1
 184 0 l 1,32,-1
 123 0 l 1,0,-1
EndSplineSet
EndChar

StartChar: X
Encoding: 88 88 59
Width: 600
GlyphClass: 2
Flags: W
LayerCount: 2
Fore
SplineSet
325 288 m 1,0,-1
 516 41 l 1,1,-1
 533 41 l 2,2,3
 559 41 559 41 559 21 c 0,4,5
 559 0 559 0 533 0 c 2,6,-1
 400 0 l 2,7,8
 374 0 374 0 374 21 c 0,9,10
 374 41 374 41 400 41 c 2,11,-1
 464 41 l 1,12,-1
 299 255 l 1,13,-1
 133 41 l 1,14,-1
 198 41 l 2,15,16
 225 41 225 41 225 21 c 0,17,18
 225 0 225 0 198 0 c 2,19,-1
 67 0 l 2,20,21
 40 0 40 0 40 21 c 0,22,23
 40 41 40 41 67 41 c 2,24,-1
 84 41 l 1,25,-1
 272 288 l 1,26,-1
 93 522 l 1,27,-1
 78 522 l 2,28,29
 51 522 51 522 51 542 c 0,30,31
 51 563 51 563 78 563 c 2,32,-1
 188 563 l 2,33,34
 215 563 215 563 215 542 c 0,35,36
 215 522 215 522 188 522 c 2,37,-1
 144 522 l 1,38,-1
 300 322 l 1,39,-1
 453 522 l 1,40,-1
 408 522 l 2,41,42
 381 522 381 522 381 542 c 0,43,44
 381 563 381 563 408 563 c 2,45,-1
 519 563 l 2,46,47
 546 563 546 563 546 542 c 0,48,49
 546 522 546 522 519 522 c 2,50,-1
 504 522 l 1,51,-1
 325 288 l 1,0,-1
EndSplineSet
EndChar

StartChar: Y
Encoding: 89 89 60
Width: 600
GlyphClass: 2
Flags: W
LayerCount: 2
Fore
SplineSet
322 254 m 1,0,-1
 322 41 l 1,1,-1
 427 41 l 2,2,3
 454 41 454 41 454 21 c 0,4,5
 454 0 454 0 427 0 c 2,6,-1
 176 0 l 2,7,8
 149 0 149 0 149 21 c 0,9,10
 149 41 149 41 176 41 c 2,11,-1
 282 41 l 1,12,-1
 282 254 l 1,13,-1
 102 522 l 1,14,-1
 68 522 l 2,15,16
 41 522 41 522 41 542 c 0,17,18
 41 563 41 563 68 563 c 2,19,-1
 189 563 l 2,20,21
 216 563 216 563 216 542 c 0,22,23
 216 522 216 522 189 522 c 2,24,-1
 150 522 l 1,25,-1
 303 295 l 1,26,-1
 451 522 l 1,27,-1
 411 522 l 2,28,29
 383 522 383 522 383 542 c 0,30,31
 383 563 383 563 411 563 c 2,32,-1
 532 563 l 2,33,34
 559 563 559 563 559 542 c 0,35,36
 559 522 559 522 532 522 c 2,37,-1
 498 522 l 1,38,-1
 322 254 l 1,0,-1
EndSplineSet
EndChar

StartChar: Z
Encoding: 90 90 61
Width: 600
GlyphClass: 2
Flags: W
LayerCount: 2
Fore
SplineSet
498 0 m 1,0,-1
 103 0 l 1,1,-1
 103 59 l 1,2,-1
 431 519 l 1,3,-1
 431 522 l 1,4,-1
 152 522 l 1,5,-1
 152 404 l 2,6,7
 152 376 152 376 132 376 c 0,8,9
 110 376 110 376 110 404 c 2,10,-1
 110 563 l 1,11,-1
 470 563 l 1,12,-1
 470 505 l 1,13,-1
 142 45 l 1,14,-1
 142 41 l 1,15,-1
 456 41 l 1,16,-1
 456 182 l 2,17,18
 456 209 456 209 476 209 c 0,19,20
 498 209 498 209 498 182 c 2,21,-1
 498 0 l 1,0,-1
EndSplineSet
EndChar

StartChar: bracketleft
Encoding: 91 91 62
Width: 600
GlyphClass: 2
Flags: W
LayerCount: 2
Fore
SplineSet
322 563 m 1,0,-1
 322 -83 l 1,1,-1
 417 -83 l 2,2,3
 445 -83 445 -83 445 -103 c 0,4,5
 445 -124 445 -124 417 -124 c 2,6,-1
 280 -124 l 1,7,-1
 280 604 l 1,8,-1
 417 604 l 2,9,10
 445 604 445 604 445 584 c 0,11,12
 445 563 445 563 417 563 c 2,13,-1
 322 563 l 1,0,-1
EndSplineSet
EndChar

StartChar: backslash
Encoding: 92 92 63
Width: 600
GlyphClass: 2
Flags: W
LayerCount: 2
Fore
SplineSet
155 650 m 2,0,-1
 482 -46 l 2,1,2
 487 -58 487 -58 487 -62 c 0,3,4
 487 -69 487 -69 481 -75 c 128,-1,5
 475 -81 475 -81 467 -81 c 0,6,7
 453 -81 453 -81 445 -63 c 2,8,-1
 118 633 l 2,9,10
 113 643 113 643 113 649 c 0,11,12
 113 656 113 656 119 661.5 c 128,-1,13
 125 667 125 667 133 667 c 0,14,15
 146 667 146 667 155 650 c 2,0,-1
EndSplineSet
EndChar

StartChar: bracketright
Encoding: 93 93 64
Width: 600
GlyphClass: 2
Flags: W
LayerCount: 2
Fore
SplineSet
279 -83 m 1,0,-1
 279 563 l 1,1,-1
 182 563 l 2,2,3
 155 563 155 563 155 583 c 0,4,5
 155 604 155 604 182 604 c 2,6,-1
 320 604 l 1,7,-1
 320 -124 l 1,8,-1
 182 -124 l 2,9,10
 155 -124 155 -124 155 -104 c 0,11,12
 155 -83 155 -83 182 -83 c 2,13,-1
 279 -83 l 1,0,-1
EndSplineSet
EndChar

StartChar: asciicircum
Encoding: 94 94 65
Width: 600
GlyphClass: 2
Flags: W
LayerCount: 2
Fore
SplineSet
300 615 m 1,0,-1
 478 392 l 2,1,2
 487 382 487 382 487 374 c 256,3,4
 487 366 487 366 481 360 c 128,-1,5
 475 354 475 354 467 354 c 0,6,7
 456 354 456 354 447 367 c 2,8,-1
 300 552 l 1,9,-1
 153 367 l 2,10,11
 144 354 144 354 133 354 c 0,12,13
 125 354 125 354 119 360 c 128,-1,14
 113 366 113 366 113 374 c 0,15,16
 113 381 113 381 123 392 c 2,17,-1
 300 615 l 1,0,-1
EndSplineSet
EndChar

StartChar: underscore
Encoding: 95 95 66
Width: 600
GlyphClass: 2
Flags: W
LayerCount: 2
Fore
SplineSet
612 -75 m 1,0,-1
 612 -125 l 1,1,-1
 -12 -125 l 1,2,-1
 -12 -75 l 1,3,-1
 612 -75 l 1,0,-1
EndSplineSet
EndChar

StartChar: quoteleft
Encoding: 8216 8216 67
Width: 600
GlyphClass: 2
Flags: W
LayerCount: 2
Fore
SplineSet
336 364 m 1,0,-1
 203 364 l 1,1,-1
 348 603 l 2,2,3
 361 625 361 625 379 625 c 0,4,5
 390 625 390 625 399 617.5 c 128,-1,6
 408 610 408 610 408 600 c 0,7,8
 408 598 408 598 407.5 594 c 128,-1,9
 407 590 407 590 407 589 c 2,10,-1
 336 364 l 1,0,-1
EndSplineSet
EndChar

StartChar: a
Encoding: 97 97 68
Width: 600
GlyphClass: 2
Flags: W
LayerCount: 2
Fore
SplineSet
419 0 m 1,0,-1
 419 67 l 1,1,2
 330 -16 330 -16 228 -16 c 0,3,4
 158 -16 158 -16 115 19.5 c 128,-1,5
 72 55 72 55 72 112 c 0,6,7
 72 177 72 177 130.5 217.5 c 128,-1,8
 189 258 189 258 283 258 c 0,9,10
 336 258 336 258 419 237 c 1,11,-1
 419 308 l 2,12,13
 419 345 419 345 385 367.5 c 128,-1,14
 351 390 351 390 296 390 c 0,15,16
 256 390 256 390 154 360 c 0,17,18
 146 358 146 358 144 358 c 0,19,20
 136 358 136 358 130.5 363.5 c 128,-1,21
 125 369 125 369 125 377 c 0,22,23
 125 391 125 391 142 399 c 0,24,25
 240 431 240 431 299 431 c 0,26,27
 369 431 369 431 414.5 396 c 128,-1,28
 460 361 460 361 460 308 c 2,29,-1
 460 41 l 1,30,-1
 515 41 l 2,31,32
 541 41 541 41 541 21 c 0,33,34
 541 0 541 0 515 0 c 2,35,-1
 419 0 l 1,0,-1
419 112 m 1,36,-1
 419 201 l 1,37,38
 361 217 361 217 291 217 c 0,39,40
 211 217 211 217 162 187.5 c 128,-1,41
 113 158 113 158 113 110 c 0,42,43
 113 72 113 72 144 48.5 c 128,-1,44
 175 25 175 25 227 25 c 0,45,46
 281 25 281 25 325 45 c 128,-1,47
 369 65 369 65 419 112 c 1,36,-1
EndSplineSet
EndChar

StartChar: b
Encoding: 98 98 69
Width: 600
GlyphClass: 2
Flags: W
LayerCount: 2
Fore
SplineSet
164 604 m 1,0,-1
 164 328 l 1,1,2
 237 431 237 431 343 431 c 0,3,4
 435 431 435 431 498 367 c 128,-1,5
 561 303 561 303 561 210 c 0,6,7
 561 116 561 116 497.5 50 c 128,-1,8
 434 -16 434 -16 343 -16 c 0,9,10
 234 -16 234 -16 164 89 c 1,11,-1
 164 0 l 1,12,-1
 69 0 l 2,13,14
 42 0 42 0 42 21 c 0,15,16
 42 41 42 41 69 41 c 2,17,-1
 123 41 l 1,18,-1
 123 563 l 1,19,-1
 69 563 l 2,20,21
 42 563 42 563 42 584 c 0,22,23
 42 604 42 604 69 604 c 2,24,-1
 164 604 l 1,0,-1
342 390 m 0,25,26
 268 390 268 390 216 337 c 128,-1,27
 164 284 164 284 164 208 c 128,-1,28
 164 132 164 132 216 78.5 c 128,-1,29
 268 25 268 25 342 25 c 0,30,31
 415 25 415 25 467 78 c 128,-1,32
 519 131 519 131 519 205 c 0,33,34
 519 283 519 283 468 336.5 c 128,-1,35
 417 390 417 390 342 390 c 0,25,26
EndSplineSet
EndChar

StartChar: c
Encoding: 99 99 70
Width: 600
GlyphClass: 2
Flags: W
LayerCount: 2
Fore
SplineSet
470 376 m 1,0,-1
 470 390 l 2,1,2
 470 417 470 417 492 417 c 0,3,4
 511 417 511 417 511 390 c 2,5,-1
 511 299 l 2,6,7
 511 271 511 271 492 271 c 128,-1,8
 473 271 473 271 470 295 c 0,9,10
 467 335 467 335 420.5 362.5 c 128,-1,11
 374 390 374 390 311 390 c 0,12,13
 228 390 228 390 176.5 339 c 128,-1,14
 125 288 125 288 125 205 c 0,15,16
 125 126 125 126 177 75.5 c 128,-1,17
 229 25 229 25 311 25 c 0,18,19
 422 25 422 25 498 97 c 0,20,21
 507 107 507 107 516 107 c 0,22,23
 523 107 523 107 529 101.5 c 128,-1,24
 535 96 535 96 535 89 c 0,25,26
 535 69 535 69 492 39 c 0,27,28
 412 -16 412 -16 309 -16 c 0,29,30
 211 -16 211 -16 147.5 46 c 128,-1,31
 84 108 84 108 84 204 c 0,32,33
 84 303 84 303 149 367 c 128,-1,34
 214 431 214 431 314 431 c 0,35,36
 404 431 404 431 470 376 c 1,0,-1
EndSplineSet
EndChar

StartChar: d
Encoding: 100 100 71
Width: 600
GlyphClass: 2
Flags: W
LayerCount: 2
Fore
SplineSet
485 604 m 1,0,-1
 485 41 l 1,1,-1
 540 41 l 2,2,3
 567 41 567 41 567 21 c 0,4,5
 567 0 567 0 540 0 c 2,6,-1
 445 0 l 1,7,-1
 445 89 l 1,8,9
 374 -16 374 -16 263 -16 c 0,10,11
 174 -16 174 -16 110.5 50 c 128,-1,12
 47 116 47 116 47 208 c 128,-1,13
 47 300 47 300 110.5 365.5 c 128,-1,14
 174 431 174 431 263 431 c 0,15,16
 374 431 374 431 445 326 c 1,17,-1
 445 563 l 1,18,-1
 391 563 l 2,19,20
 364 563 364 563 364 584 c 0,21,22
 364 604 364 604 391 604 c 2,23,-1
 485 604 l 1,0,-1
266 390 m 0,24,25
 192 390 192 390 140.5 337 c 128,-1,26
 89 284 89 284 89 208 c 0,27,28
 89 131 89 131 140.5 78 c 128,-1,29
 192 25 192 25 267 25 c 0,30,31
 341 25 341 25 393 78 c 128,-1,32
 445 131 445 131 445 206 c 0,33,34
 445 283 445 283 393.5 336.5 c 128,-1,35
 342 390 342 390 266 390 c 0,24,25
EndSplineSet
EndChar

StartChar: e
Encoding: 101 101 72
Width: 600
GlyphClass: 2
Flags: W
LayerCount: 2
Fore
SplineSet
519 199 m 1,0,-1
 104 199 l 1,1,2
 114 120 114 120 169.5 72.5 c 128,-1,3
 225 25 225 25 306 25 c 0,4,5
 353 25 353 25 402 40 c 128,-1,6
 451 55 451 55 481 79 c 0,7,8
 491 86 491 86 498 86 c 128,-1,9
 505 86 505 86 510.5 80 c 128,-1,10
 516 74 516 74 516 66 c 0,11,12
 516 40 516 40 444.5 12 c 128,-1,13
 373 -16 373 -16 305 -16 c 0,14,15
 204 -16 204 -16 133.5 52 c 128,-1,16
 63 120 63 120 63 217 c 0,17,18
 63 308 63 308 129 369.5 c 128,-1,19
 195 431 195 431 291 431 c 0,20,21
 363 431 363 431 419.5 395 c 128,-1,22
 476 359 476 359 502 297 c 0,23,24
 519 261 519 261 519 199 c 1,0,-1
104 240 m 1,25,-1
 478 240 l 1,26,27
 466 308 466 308 415 349 c 128,-1,28
 364 390 364 390 291 390 c 128,-1,29
 218 390 218 390 168 350 c 128,-1,30
 118 310 118 310 104 240 c 1,25,-1
EndSplineSet
EndChar

StartChar: f
Encoding: 102 102 73
Width: 600
GlyphClass: 2
Flags: W
LayerCount: 2
Fore
SplineSet
251 376 m 1,0,-1
 251 41 l 1,1,-1
 439 41 l 2,2,3
 466 41 466 41 466 21 c 0,4,5
 466 0 466 0 439 0 c 2,6,-1
 112 0 l 2,7,8
 85 0 85 0 85 21 c 0,9,10
 85 41 85 41 112 41 c 2,11,-1
 210 41 l 1,12,-1
 210 376 l 1,13,-1
 123 376 l 2,14,15
 95 376 95 376 95 397 c 0,16,17
 95 417 95 417 123 417 c 2,18,-1
 210 417 l 1,19,-1
 210 478 l 2,20,21
 210 533 210 533 253.5 568.5 c 128,-1,22
 297 604 297 604 364 604 c 0,23,24
 435 604 435 604 502 591 c 0,25,26
 521 588 521 588 521 572 c 0,27,28
 521 551 521 551 500 551 c 0,29,30
 498 551 498 551 450 557 c 0,31,32
 372 563 372 563 362 563 c 0,33,34
 313 563 313 563 282 539.5 c 128,-1,35
 251 516 251 516 251 478 c 2,36,-1
 251 417 l 1,37,-1
 450 417 l 2,38,39
 477 417 477 417 477 397 c 0,40,41
 477 376 477 376 450 376 c 2,42,-1
 251 376 l 1,0,-1
EndSplineSet
EndChar

StartChar: g
Encoding: 103 103 74
Width: 600
GlyphClass: 2
Flags: W
LayerCount: 2
Fore
SplineSet
441 334 m 1,0,-1
 441 417 l 1,1,-1
 535 417 l 2,2,3
 562 417 562 417 562 397 c 0,4,5
 562 376 562 376 535 376 c 2,6,-1
 481 376 l 1,7,-1
 481 -28 l 2,8,9
 481 -86 481 -86 438 -132 c 0,10,11
 387 -186 387 -186 316 -186 c 2,12,-1
 201 -186 l 2,13,14
 175 -186 175 -186 175 -165 c 128,-1,15
 175 -144 175 -144 201 -144 c 2,16,-1
 318 -144 l 2,17,18
 369 -144 369 -144 405 -108.5 c 128,-1,19
 441 -73 441 -73 441 -22 c 2,20,-1
 441 107 l 1,21,22
 372 10 372 10 269 10 c 0,23,24
 185 10 185 10 124 72.5 c 128,-1,25
 63 135 63 135 63 221 c 0,26,27
 63 308 63 308 124 369.5 c 128,-1,28
 185 431 185 431 269 431 c 0,29,30
 372 431 372 431 441 334 c 1,0,-1
272 390 m 128,-1,32
 201 390 201 390 152.5 341 c 128,-1,33
 104 292 104 292 104 221 c 128,-1,34
 104 150 104 150 153 100.5 c 128,-1,35
 202 51 202 51 272 51 c 128,-1,36
 342 51 342 51 391.5 100 c 128,-1,37
 441 149 441 149 441 218 c 0,38,39
 441 291 441 291 392 340.5 c 128,-1,31
 343 390 343 390 272 390 c 128,-1,32
EndSplineSet
EndChar

StartChar: h
Encoding: 104 104 75
Width: 600
GlyphClass: 2
Flags: W
LayerCount: 2
Fore
SplineSet
165 604 m 1,0,-1
 165 347 l 1,1,2
 203 393 203 393 238 412 c 128,-1,3
 273 431 273 431 319 431 c 0,4,5
 388 431 388 431 433 391.5 c 128,-1,6
 478 352 478 352 478 291 c 2,7,-1
 478 41 l 1,8,-1
 523 41 l 2,9,10
 551 41 551 41 551 21 c 0,11,12
 551 0 551 0 523 0 c 2,13,-1
 392 0 l 2,14,15
 365 0 365 0 365 21 c 0,16,17
 365 41 365 41 392 41 c 2,18,-1
 437 41 l 1,19,-1
 437 288 l 2,20,21
 437 332 437 332 399 364 c 0,22,23
 368 390 368 390 314 390 c 0,24,25
 272 390 272 390 245 373.5 c 128,-1,26
 218 357 218 357 176 309 c 2,27,-1
 165 296 l 1,28,-1
 165 41 l 1,29,-1
 210 41 l 2,30,31
 238 41 238 41 238 21 c 0,32,33
 238 0 238 0 210 0 c 2,34,-1
 78 0 l 2,35,36
 51 0 51 0 51 21 c 0,37,38
 51 41 51 41 78 41 c 2,39,-1
 124 41 l 1,40,-1
 124 563 l 1,41,-1
 70 563 l 2,42,43
 42 563 42 563 42 584 c 0,44,45
 42 604 42 604 70 604 c 2,46,-1
 165 604 l 1,0,-1
EndSplineSet
EndChar

StartChar: i
Encoding: 105 105 76
Width: 600
GlyphClass: 2
Flags: W
LayerCount: 2
Fore
SplineSet
320 417 m 1,0,-1
 320 41 l 1,1,-1
 481 41 l 2,2,3
 508 41 508 41 508 21 c 0,4,5
 508 0 508 0 481 0 c 2,6,-1
 119 0 l 2,7,8
 92 0 92 0 92 21 c 0,9,10
 92 41 92 41 119 41 c 2,11,-1
 279 41 l 1,12,-1
 279 376 l 1,13,-1
 161 376 l 2,14,15
 133 376 133 376 133 397 c 0,16,17
 133 417 133 417 161 417 c 2,18,-1
 320 417 l 1,0,-1
275 627 m 2,19,-1
 300 627 l 2,20,21
 320 627 320 627 320 601 c 2,22,-1
 320 544 l 2,23,24
 320 517 320 517 300 517 c 2,25,-1
 275 517 l 2,26,27
 256 517 256 517 256 544 c 2,28,-1
 256 601 l 2,29,30
 256 627 256 627 275 627 c 2,19,-1
EndSplineSet
EndChar

StartChar: j
Encoding: 106 106 77
Width: 600
GlyphClass: 2
Flags: W
LayerCount: 2
Fore
SplineSet
397 376 m 1,0,-1
 157 376 l 2,1,2
 129 376 129 376 129 397 c 0,3,4
 129 417 129 417 157 417 c 2,5,-1
 438 417 l 1,6,-1
 438 -28 l 2,7,8
 438 -98 438 -98 394.5 -142 c 128,-1,9
 351 -186 351 -186 283 -186 c 2,10,-1
 154 -186 l 2,11,12
 127 -186 127 -186 127 -165 c 128,-1,13
 127 -144 127 -144 154 -144 c 2,14,-1
 282 -144 l 2,15,16
 332 -144 332 -144 364.5 -111.5 c 128,-1,17
 397 -79 397 -79 397 -28 c 2,18,-1
 397 376 l 1,0,-1
394 627 m 2,19,-1
 417 627 l 2,20,21
 438 627 438 627 438 601 c 2,22,-1
 438 544 l 2,23,24
 438 517 438 517 417 517 c 2,25,-1
 394 517 l 2,26,27
 374 517 374 517 374 544 c 2,28,-1
 374 601 l 2,29,30
 374 627 374 627 394 627 c 2,19,-1
EndSplineSet
EndChar

StartChar: k
Encoding: 107 107 78
Width: 600
GlyphClass: 2
Flags: W
LayerCount: 2
Fore
SplineSet
175 180 m 1,0,-1
 175 0 l 1,1,-1
 80 0 l 2,2,3
 53 0 53 0 53 21 c 0,4,5
 53 41 53 41 80 41 c 2,6,-1
 133 41 l 1,7,-1
 133 563 l 1,8,-1
 80 563 l 2,9,10
 53 563 53 563 53 584 c 0,11,12
 53 604 53 604 80 604 c 2,13,-1
 175 604 l 1,14,-1
 175 229 l 1,15,-1
 348 376 l 1,16,-1
 326 376 l 2,17,18
 299 376 299 376 299 397 c 0,19,20
 299 417 299 417 326 417 c 2,21,-1
 456 417 l 2,22,23
 483 417 483 417 483 397 c 0,24,25
 483 376 483 376 456 376 c 2,26,-1
 409 376 l 1,27,-1
 252 245 l 1,28,-1
 459 41 l 1,29,-1
 504 41 l 2,30,31
 532 41 532 41 532 21 c 0,32,33
 532 0 532 0 504 0 c 2,34,-1
 373 0 l 2,35,36
 346 0 346 0 346 21 c 0,37,38
 346 41 346 41 373 41 c 2,39,-1
 400 41 l 1,40,-1
 221 218 l 1,41,-1
 175 180 l 1,0,-1
EndSplineSet
EndChar

StartChar: l
Encoding: 108 108 79
Width: 600
GlyphClass: 2
Flags: W
LayerCount: 2
Fore
SplineSet
320 604 m 1,0,-1
 320 41 l 1,1,-1
 481 41 l 2,2,3
 508 41 508 41 508 21 c 0,4,5
 508 0 508 0 481 0 c 2,6,-1
 119 0 l 2,7,8
 92 0 92 0 92 21 c 0,9,10
 92 41 92 41 119 41 c 2,11,-1
 279 41 l 1,12,-1
 279 563 l 1,13,-1
 161 563 l 2,14,15
 135 563 135 563 135 584 c 0,16,17
 135 604 135 604 161 604 c 2,18,-1
 320 604 l 1,0,-1
EndSplineSet
EndChar

StartChar: m
Encoding: 109 109 80
Width: 600
GlyphClass: 2
Flags: W
LayerCount: 2
Fore
SplineSet
112 417 m 1,0,-1
 112 365 l 1,1,2
 137 401 137 401 161 416 c 128,-1,3
 185 431 185 431 217 431 c 0,4,5
 281 431 281 431 314 360 c 1,6,7
 369 431 369 431 427 431 c 0,8,9
 470 431 470 431 501 399 c 128,-1,10
 532 367 532 367 532 323 c 2,11,-1
 532 41 l 1,12,-1
 566 41 l 2,13,14
 593 41 593 41 593 21 c 0,15,16
 593 0 593 0 566 0 c 2,17,-1
 492 0 l 1,18,-1
 492 319 l 2,19,20
 492 347 492 347 472 368.5 c 128,-1,21
 452 390 452 390 426 390 c 0,22,23
 375 390 375 390 322 308 c 1,24,-1
 322 41 l 1,25,-1
 356 41 l 2,26,27
 383 41 383 41 383 21 c 0,28,29
 383 0 383 0 356 0 c 2,30,-1
 282 0 l 1,31,-1
 282 316 l 2,32,33
 282 346 282 346 262.5 368 c 128,-1,34
 243 390 243 390 217 390 c 0,35,36
 167 390 167 390 112 308 c 1,37,-1
 112 41 l 1,38,-1
 146 41 l 2,39,40
 174 41 174 41 174 21 c 0,41,42
 174 0 174 0 146 0 c 2,43,-1
 36 0 l 2,44,45
 11 0 11 0 11 21 c 0,46,47
 11 41 11 41 38 41 c 2,48,-1
 72 41 l 1,49,-1
 72 376 l 1,50,-1
 38 376 l 2,51,52
 11 376 11 376 11 397 c 0,53,54
 11 417 11 417 38 417 c 2,55,-1
 112 417 l 1,0,-1
EndSplineSet
EndChar

StartChar: n
Encoding: 110 110 81
Width: 600
GlyphClass: 2
Flags: W
LayerCount: 2
Fore
SplineSet
167 417 m 1,0,-1
 167 348 l 1,1,2
 211 396 211 396 244 413.5 c 128,-1,3
 277 431 277 431 323 431 c 0,4,5
 389 431 389 431 435 392 c 128,-1,6
 481 353 481 353 481 295 c 2,7,-1
 481 41 l 1,8,-1
 515 41 l 2,9,10
 541 41 541 41 541 21 c 0,11,12
 541 0 541 0 515 0 c 2,13,-1
 405 0 l 2,14,15
 377 0 377 0 377 21 c 0,16,17
 377 41 377 41 405 41 c 2,18,-1
 439 41 l 1,19,-1
 439 288 l 2,20,21
 439 332 439 332 400 364 c 0,22,23
 369 390 369 390 319 390 c 0,24,25
 264 390 264 390 225 357 c 0,26,27
 206 344 206 344 167 294 c 1,28,-1
 167 41 l 1,29,-1
 212 41 l 2,30,31
 239 41 239 41 239 21 c 0,32,33
 239 0 239 0 212 0 c 2,34,-1
 81 0 l 2,35,36
 53 0 53 0 53 21 c 0,37,38
 53 41 53 41 81 41 c 2,39,-1
 126 41 l 1,40,-1
 126 376 l 1,41,-1
 92 376 l 2,42,43
 66 376 66 376 66 397 c 0,44,45
 66 417 66 417 92 417 c 2,46,-1
 167 417 l 1,0,-1
EndSplineSet
EndChar

StartChar: o
Encoding: 111 111 82
Width: 600
GlyphClass: 2
Flags: W
LayerCount: 2
Fore
SplineSet
300 431 m 0,0,1
 396 431 396 431 462 366 c 128,-1,2
 528 301 528 301 528 205 c 0,3,4
 528 113 528 113 461 48.5 c 128,-1,5
 394 -16 394 -16 300 -16 c 0,6,7
 205 -16 205 -16 138.5 49 c 128,-1,8
 72 114 72 114 72 208 c 0,9,10
 72 300 72 300 139 365.5 c 128,-1,11
 206 431 206 431 300 431 c 0,0,1
300 390 m 0,12,13
 223 390 223 390 168 337 c 128,-1,14
 113 284 113 284 113 208 c 128,-1,15
 113 132 113 132 168 78.5 c 128,-1,16
 223 25 223 25 300 25 c 128,-1,17
 377 25 377 25 432 78 c 128,-1,18
 487 131 487 131 487 205 c 0,19,20
 487 283 487 283 433 336.5 c 128,-1,21
 379 390 379 390 300 390 c 0,12,13
EndSplineSet
EndChar

StartChar: p
Encoding: 112 112 83
Width: 600
GlyphClass: 2
Flags: W
LayerCount: 2
Fore
SplineSet
144 417 m 1,0,-1
 144 335 l 1,1,2
 184 387 184 387 225.5 409 c 128,-1,3
 267 431 267 431 323 431 c 0,4,5
 416 431 416 431 478.5 370.5 c 128,-1,6
 541 310 541 310 541 221 c 128,-1,7
 541 132 541 132 478.5 71 c 128,-1,8
 416 10 416 10 323 10 c 0,9,10
 212 10 212 10 144 106 c 1,11,-1
 144 -144 l 1,12,-1
 242 -144 l 2,13,14
 269 -144 269 -144 269 -165 c 128,-1,15
 269 -186 269 -186 242 -186 c 2,16,-1
 49 -186 l 2,17,18
 22 -186 22 -186 22 -165 c 128,-1,19
 22 -144 22 -144 49 -144 c 2,20,-1
 103 -144 l 1,21,-1
 103 376 l 1,22,-1
 49 376 l 2,23,24
 22 376 22 376 22 397 c 0,25,26
 22 417 22 417 49 417 c 2,27,-1
 144 417 l 1,0,-1
322 390 m 0,28,29
 248 390 248 390 196 341 c 128,-1,30
 144 292 144 292 144 221 c 128,-1,31
 144 150 144 150 196 100.5 c 128,-1,32
 248 51 248 51 322 51 c 128,-1,33
 396 51 396 51 448 100 c 128,-1,34
 500 149 500 149 500 218 c 0,35,36
 500 292 500 292 449 341 c 128,-1,37
 398 390 398 390 322 390 c 0,28,29
EndSplineSet
EndChar

StartChar: q
Encoding: 113 113 84
Width: 600
GlyphClass: 2
Flags: W
LayerCount: 2
Fore
SplineSet
459 335 m 1,0,-1
 459 417 l 1,1,-1
 553 417 l 2,2,3
 581 417 581 417 581 397 c 0,4,5
 581 376 581 376 553 376 c 2,6,-1
 500 376 l 1,7,-1
 500 -144 l 1,8,-1
 553 -144 l 2,9,10
 581 -144 581 -144 581 -165 c 128,-1,11
 581 -186 581 -186 553 -186 c 2,12,-1
 360 -186 l 2,13,14
 334 -186 334 -186 334 -165 c 128,-1,15
 334 -144 334 -144 360 -144 c 2,16,-1
 459 -144 l 1,17,-1
 459 106 l 1,18,19
 392 10 392 10 279 10 c 0,20,21
 187 10 187 10 124 71 c 128,-1,22
 61 132 61 132 61 221 c 128,-1,23
 61 310 61 310 124.5 370.5 c 128,-1,24
 188 431 188 431 280 431 c 0,25,26
 388 431 388 431 459 335 c 1,0,-1
280 390 m 0,27,28
 205 390 205 390 153.5 341 c 128,-1,29
 102 292 102 292 102 221 c 128,-1,30
 102 150 102 150 153.5 100.5 c 128,-1,31
 205 51 205 51 280 51 c 0,32,33
 354 51 354 51 406.5 100 c 128,-1,34
 459 149 459 149 459 218 c 0,35,36
 459 291 459 291 407.5 340.5 c 128,-1,37
 356 390 356 390 280 390 c 0,27,28
EndSplineSet
EndChar

StartChar: r
Encoding: 114 114 85
Width: 600
GlyphClass: 2
Flags: W
LayerCount: 2
Fore
SplineSet
216 417 m 1,0,-1
 216 316 l 1,1,2
 340 427 340 427 419 427 c 0,3,4
 458 427 458 427 496 396 c 0,5,6
 519 377 519 377 519 365 c 0,7,8
 519 356 519 356 513 349.5 c 128,-1,9
 507 343 507 343 498 343 c 0,10,11
 491 343 491 343 482 352 c 0,12,13
 447 386 447 386 416 386 c 0,14,15
 381 386 381 386 338 360.5 c 128,-1,16
 295 335 295 335 216 262 c 1,17,-1
 216 41 l 1,18,-1
 394 41 l 2,19,20
 422 41 422 41 422 19 c 0,21,22
 422 0 422 0 394 0 c 2,23,-1
 79 0 l 2,24,25
 52 0 52 0 52 21 c 0,26,27
 52 41 52 41 79 41 c 2,28,-1
 175 41 l 1,29,-1
 175 376 l 1,30,-1
 100 376 l 2,31,32
 73 376 73 376 73 397 c 0,33,34
 73 417 73 417 100 417 c 2,35,-1
 216 417 l 1,0,-1
EndSplineSet
EndChar

StartChar: s
Encoding: 115 115 86
Width: 600
GlyphClass: 2
Flags: W
LayerCount: 2
Fore
SplineSet
432 385 m 1,0,-1
 432 390 l 2,1,2
 432 417 432 417 453 417 c 0,3,4
 473 417 473 417 473 390 c 2,5,-1
 473 320 l 2,6,7
 473 292 473 292 453 292 c 0,8,9
 435 292 435 292 432 316 c 0,10,11
 428 349 428 349 392 369.5 c 128,-1,12
 356 390 356 390 299 390 c 0,13,14
 244 390 244 390 206.5 369 c 128,-1,15
 169 348 169 348 169 316 c 0,16,17
 169 289 169 289 201 269 c 0,18,19
 218 259 218 259 235.5 255.5 c 128,-1,20
 253 252 253 252 317 245 c 0,21,22
 403 235 403 235 447 206 c 0,23,24
 498 170 498 170 498 117 c 0,25,26
 498 59 498 59 442 21.5 c 128,-1,27
 386 -16 386 -16 301 -16 c 0,28,29
 205 -16 205 -16 144 38 c 1,30,-1
 144 27 l 2,31,32
 144 0 144 0 124 0 c 0,33,34
 103 0 103 0 103 27 c 2,35,-1
 103 110 l 2,36,37
 103 137 103 137 124 137 c 0,38,39
 133 137 133 137 138.5 130.5 c 128,-1,40
 144 124 144 124 144 115 c 2,41,-1
 144 108 l 2,42,43
 144 74 144 74 189.5 49.5 c 128,-1,44
 235 25 235 25 299 25 c 0,45,46
 364 25 364 25 407.5 51 c 128,-1,47
 451 77 451 77 451 117 c 0,48,49
 451 155 451 155 408 180 c 0,50,51
 373 199 373 199 300 208 c 0,52,53
 206 217 206 217 170 239 c 0,54,55
 124 269 124 269 124 318 c 128,-1,56
 124 367 124 367 172.5 399 c 128,-1,57
 221 431 221 431 295 431 c 0,58,59
 380 431 380 431 432 385 c 1,0,-1
EndSplineSet
EndChar

StartChar: t
Encoding: 116 116 87
Width: 600
GlyphClass: 2
Flags: W
LayerCount: 2
Fore
SplineSet
197 417 m 1,0,-1
 416 417 l 2,1,2
 443 417 443 417 443 397 c 0,3,4
 443 376 443 376 416 376 c 2,5,-1
 197 376 l 1,6,-1
 197 109 l 2,7,8
 197 71 197 71 227 48 c 128,-1,9
 257 25 257 25 308 25 c 0,10,11
 350 25 350 25 397 36.5 c 128,-1,12
 444 48 444 48 475 66 c 0,13,14
 486 72 486 72 490 72 c 0,15,16
 497 72 497 72 502.5 65.5 c 128,-1,17
 508 59 508 59 508 51 c 0,18,19
 508 29 508 29 440.5 6.5 c 128,-1,20
 373 -16 373 -16 309 -16 c 0,21,22
 239 -16 239 -16 197 17.5 c 128,-1,23
 155 51 155 51 155 107 c 2,24,-1
 155 376 l 1,25,-1
 81 376 l 2,26,27
 53 376 53 376 53 397 c 0,28,29
 53 417 53 417 81 417 c 2,30,-1
 155 417 l 1,31,-1
 155 536 l 2,32,33
 155 563 155 563 176 563 c 128,-1,34
 197 563 197 563 197 536 c 2,35,-1
 197 417 l 1,0,-1
EndSplineSet
EndChar

StartChar: u
Encoding: 117 117 88
Width: 600
GlyphClass: 2
Flags: W
LayerCount: 2
Fore
SplineSet
439 0 m 1,0,-1
 439 66 l 1,1,2
 354 -16 354 -16 257 -16 c 0,3,4
 197 -16 197 -16 160.5 20 c 128,-1,5
 124 56 124 56 124 115 c 2,6,-1
 124 376 l 1,7,-1
 70 376 l 2,8,9
 42 376 42 376 42 397 c 0,10,11
 42 417 42 417 70 417 c 2,12,-1
 165 417 l 1,13,-1
 165 115 l 2,14,15
 165 78 165 78 191.5 51.5 c 128,-1,16
 218 25 218 25 256 25 c 0,17,18
 355 25 355 25 439 115 c 1,19,-1
 439 376 l 1,20,-1
 365 376 l 2,21,22
 337 376 337 376 337 397 c 0,23,24
 337 417 337 417 365 417 c 2,25,-1
 481 417 l 1,26,-1
 481 41 l 1,27,-1
 515 41 l 2,28,29
 541 41 541 41 541 21 c 0,30,31
 541 0 541 0 515 0 c 2,32,-1
 439 0 l 1,0,-1
EndSplineSet
EndChar

StartChar: v
Encoding: 118 118 89
Width: 600
GlyphClass: 2
Flags: W
LayerCount: 2
Fore
SplineSet
336 0 m 1,0,-1
 266 0 l 1,1,-1
 98 376 l 1,2,-1
 57 376 l 2,3,4
 30 376 30 376 30 397 c 0,5,6
 30 417 30 417 57 417 c 2,7,-1
 208 417 l 2,8,9
 235 417 235 417 235 397 c 0,10,11
 235 376 235 376 208 376 c 2,12,-1
 143 376 l 1,13,-1
 292 41 l 1,14,-1
 312 41 l 1,15,-1
 459 376 l 1,16,-1
 391 376 l 2,17,18
 364 376 364 376 364 397 c 0,19,20
 364 417 364 417 391 417 c 2,21,-1
 542 417 l 2,22,23
 570 417 570 417 570 397 c 0,24,25
 570 376 570 376 542 376 c 2,26,-1
 502 376 l 1,27,-1
 336 0 l 1,0,-1
EndSplineSet
EndChar

StartChar: w
Encoding: 119 119 90
Width: 600
GlyphClass: 2
Flags: W
LayerCount: 2
Fore
SplineSet
441 0 m 1,0,-1
 391 0 l 1,1,-1
 300 258 l 1,2,-1
 211 0 l 1,3,-1
 160 0 l 1,4,-1
 76 376 l 1,5,-1
 57 376 l 2,6,7
 30 376 30 376 30 397 c 0,8,9
 30 417 30 417 57 417 c 2,10,-1
 167 417 l 2,11,12
 195 417 195 417 195 397 c 0,13,14
 195 376 195 376 167 376 c 2,15,-1
 115 376 l 1,16,-1
 187 56 l 1,17,-1
 273 311 l 1,18,-1
 324 311 l 1,19,-1
 413 56 l 1,20,-1
 482 376 l 1,21,-1
 432 376 l 2,22,23
 405 376 405 376 405 397 c 0,24,25
 405 417 405 417 432 417 c 2,26,-1
 542 417 l 2,27,28
 570 417 570 417 570 397 c 0,29,30
 570 376 570 376 542 376 c 2,31,-1
 524 376 l 1,32,-1
 441 0 l 1,0,-1
EndSplineSet
EndChar

StartChar: x
Encoding: 120 120 91
Width: 600
GlyphClass: 2
Flags: W
LayerCount: 2
Fore
SplineSet
329 218 m 1,0,-1
 513 41 l 1,1,-1
 522 41 l 2,2,3
 549 41 549 41 549 21 c 0,4,5
 549 0 549 0 522 0 c 2,6,-1
 390 0 l 2,7,8
 363 0 363 0 363 21 c 0,9,10
 363 41 363 41 390 41 c 2,11,-1
 455 41 l 1,12,-1
 300 191 l 1,13,-1
 143 41 l 1,14,-1
 211 41 l 2,15,16
 238 41 238 41 238 21 c 0,17,18
 238 0 238 0 211 0 c 2,19,-1
 78 0 l 2,20,21
 51 0 51 0 51 21 c 0,22,23
 51 41 51 41 78 41 c 2,24,-1
 87 41 l 1,25,-1
 271 218 l 1,26,-1
 108 376 l 1,27,-1
 101 376 l 2,28,29
 74 376 74 376 74 397 c 0,30,31
 74 417 74 417 101 417 c 2,32,-1
 212 417 l 2,33,34
 239 417 239 417 239 397 c 0,35,36
 239 376 239 376 212 376 c 2,37,-1
 166 376 l 1,38,-1
 300 246 l 1,39,-1
 437 376 l 1,40,-1
 390 376 l 2,41,42
 362 376 362 376 362 397 c 0,43,44
 362 417 362 417 390 417 c 2,45,-1
 499 417 l 2,46,47
 525 417 525 417 525 397 c 0,48,49
 525 376 525 376 499 376 c 2,50,-1
 492 376 l 1,51,-1
 329 218 l 1,0,-1
EndSplineSet
EndChar

StartChar: y
Encoding: 121 121 92
Width: 600
GlyphClass: 2
Flags: W
LayerCount: 2
Fore
SplineSet
282 0 m 1,0,-1
 93 376 l 1,1,-1
 78 376 l 2,2,3
 51 376 51 376 51 397 c 0,4,5
 51 417 51 417 78 417 c 2,6,-1
 193 417 l 2,7,8
 220 417 220 417 220 397 c 0,9,10
 220 376 220 376 193 376 c 2,11,-1
 141 376 l 1,12,-1
 305 45 l 1,13,-1
 466 376 l 1,14,-1
 411 376 l 2,15,16
 385 376 385 376 385 397 c 0,17,18
 385 417 385 417 411 417 c 2,19,-1
 522 417 l 2,20,21
 549 417 549 417 549 397 c 0,22,23
 549 376 549 376 522 376 c 2,24,-1
 508 376 l 1,25,-1
 252 -144 l 1,26,-1
 317 -144 l 2,27,28
 343 -144 343 -144 343 -165 c 128,-1,29
 343 -186 343 -186 317 -186 c 2,30,-1
 84 -186 l 2,31,32
 57 -186 57 -186 57 -165 c 128,-1,33
 57 -144 57 -144 84 -144 c 2,34,-1
 211 -144 l 1,35,-1
 282 0 l 1,0,-1
EndSplineSet
EndChar

StartChar: z
Encoding: 122 122 93
Width: 600
GlyphClass: 2
Flags: W
LayerCount: 2
Fore
SplineSet
475 417 m 1,0,-1
 475 381 l 1,1,-1
 171 41 l 1,2,-1
 448 41 l 1,3,-1
 448 97 l 2,4,5
 448 124 448 124 468 124 c 0,6,7
 489 124 489 124 489 97 c 2,8,-1
 489 0 l 1,9,-1
 115 0 l 1,10,-1
 115 36 l 1,11,-1
 416 376 l 1,12,-1
 165 376 l 1,13,-1
 165 322 l 2,14,15
 165 294 165 294 144 294 c 0,16,17
 124 294 124 294 124 322 c 2,18,-1
 124 417 l 1,19,-1
 475 417 l 1,0,-1
EndSplineSet
EndChar

StartChar: braceleft
Encoding: 123 123 94
Width: 600
GlyphClass: 2
Flags: W
LayerCount: 2
Fore
SplineSet
322 499 m 2,0,-1
 322 326 l 2,1,2
 322 296 322 296 312.5 277.5 c 128,-1,3
 303 259 303 259 278 240 c 1,4,5
 303 222 303 222 312.5 203.5 c 128,-1,6
 322 185 322 185 322 154 c 2,7,-1
 322 -19 l 2,8,9
 322 -45 322 -45 337.5 -63 c 128,-1,10
 353 -81 353 -81 377 -83 c 0,11,12
 403 -86 403 -86 403 -104 c 0,13,14
 403 -124 403 -124 379 -124 c 0,15,16
 338 -124 338 -124 310 -93.5 c 128,-1,17
 282 -63 282 -63 282 -19 c 2,18,-1
 282 154 l 2,19,20
 282 182 282 182 265 199 c 128,-1,21
 248 216 248 216 221 218 c 0,22,23
 197 221 197 221 197 240 c 0,24,25
 197 260 197 260 221 261 c 0,26,27
 249 264 249 264 265.5 281.5 c 128,-1,28
 282 299 282 299 282 326 c 2,29,-1
 282 499 l 2,30,31
 282 543 282 543 310 573.5 c 128,-1,32
 338 604 338 604 379 604 c 0,33,34
 403 604 403 604 403 584 c 0,35,36
 403 574 403 574 397.5 569.5 c 128,-1,37
 392 565 392 565 377 563 c 0,38,39
 353 560 353 560 337.5 542 c 128,-1,40
 322 524 322 524 322 499 c 2,0,-1
EndSplineSet
EndChar

StartChar: bar
Encoding: 124 124 95
Width: 600
GlyphClass: 2
Flags: W
LayerCount: 2
Fore
SplineSet
320 576 m 2,0,-1
 320 -97 l 2,1,2
 320 -124 320 -124 300 -124 c 128,-1,3
 280 -124 280 -124 280 -97 c 2,4,-1
 280 576 l 2,5,6
 280 604 280 604 300 604 c 128,-1,7
 320 604 320 604 320 576 c 2,0,-1
EndSplineSet
EndChar

StartChar: braceright
Encoding: 125 125 96
Width: 600
GlyphClass: 2
Flags: W
LayerCount: 2
Fore
SplineSet
278 -19 m 2,0,-1
 278 154 l 2,1,2
 278 185 278 185 287.5 203.5 c 128,-1,3
 297 222 297 222 322 240 c 1,4,5
 297 259 297 259 287.5 277.5 c 128,-1,6
 278 296 278 296 278 326 c 2,7,-1
 278 499 l 2,8,9
 278 524 278 524 262.5 542 c 128,-1,10
 247 560 247 560 223 563 c 0,11,12
 208 565 208 565 202.5 569.5 c 128,-1,13
 197 574 197 574 197 584 c 0,14,15
 197 604 197 604 221 604 c 0,16,17
 262 604 262 604 290.5 573.5 c 128,-1,18
 319 543 319 543 319 499 c 2,19,-1
 319 326 l 2,20,21
 319 299 319 299 335.5 281.5 c 128,-1,22
 352 264 352 264 379 261 c 0,23,24
 403 259 403 259 403 240 c 128,-1,25
 403 221 403 221 379 218 c 0,26,27
 352 216 352 216 335.5 199 c 128,-1,28
 319 182 319 182 319 154 c 2,29,-1
 319 -19 l 2,30,31
 319 -63 319 -63 290.5 -93.5 c 128,-1,32
 262 -124 262 -124 221 -124 c 0,33,34
 197 -124 197 -124 197 -104 c 0,35,36
 197 -86 197 -86 223 -83 c 0,37,38
 247 -81 247 -81 262.5 -63 c 128,-1,39
 278 -45 278 -45 278 -19 c 2,0,-1
EndSplineSet
EndChar

StartChar: asciitilde
Encoding: 126 126 97
Width: 600
GlyphClass: 2
Flags: W
LayerCount: 2
Fore
SplineSet
488 330 m 0,0,1
 496 330 496 330 502 324.5 c 128,-1,2
 508 319 508 319 508 311 c 0,3,4
 508 300 508 300 483 271 c 0,5,6
 433 212 433 212 390 212 c 0,7,8
 366 212 366 212 343.5 224.5 c 128,-1,9
 321 237 321 237 273 277 c 0,10,11
 236 307 236 307 212 307 c 0,12,13
 192 307 192 307 178 295.5 c 128,-1,14
 164 284 164 284 131 242 c 0,15,16
 122 231 122 231 110 231 c 0,17,18
 103 231 103 231 97.5 236.5 c 128,-1,19
 92 242 92 242 92 249 c 0,20,21
 92 262 92 262 120 294 c 0,22,23
 167 348 167 348 212 348 c 0,24,25
 236 348 236 348 253.5 339 c 128,-1,26
 271 330 271 330 313 297 c 0,27,28
 347 269 347 269 360.5 260.5 c 128,-1,29
 374 252 374 252 386 252 c 0,30,31
 422 252 422 252 459 305 c 0,32,33
 472 322 472 322 476.5 326 c 128,-1,34
 481 330 481 330 488 330 c 0,0,1
EndSplineSet
EndChar

StartChar: exclamdown
Encoding: 161 161 98
Width: 600
GlyphClass: 2
Flags: W
LayerCount: 2
Fore
SplineSet
262 -161 m 2,0,-1
 280 165 l 2,1,2
 283 193 283 193 301 193 c 128,-1,3
 319 193 319 193 322 165 c 2,4,-1
 339 -161 l 2,5,6
 340 -167 340 -167 340 -177 c 0,7,8
 340 -194 340 -194 328.5 -205 c 128,-1,9
 317 -216 317 -216 300 -216 c 0,10,11
 284 -216 284 -216 272.5 -205 c 128,-1,12
 261 -194 261 -194 261 -177 c 0,13,14
 261 -169 261 -169 262 -161 c 2,0,-1
307 317 m 2,15,-1
 294 317 l 2,16,17
 272 317 272 317 256 331.5 c 128,-1,18
 240 346 240 346 240 367 c 0,19,20
 240 387 240 387 256 402 c 128,-1,21
 272 417 272 417 294 417 c 2,22,-1
 307 417 l 2,23,24
 329 417 329 417 344.5 402 c 128,-1,25
 360 387 360 387 360 367 c 0,26,27
 360 346 360 346 344.5 331.5 c 128,-1,28
 329 317 329 317 307 317 c 2,15,-1
EndSplineSet
EndChar

StartChar: cent
Encoding: 162 162 99
Width: 600
GlyphClass: 2
Flags: W
LayerCount: 2
Fore
SplineSet
280 496 m 1,0,-1
 280 603 l 2,1,2
 280 630 280 630 301 630 c 128,-1,3
 322 630 322 630 322 603 c 2,4,-1
 322 498 l 1,5,6
 383 498 383 498 425 461 c 1,7,8
 430 478 430 478 445 478 c 0,9,10
 466 478 466 478 466 453 c 2,11,-1
 466 392 l 2,12,13
 466 364 466 364 447 364 c 0,14,15
 429 364 429 364 426 387 c 0,16,17
 421 419 421 419 390 438.5 c 128,-1,18
 359 458 359 458 311 458 c 0,19,20
 243 458 243 458 198.5 416.5 c 128,-1,21
 154 375 154 375 154 311 c 0,22,23
 154 248 154 248 197 206.5 c 128,-1,24
 240 165 240 165 307 165 c 0,25,26
 381 165 381 165 432 208 c 0,27,28
 442 215 442 215 450 215 c 0,29,30
 468 215 468 215 468 195 c 0,31,32
 468 174 468 174 420 151.5 c 128,-1,33
 372 129 372 129 322 127 c 1,34,-1
 322 15 l 2,35,36
 322 -13 322 -13 301 -13 c 128,-1,37
 280 -13 280 -13 280 15 c 2,38,-1
 280 127 l 1,39,40
 207 135 207 135 160 187.5 c 128,-1,41
 113 240 113 240 113 311 c 0,42,43
 113 407 113 407 194 464 c 0,44,45
 228 485 228 485 280 496 c 1,0,-1
EndSplineSet
EndChar

StartChar: sterling
Encoding: 163 163 100
Width: 600
GlyphClass: 2
Flags: W
LayerCount: 2
Fore
SplineSet
182 41 m 1,0,-1
 434 41 l 2,1,2
 453 41 453 41 465.5 54.5 c 128,-1,3
 478 68 478 68 479 92 c 0,4,5
 482 115 482 115 500 115 c 0,6,7
 519 115 519 115 519 93 c 0,8,9
 519 55 519 55 494.5 27.5 c 128,-1,10
 470 0 470 0 436 0 c 2,11,-1
 113 0 l 2,12,13
 86 0 86 0 86 21 c 0,14,15
 86 40 86 40 108 40 c 0,16,17
 143 42 143 42 170.5 96 c 128,-1,18
 198 150 198 150 198 220 c 0,19,20
 198 256 198 256 194 273 c 1,21,-1
 110 273 l 2,22,23
 83 273 83 273 83 294 c 0,24,25
 83 314 83 314 110 314 c 2,26,-1
 184 314 l 1,27,28
 157 399 157 399 157 434 c 0,29,30
 157 495 157 495 198.5 536.5 c 128,-1,31
 240 578 240 578 299 578 c 0,32,33
 354 578 354 578 396 539 c 0,34,35
 427 511 427 511 427 495 c 0,36,37
 427 488 427 488 420.5 482 c 128,-1,38
 414 476 414 476 407 476 c 0,39,40
 398 476 398 476 390 488 c 0,41,42
 348 536 348 536 299 536 c 0,43,44
 258 536 258 536 228 506 c 128,-1,45
 198 476 198 476 198 434 c 0,46,47
 198 407 198 407 221 328 c 0,48,49
 222 326 222 326 225 314 c 1,50,-1
 343 314 l 2,51,52
 371 314 371 314 371 292 c 0,53,54
 371 273 371 273 343 273 c 2,55,-1
 234 273 l 1,56,57
 239 238 239 238 239 216 c 0,58,59
 239 114 239 114 182 41 c 1,0,-1
EndSplineSet
EndChar

StartChar: fraction
Encoding: 8260 8260 101
Width: 600
GlyphClass: 2
Flags: W
LayerCount: 2
Fore
SplineSet
534 430 m 2,0,-1
 87 146 l 1,1,-1
 83 143 l 2,2,3
 76 138 76 138 70 138 c 0,4,5
 62 138 62 138 56 144.5 c 128,-1,6
 50 151 50 151 50 159 c 0,7,8
 50 173 50 173 66 180 c 1,9,-1
 512 464 l 2,10,11
 521 470 521 470 529 470 c 0,12,13
 536 470 536 470 542.5 464 c 128,-1,14
 549 458 549 458 549 450 c 0,15,16
 549 439 549 439 534 430 c 2,0,-1
EndSplineSet
EndChar

StartChar: yen
Encoding: 165 165 102
Width: 600
GlyphClass: 2
Flags: W
LayerCount: 2
Fore
SplineSet
322 238 m 1,0,-1
 322 178 l 1,1,-1
 451 178 l 2,2,3
 473 178 473 178 473 160 c 0,4,5
 473 141 473 141 451 141 c 2,6,-1
 322 141 l 1,7,-1
 322 41 l 1,8,-1
 407 41 l 2,9,10
 434 41 434 41 434 21 c 0,11,12
 434 0 434 0 407 0 c 2,13,-1
 194 0 l 2,14,15
 167 0 167 0 167 21 c 0,16,17
 167 41 167 41 194 41 c 2,18,-1
 280 41 l 1,19,-1
 280 141 l 1,20,-1
 150 141 l 2,21,22
 127 141 127 141 127 160 c 0,23,24
 127 170 127 170 132 174 c 128,-1,25
 137 178 137 178 150 178 c 2,26,-1
 280 178 l 1,27,-1
 280 238 l 1,28,-1
 150 238 l 2,29,30
 127 238 127 238 127 257 c 0,31,32
 127 275 127 275 150 275 c 2,33,-1
 266 275 l 1,34,-1
 102 522 l 1,35,-1
 78 522 l 2,36,37
 51 522 51 522 51 542 c 0,38,39
 51 563 51 563 78 563 c 2,40,-1
 188 563 l 2,41,42
 215 563 215 563 215 542 c 0,43,44
 215 522 215 522 188 522 c 2,45,-1
 149 522 l 1,46,-1
 300 295 l 1,47,-1
 451 522 l 1,48,-1
 411 522 l 2,49,50
 385 522 385 522 385 542 c 0,51,52
 385 563 385 563 411 563 c 2,53,-1
 522 563 l 2,54,55
 549 563 549 563 549 542 c 0,56,57
 549 522 549 522 522 522 c 2,58,-1
 498 522 l 1,59,-1
 334 275 l 1,60,-1
 451 275 l 2,61,62
 473 275 473 275 473 257 c 0,63,64
 473 246 473 246 468.5 242 c 128,-1,65
 464 238 464 238 451 238 c 2,66,-1
 322 238 l 1,0,-1
EndSplineSet
EndChar

StartChar: florin
Encoding: 402 402 103
Width: 600
GlyphClass: 2
Flags: W
LayerCount: 2
Fore
SplineSet
322 375 m 1,0,-1
 417 375 l 2,1,2
 444 375 444 375 444 356 c 0,3,4
 444 334 444 334 417 334 c 2,5,-1
 322 334 l 1,6,-1
 322 58 l 2,7,8
 322 -4 322 -4 278.5 -48.5 c 128,-1,9
 235 -93 235 -93 174 -93 c 0,10,11
 129 -93 129 -93 100 -76 c 1,12,13
 87 -72 87 -72 87 -59 c 0,14,15
 87 -51 87 -51 92.5 -45 c 128,-1,16
 98 -39 98 -39 106 -39 c 0,17,18
 108 -39 108 -39 137 -47 c 0,19,20
 149 -52 149 -52 175 -52 c 0,21,22
 220 -52 220 -52 250 -19.5 c 128,-1,23
 280 13 280 13 280 64 c 2,24,-1
 280 334 l 1,25,-1
 184 334 l 2,26,27
 157 334 157 334 157 356 c 0,28,29
 157 375 157 375 184 375 c 2,30,-1
 280 375 l 1,31,-1
 280 462 l 2,32,33
 280 527 280 527 323.5 572.5 c 128,-1,34
 367 618 367 618 431 618 c 0,35,36
 474 618 474 618 504 604 c 0,37,38
 518 599 518 599 518 586 c 0,39,40
 518 578 518 578 512 572 c 128,-1,41
 506 566 506 566 499 566 c 0,42,43
 496 566 496 566 475 572 c 0,44,45
 462 576 462 576 434 576 c 0,46,47
 384 576 384 576 353 544.5 c 128,-1,48
 322 513 322 513 322 462 c 2,49,-1
 322 375 l 1,0,-1
EndSplineSet
EndChar

StartChar: section
Encoding: 167 167 104
Width: 600
GlyphClass: 2
Flags: W
LayerCount: 2
Fore
SplineSet
496 603 m 1,0,-1
 496 494 l 2,1,2
 496 470 496 470 476 470 c 0,3,4
 455 470 455 470 455 494 c 2,5,-1
 455 563 l 1,6,-1
 286 563 l 2,7,8
 250 563 250 563 223.5 540.5 c 128,-1,9
 197 518 197 518 197 487 c 0,10,11
 197 459 197 459 226.5 433 c 128,-1,12
 256 407 256 407 345 358 c 2,13,-1
 400 326 l 2,14,15
 471 288 471 288 502.5 254.5 c 128,-1,16
 534 221 534 221 534 184 c 0,17,18
 534 146 534 146 498 121 c 0,19,20
 477 108 477 108 432 101 c 1,21,22
 445 79 445 79 445 52 c 0,23,24
 445 3 445 3 407 -29.5 c 128,-1,25
 369 -62 369 -62 312 -62 c 2,26,-1
 106 -62 l 1,27,-1
 106 49 l 2,28,29
 106 73 106 73 126 73 c 128,-1,30
 146 73 146 73 146 49 c 2,31,-1
 146 -22 l 1,32,-1
 311 -22 l 2,33,34
 351 -22 351 -22 377.5 -0.5 c 128,-1,35
 404 21 404 21 404 53 c 0,36,37
 404 80 404 80 374.5 107 c 128,-1,38
 345 134 345 134 273 175 c 2,39,-1
 208 211 l 2,40,41
 66 291 66 291 66 358 c 0,42,43
 66 392 66 392 94 414.5 c 128,-1,44
 122 437 122 437 169 441 c 1,45,46
 157 461 157 461 157 487 c 0,47,48
 157 534 157 534 194.5 568.5 c 128,-1,49
 232 603 232 603 284 603 c 2,50,-1
 496 603 l 1,0,-1
383 290 m 2,51,-1
 320 326 l 2,52,53
 240 369 240 369 201 403 c 1,54,55
 195 402 195 402 183 402 c 0,56,57
 151 402 151 402 130 389 c 128,-1,58
 109 376 109 376 109 357 c 0,59,60
 109 313 109 313 234 243 c 2,61,-1
 296 208 l 2,62,63
 375 163 375 163 400 140 c 1,64,65
 404 141 404 141 417 142 c 0,66,67
 492 144 492 144 492 184 c 0,68,69
 492 206 492 206 462.5 235 c 128,-1,70
 433 264 433 264 383 290 c 2,51,-1
EndSplineSet
EndChar

StartChar: currency
Encoding: 164 164 105
Width: 600
GlyphClass: 2
Flags: W
LayerCount: 2
Fore
SplineSet
199 161 m 1,0,-1
 142 106 l 2,1,2
 131 95 131 95 124 95 c 0,3,4
 115 95 115 95 109 101 c 128,-1,5
 103 107 103 107 103 115 c 0,6,7
 103 124 103 124 114 135 c 2,8,-1
 170 191 l 1,9,10
 135 238 135 238 135 292 c 0,11,12
 135 352 135 352 169 394 c 1,13,-1
 114 450 l 2,14,15
 103 461 103 461 103 468 c 0,16,17
 103 489 103 489 123 489 c 0,18,19
 128 489 128 489 142 478 c 2,20,-1
 198 424 l 1,21,22
 241 458 241 458 300 458 c 0,23,24
 357 458 357 458 402 424 c 1,25,-1
 458 478 l 2,26,27
 468 489 468 489 477 489 c 128,-1,28
 486 489 486 489 492 483 c 128,-1,29
 498 477 498 477 498 468 c 0,30,31
 498 461 498 461 487 450 c 2,32,-1
 432 394 l 1,33,34
 466 347 466 347 466 292 c 0,35,36
 466 235 466 235 431 191 c 1,37,-1
 485 135 l 2,38,39
 496 126 496 126 496 115 c 0,40,41
 496 107 496 107 490 101 c 128,-1,42
 484 95 484 95 476 95 c 0,43,44
 466 95 466 95 458 106 c 1,45,-1
 400 161 l 1,46,47
 354 127 354 127 300 127 c 0,48,49
 248 127 248 127 199 161 c 1,0,-1
300 417 m 0,50,51
 249 417 249 417 212.5 380 c 128,-1,52
 176 343 176 343 176 292 c 128,-1,53
 176 241 176 241 212.5 204 c 128,-1,54
 249 167 249 167 300 167 c 0,55,56
 350 167 350 167 387 204 c 128,-1,57
 424 241 424 241 424 291 c 0,58,59
 424 343 424 343 388 380 c 128,-1,60
 352 417 352 417 300 417 c 0,50,51
EndSplineSet
EndChar

StartChar: quotesingle
Encoding: 39 39 106
Width: 600
GlyphClass: 2
Flags: W
LayerCount: 2
Fore
SplineSet
235 604 m 1,0,-1
 364 604 l 1,1,-1
 330 351 l 2,2,3
 324 316 324 316 300 316 c 0,4,5
 275 316 275 316 269 351 c 2,6,-1
 235 604 l 1,0,-1
EndSplineSet
EndChar

StartChar: quotedblleft
Encoding: 8220 8220 107
Width: 600
GlyphClass: 2
Flags: W
LayerCount: 2
Fore
SplineSet
217 368 m 1,0,-1
 92 368 l 1,1,-1
 229 607 l 2,2,3
 241 629 241 629 260 629 c 0,4,5
 271 629 271 629 280 621 c 128,-1,6
 289 613 289 613 289 603 c 0,7,8
 289 598 289 598 286 593 c 1,9,-1
 217 368 l 1,0,-1
434 368 m 1,10,-1
 309 368 l 1,11,-1
 447 607 l 2,12,13
 458 629 458 629 477 629 c 0,14,15
 489 629 489 629 497.5 621.5 c 128,-1,16
 506 614 506 614 506 603 c 0,17,18
 506 599 506 599 504 593 c 2,19,-1
 434 368 l 1,10,-1
EndSplineSet
EndChar

StartChar: guillemotleft
Encoding: 171 171 108
Width: 600
GlyphClass: 2
Flags: W
LayerCount: 2
Fore
SplineSet
63 251 m 1,0,-1
 271 448 l 2,1,2
 282 459 282 459 292 459 c 0,3,4
 300 459 300 459 306 453 c 128,-1,5
 312 447 312 447 312 439 c 128,-1,6
 312 431 312 431 301 419 c 2,7,-1
 158 251 l 1,8,-1
 301 83 l 2,9,10
 312 71 312 71 312 62 c 0,11,12
 312 54 312 54 306 48 c 128,-1,13
 300 42 300 42 292 42 c 128,-1,14
 284 42 284 42 271 53 c 2,15,-1
 63 251 l 1,0,-1
292 251 m 1,16,-1
 500 448 l 2,17,18
 511 459 511 459 521 459 c 0,19,20
 529 459 529 459 535 453 c 128,-1,21
 541 447 541 447 541 439 c 128,-1,22
 541 431 541 431 530 419 c 2,23,-1
 387 251 l 1,24,-1
 530 83 l 2,25,26
 541 71 541 71 541 62 c 0,27,28
 541 54 541 54 535 48 c 128,-1,29
 529 42 529 42 521 42 c 128,-1,30
 513 42 513 42 500 53 c 2,31,-1
 292 251 l 1,16,-1
EndSplineSet
EndChar

StartChar: guilsinglleft
Encoding: 8249 8249 109
Width: 600
GlyphClass: 2
Flags: W
LayerCount: 2
Fore
SplineSet
163 251 m 1,0,-1
 371 448 l 2,1,2
 382 459 382 459 392 459 c 0,3,4
 400 459 400 459 405.5 453 c 128,-1,5
 411 447 411 447 411 439 c 0,6,7
 411 430 411 430 400 419 c 2,8,-1
 258 251 l 1,9,-1
 400 83 l 2,10,11
 411 72 411 72 411 62 c 0,12,13
 411 54 411 54 405.5 48 c 128,-1,14
 400 42 400 42 392 42 c 128,-1,15
 384 42 384 42 371 53 c 2,16,-1
 163 251 l 1,0,-1
EndSplineSet
EndChar

StartChar: guilsinglright
Encoding: 8250 8250 110
Width: 600
GlyphClass: 2
Flags: W
LayerCount: 2
Fore
SplineSet
441 251 m 1,0,-1
 234 53 l 2,1,2
 221 42 221 42 214 42 c 0,3,4
 205 42 205 42 199 48 c 128,-1,5
 193 54 193 54 193 63 c 0,6,7
 193 71 193 71 204 83 c 2,8,-1
 346 251 l 1,9,-1
 204 420 l 2,10,11
 193 432 193 432 193 441 c 0,12,13
 193 449 193 449 199 454.5 c 128,-1,14
 205 460 205 460 214 460 c 0,15,16
 221 460 221 460 234 449 c 2,17,-1
 441 251 l 1,0,-1
EndSplineSet
EndChar

StartChar: fi
Encoding: 64257 64257 111
Width: 600
GlyphClass: 3
Flags: W
LayerCount: 2
Fore
SplineSet
483 417 m 1,0,-1
 483 41 l 1,1,-1
 563 41 l 2,2,3
 591 41 591 41 591 21 c 0,4,5
 591 0 591 0 563 0 c 2,6,-1
 370 0 l 2,7,8
 343 0 343 0 343 21 c 0,9,10
 343 41 343 41 370 41 c 2,11,-1
 442 41 l 1,12,-1
 442 376 l 1,13,-1
 161 376 l 1,14,-1
 161 41 l 1,15,-1
 233 41 l 2,16,17
 260 41 260 41 260 21 c 0,18,19
 260 0 260 0 233 0 c 2,20,-1
 36 0 l 2,21,22
 10 0 10 0 10 21 c 0,23,24
 10 41 10 41 36 41 c 2,25,-1
 120 41 l 1,26,-1
 120 376 l 1,27,-1
 42 376 l 2,28,29
 16 376 16 376 16 397 c 0,30,31
 16 417 16 417 42 417 c 2,32,-1
 120 417 l 1,33,-1
 120 476 l 2,34,35
 120 529 120 529 151 566.5 c 128,-1,36
 182 604 182 604 227 604 c 0,37,38
 264 604 264 604 302 589 c 0,39,40
 318 583 318 583 318 569 c 0,41,42
 318 561 318 561 312.5 555 c 128,-1,43
 307 549 307 549 299 549 c 0,44,45
 297 549 297 549 286 552 c 0,46,47
 242 563 242 563 228 563 c 0,48,49
 200 563 200 563 180.5 538 c 128,-1,50
 161 513 161 513 161 476 c 2,51,-1
 161 417 l 1,52,-1
 483 417 l 1,0,-1
439 627 m 2,53,-1
 464 627 l 2,54,55
 483 627 483 627 483 601 c 2,56,-1
 483 544 l 2,57,58
 483 517 483 517 464 517 c 2,59,-1
 439 517 l 2,60,61
 419 517 419 517 419 544 c 2,62,-1
 419 601 l 2,63,64
 419 627 419 627 439 627 c 2,53,-1
EndSplineSet
Ligature2: "'liga' Standard Ligatures in Latin lookup 0 subtable" f i
EndChar

StartChar: fl
Encoding: 64258 64258 112
Width: 600
GlyphClass: 3
Flags: W
LayerCount: 2
Fore
SplineSet
483 604 m 1,0,-1
 483 41 l 1,1,-1
 559 41 l 2,2,3
 587 41 587 41 587 21 c 0,4,5
 587 0 587 0 559 0 c 2,6,-1
 365 0 l 2,7,8
 339 0 339 0 339 21 c 0,9,10
 339 41 339 41 365 41 c 2,11,-1
 442 41 l 1,12,-1
 442 563 l 1,13,-1
 227 563 l 2,14,15
 200 563 200 563 180.5 537.5 c 128,-1,16
 161 512 161 512 161 476 c 2,17,-1
 161 417 l 1,18,-1
 233 417 l 2,19,20
 260 417 260 417 260 397 c 0,21,22
 260 376 260 376 233 376 c 2,23,-1
 161 376 l 1,24,-1
 161 41 l 1,25,-1
 233 41 l 2,26,27
 260 41 260 41 260 21 c 0,28,29
 260 0 260 0 233 0 c 2,30,-1
 36 0 l 2,31,32
 10 0 10 0 10 21 c 0,33,34
 10 41 10 41 36 41 c 2,35,-1
 120 41 l 1,36,-1
 120 376 l 1,37,-1
 42 376 l 2,38,39
 16 376 16 376 16 397 c 0,40,41
 16 417 16 417 42 417 c 2,42,-1
 120 417 l 1,43,-1
 120 476 l 2,44,45
 120 529 120 529 151 566.5 c 128,-1,46
 182 604 182 604 227 604 c 2,47,-1
 483 604 l 1,0,-1
EndSplineSet
Ligature2: "'liga' Standard Ligatures in Latin lookup 0 subtable" f l
EndChar

StartChar: endash
Encoding: 8211 8211 113
Width: 600
GlyphClass: 2
Flags: W
LayerCount: 2
Fore
SplineSet
501 261 m 2,0,-1
 100 261 l 2,1,2
 72 261 72 261 72 282 c 0,3,4
 72 302 72 302 100 302 c 2,5,-1
 501 302 l 2,6,7
 528 302 528 302 528 282 c 0,8,9
 528 261 528 261 501 261 c 2,0,-1
EndSplineSet
EndChar

StartChar: dagger
Encoding: 8224 8224 114
Width: 600
GlyphClass: 2
Flags: W
LayerCount: 2
Fore
SplineSet
320 376 m 1,0,-1
 320 -36 l 2,1,2
 320 -63 320 -63 300 -63 c 0,3,4
 279 -63 279 -63 279 -36 c 2,5,-1
 279 376 l 1,6,-1
 150 376 l 2,7,8
 124 376 124 376 124 396 c 0,9,10
 124 408 124 408 133 414 c 0,11,12
 135 415 135 415 144 417 c 1,13,-1
 150 417 l 1,14,-1
 279 417 l 1,15,-1
 279 576 l 2,16,17
 279 604 279 604 300 604 c 0,18,19
 320 604 320 604 320 576 c 2,20,-1
 320 417 l 1,21,-1
 448 417 l 2,22,23
 476 417 476 417 476 396 c 0,24,25
 476 376 476 376 448 376 c 2,26,-1
 320 376 l 1,0,-1
EndSplineSet
EndChar

StartChar: daggerdbl
Encoding: 8225 8225 115
Width: 600
GlyphClass: 2
Flags: W
LayerCount: 2
Fore
SplineSet
320 376 m 1,0,-1
 320 165 l 1,1,-1
 448 165 l 2,2,3
 476 165 476 165 476 144 c 0,4,5
 476 124 476 124 448 124 c 2,6,-1
 320 124 l 1,7,-1
 320 -35 l 2,8,9
 320 -62 320 -62 300 -62 c 0,10,11
 279 -62 279 -62 279 -35 c 2,12,-1
 279 124 l 1,13,-1
 150 124 l 2,14,15
 124 124 124 124 124 144 c 0,16,17
 124 165 124 165 150 165 c 2,18,-1
 279 165 l 1,19,-1
 279 376 l 1,20,-1
 150 376 l 2,21,22
 124 376 124 376 124 396 c 0,23,24
 124 408 124 408 133 414 c 0,25,26
 135 415 135 415 144 417 c 1,27,-1
 150 417 l 1,28,-1
 279 417 l 1,29,-1
 279 576 l 2,30,31
 279 604 279 604 300 604 c 0,32,33
 320 604 320 604 320 576 c 2,34,-1
 320 417 l 1,35,-1
 448 417 l 2,36,37
 476 417 476 417 476 396 c 0,38,39
 476 376 476 376 448 376 c 2,40,-1
 320 376 l 1,0,-1
EndSplineSet
EndChar

StartChar: periodcentered
Encoding: 183 183 116
Width: 600
GlyphClass: 2
Flags: W
LayerCount: 2
Fore
SplineSet
295 348 m 2,0,-1
 305 348 l 2,1,2
 334 348 334 348 354 329.5 c 128,-1,3
 374 311 374 311 374 283 c 128,-1,4
 374 255 374 255 354 236 c 128,-1,5
 334 217 334 217 305 217 c 2,6,-1
 295 217 l 2,7,8
 266 217 266 217 246 236 c 128,-1,9
 226 255 226 255 226 283 c 128,-1,10
 226 311 226 311 246 329.5 c 128,-1,11
 266 348 266 348 295 348 c 2,0,-1
EndSplineSet
EndChar

StartChar: paragraph
Encoding: 182 182 117
Width: 600
GlyphClass: 2
Flags: W
LayerCount: 2
Fore
SplineSet
437 563 m 1,0,-1
 437 -21 l 1,1,-1
 499 -21 l 2,2,3
 525 -21 525 -21 525 -41 c 0,4,5
 525 -62 525 -62 499 -62 c 2,6,-1
 400 -62 l 2,7,8
 390 -62 390 -62 383 -56 c 128,-1,9
 376 -50 376 -50 376 -41 c 0,10,11
 376 -22 376 -22 397 -21 c 1,12,-1
 397 563 l 1,13,-1
 316 563 l 1,14,-1
 316 -21 l 1,15,16
 336 -23 336 -23 336 -41 c 0,17,18
 336 -62 336 -62 311 -62 c 2,19,-1
 177 -62 l 2,20,21
 165 -62 165 -62 157.5 -56 c 128,-1,22
 150 -50 150 -50 150 -41 c 0,23,24
 150 -21 150 -21 177 -21 c 2,25,-1
 275 -21 l 1,26,-1
 275 260 l 1,27,28
 209 264 209 264 163 284 c 0,29,30
 122 302 122 302 97.5 339 c 128,-1,31
 73 376 73 376 73 414 c 2,32,-1
 73 443 l 2,33,34
 73 510 73 510 132 557 c 128,-1,35
 191 604 191 604 288 604 c 2,36,-1
 498 604 l 2,37,38
 523 604 523 604 523 584 c 0,39,40
 523 563 523 563 498 563 c 2,41,-1
 437 563 l 1,0,-1
275 300 m 1,42,-1
 275 307 l 1,43,-1
 275 563 l 1,44,45
 215 570 215 570 163.5 533 c 128,-1,46
 112 496 112 496 112 441 c 2,47,-1
 112 415 l 2,48,49
 112 365 112 365 164.5 330 c 128,-1,50
 217 295 217 295 275 300 c 1,42,-1
EndSplineSet
EndChar

StartChar: bullet
Encoding: 8226 8226 118
Width: 600
GlyphClass: 2
Flags: W
LayerCount: 2
Fore
SplineSet
347 402 m 0,0,1
 392 402 392 402 425 368.5 c 128,-1,2
 458 335 458 335 458 289 c 0,3,4
 458 242 458 242 425 209 c 128,-1,5
 392 176 392 176 345 176 c 128,-1,6
 298 176 298 176 265 209.5 c 128,-1,7
 232 243 232 243 232 290 c 128,-1,8
 232 337 232 337 265.5 369.5 c 128,-1,9
 299 402 299 402 347 402 c 0,0,1
EndSplineSet
EndChar

StartChar: quotesinglbase
Encoding: 8218 8218 119
Width: 600
GlyphClass: 2
Flags: W
LayerCount: 2
Fore
SplineSet
266 144 m 1,0,-1
 399 144 l 1,1,-1
 254 -120 l 2,2,3
 242 -144 242 -144 223 -144 c 0,4,5
 212 -144 212 -144 203 -136 c 128,-1,6
 194 -128 194 -128 194 -117 c 0,7,8
 194 -111 194 -111 197 -106 c 1,9,-1
 266 144 l 1,0,-1
EndSplineSet
EndChar

StartChar: quotedblbase
Encoding: 8222 8222 120
Width: 600
GlyphClass: 2
Flags: W
LayerCount: 2
Fore
SplineSet
165 144 m 1,0,-1
 290 144 l 1,1,-1
 153 -93 l 2,2,3
 140 -117 140 -117 123 -117 c 0,4,5
 110 -117 110 -117 101.5 -109 c 128,-1,6
 93 -101 93 -101 93 -90 c 0,7,8
 93 -83 93 -83 95 -80 c 1,9,-1
 165 144 l 1,0,-1
382 144 m 1,10,-1
 507 144 l 1,11,-1
 370 -93 l 2,12,13
 356 -117 356 -117 339 -117 c 0,14,15
 327 -117 327 -117 318 -109 c 128,-1,16
 309 -101 309 -101 309 -90 c 0,17,18
 309 -89 309 -89 312 -80 c 2,19,-1
 382 144 l 1,10,-1
EndSplineSet
EndChar

StartChar: quotedblright
Encoding: 8221 8221 121
Width: 600
GlyphClass: 2
Flags: W
LayerCount: 2
Fore
SplineSet
178 604 m 1,0,-1
 303 604 l 1,1,-1
 167 365 l 2,2,3
 154 343 154 343 136 343 c 0,4,5
 124 343 124 343 115.5 351 c 128,-1,6
 107 359 107 359 107 369 c 0,7,8
 107 373 107 373 109 379 c 2,9,-1
 178 604 l 1,0,-1
396 604 m 1,10,-1
 521 604 l 1,11,-1
 383 365 l 2,12,13
 371 343 371 343 353 343 c 0,14,15
 341 343 341 343 332.5 351 c 128,-1,16
 324 359 324 359 324 369 c 0,17,18
 324 373 324 373 326 379 c 2,19,-1
 396 604 l 1,10,-1
EndSplineSet
EndChar

StartChar: guillemotright
Encoding: 187 187 122
Width: 600
GlyphClass: 2
Flags: W
LayerCount: 2
Fore
SplineSet
311 251 m 1,0,-1
 104 53 l 2,1,2
 91 42 91 42 83 42 c 128,-1,3
 75 42 75 42 69 48.5 c 128,-1,4
 63 55 63 55 63 63 c 128,-1,5
 63 71 63 71 74 83 c 2,6,-1
 216 251 l 1,7,-1
 74 420 l 2,8,9
 63 432 63 432 63 441 c 0,10,11
 63 449 63 449 69 454.5 c 128,-1,12
 75 460 75 460 83 460 c 128,-1,13
 91 460 91 460 104 449 c 2,14,-1
 311 251 l 1,0,-1
541 251 m 1,15,-1
 334 53 l 2,16,17
 321 42 321 42 313 42 c 128,-1,18
 305 42 305 42 298.5 48.5 c 128,-1,19
 292 55 292 55 292 63 c 0,20,21
 292 70 292 70 303 83 c 2,22,-1
 447 251 l 1,23,-1
 303 420 l 2,24,25
 292 433 292 433 292 441 c 0,26,27
 292 448 292 448 298.5 454 c 128,-1,28
 305 460 305 460 313 460 c 128,-1,29
 321 460 321 460 334 449 c 2,30,-1
 541 251 l 1,15,-1
EndSplineSet
EndChar

StartChar: ellipsis
Encoding: 8230 8230 123
Width: 600
GlyphClass: 2
Flags: W
LayerCount: 2
Fore
SplineSet
100 84 m 128,-1,1
 120 84 120 84 135 69.5 c 128,-1,2
 150 55 150 55 150 34 c 0,3,4
 150 14 150 14 135.5 -0.5 c 128,-1,5
 121 -15 121 -15 101 -15 c 0,6,7
 80 -15 80 -15 65.5 -0.5 c 128,-1,8
 51 14 51 14 51 34 c 0,9,10
 51 55 51 55 65.5 69.5 c 128,-1,0
 80 84 80 84 100 84 c 128,-1,1
299 84 m 0,11,12
 320 84 320 84 335 69.5 c 128,-1,13
 350 55 350 55 350 34 c 0,14,15
 350 14 350 14 334.5 -0.5 c 128,-1,16
 319 -15 319 -15 299 -15 c 128,-1,17
 279 -15 279 -15 264.5 -0.5 c 128,-1,18
 250 14 250 14 250 34 c 128,-1,19
 250 54 250 54 264.5 69 c 128,-1,20
 279 84 279 84 299 84 c 0,11,12
500 84 m 128,-1,22
 520 84 520 84 534.5 69.5 c 128,-1,23
 549 55 549 55 549 34 c 0,24,25
 549 14 549 14 534 -0.5 c 128,-1,26
 519 -15 519 -15 500 -15 c 0,27,28
 479 -15 479 -15 464.5 -0.5 c 128,-1,29
 450 14 450 14 450 35 c 0,30,31
 450 55 450 55 465 69.5 c 128,-1,21
 480 84 480 84 500 84 c 128,-1,22
EndSplineSet
EndChar

StartChar: perthousand
Encoding: 8240 8240 124
Width: 600
GlyphClass: 2
Flags: W
LayerCount: 2
Fore
SplineSet
144 614 m 0,0,1
 190 614 190 614 222 581 c 128,-1,2
 254 548 254 548 254 501 c 0,3,4
 254 456 254 456 221.5 423.5 c 128,-1,5
 189 391 189 391 144 391 c 128,-1,6
 99 391 99 391 66.5 423.5 c 128,-1,7
 34 456 34 456 34 502 c 128,-1,8
 34 548 34 548 66.5 581 c 128,-1,9
 99 614 99 614 144 614 c 0,0,1
144 580 m 0,10,11
 113 580 113 580 90.5 557 c 128,-1,12
 68 534 68 534 68 502 c 128,-1,13
 68 470 68 470 90.5 447.5 c 128,-1,14
 113 425 113 425 144 425 c 128,-1,15
 175 425 175 425 197.5 447.5 c 128,-1,16
 220 470 220 470 220 502 c 0,17,18
 220 535 220 535 198 557.5 c 128,-1,19
 176 580 176 580 144 580 c 0,10,11
496 388 m 2,20,-1
 123 266 l 2,21,22
 118 265 118 265 110 265 c 0,23,24
 105 265 105 265 100.5 269.5 c 128,-1,25
 96 274 96 274 96 280 c 0,26,27
 96 293 96 293 112 297 c 2,28,-1
 485 419 l 2,29,30
 495 421 495 421 498 421 c 0,31,32
 503 421 503 421 507.5 416 c 128,-1,33
 512 411 512 411 512 405 c 0,34,35
 512 392 512 392 496 388 c 2,20,-1
182 214 m 0,36,37
 228 214 228 214 260 181 c 128,-1,38
 292 148 292 148 292 101 c 0,39,40
 292 56 292 56 259.5 24 c 128,-1,41
 227 -8 227 -8 182 -8 c 128,-1,42
 137 -8 137 -8 104.5 24.5 c 128,-1,43
 72 57 72 57 72 103 c 0,44,45
 72 148 72 148 105 181 c 128,-1,46
 138 214 138 214 182 214 c 0,36,37
182 180 m 0,47,48
 151 180 151 180 128.5 157 c 128,-1,49
 106 134 106 134 106 103 c 0,50,51
 106 70 106 70 128 47.5 c 128,-1,52
 150 25 150 25 182 25 c 128,-1,53
 214 25 214 25 236 47.5 c 128,-1,54
 258 70 258 70 258 102 c 0,55,56
 258 135 258 135 236 157.5 c 128,-1,57
 214 180 214 180 182 180 c 0,47,48
454 214 m 0,58,59
 500 214 500 214 532 181 c 128,-1,60
 564 148 564 148 564 101 c 0,61,62
 564 56 564 56 532 24 c 128,-1,63
 500 -8 500 -8 454 -8 c 0,64,65
 409 -8 409 -8 376 24.5 c 128,-1,66
 343 57 343 57 343 103 c 128,-1,67
 343 149 343 149 376 181.5 c 128,-1,68
 409 214 409 214 454 214 c 0,58,59
454 180 m 0,69,70
 422 180 422 180 399.5 157 c 128,-1,71
 377 134 377 134 377 103 c 0,72,73
 377 70 377 70 399.5 47.5 c 128,-1,74
 422 25 422 25 454 25 c 128,-1,75
 486 25 486 25 508 47.5 c 128,-1,76
 530 70 530 70 530 102 c 0,77,78
 530 135 530 135 508.5 157.5 c 128,-1,79
 487 180 487 180 454 180 c 0,69,70
EndSplineSet
EndChar

StartChar: questiondown
Encoding: 191 191 125
Width: 600
GlyphClass: 2
Flags: W
LayerCount: 2
Fore
SplineSet
278 155 m 1,0,-1
 278 197 l 2,1,2
 278 223 278 223 299 223 c 0,3,4
 319 223 319 223 319 197 c 2,5,-1
 319 127 l 1,6,7
 232 92 232 92 193 57 c 128,-1,8
 154 22 154 22 154 -21 c 0,9,10
 154 -70 154 -70 194 -101.5 c 128,-1,11
 234 -133 234 -133 296 -133 c 0,12,13
 359 -133 359 -133 425 -100 c 1,14,-1
 425 -59 l 2,15,16
 425 -32 425 -32 445 -32 c 0,17,18
 466 -32 466 -32 466 -59 c 2,19,-1
 466 -126 l 1,20,21
 464 -127 464 -127 453.5 -131.5 c 128,-1,22
 443 -136 443 -136 437 -140 c 1,23,24
 355 -175 355 -175 291 -175 c 0,25,26
 211 -175 211 -175 162 -132.5 c 128,-1,27
 113 -90 113 -90 113 -21 c 0,28,29
 113 35 113 35 148.5 73 c 128,-1,30
 184 111 184 111 278 155 c 1,0,-1
313 317 m 2,31,-1
 286 317 l 2,32,33
 261 317 261 317 245 331.5 c 128,-1,34
 229 346 229 346 229 367 c 0,35,36
 229 389 229 389 245 403 c 128,-1,37
 261 417 261 417 286 417 c 2,38,-1
 313 417 l 2,39,40
 339 417 339 417 354.5 403 c 128,-1,41
 370 389 370 389 370 367 c 128,-1,42
 370 345 370 345 354.5 331 c 128,-1,43
 339 317 339 317 313 317 c 2,31,-1
EndSplineSet
EndChar

StartChar: grave
Encoding: 96 96 126
Width: 600
GlyphClass: 2
Flags: W
LayerCount: 2
Fore
SplineSet
194 657 m 2,0,-1
 308 557 l 1,1,-1
 316 549 l 2,2,3
 320 544 320 544 320 538 c 0,4,5
 320 517 320 517 299 517 c 0,6,7
 290 517 290 517 282 525 c 2,8,-1
 167 626 l 2,9,10
 155 635 155 635 155 646 c 0,11,12
 155 654 155 654 161 660 c 128,-1,13
 167 666 167 666 175 666 c 0,14,15
 182 666 182 666 194 657 c 2,0,-1
EndSplineSet
EndChar

StartChar: acute
Encoding: 180 180 127
Width: 600
GlyphClass: 2
Flags: W
LayerCount: 2
Fore
SplineSet
433 625 m 2,0,-1
 319 525 l 2,1,2
 306 516 306 516 300 516 c 0,3,4
 292 516 292 516 286 522 c 128,-1,5
 280 528 280 528 280 536 c 0,6,7
 280 545 280 545 292 556 c 2,8,-1
 407 657 l 2,9,10
 418 665 418 665 425 665 c 0,11,12
 445 665 445 665 445 644 c 0,13,14
 445 636 445 636 433 625 c 2,0,-1
EndSplineSet
EndChar

StartChar: circumflex
Encoding: 710 710 128
Width: 600
GlyphClass: 2
Flags: W
LayerCount: 2
Fore
SplineSet
300 666 m 1,0,-1
 432 558 l 2,1,2
 445 547 445 547 445 536 c 0,3,4
 445 528 445 528 439 522.5 c 128,-1,5
 433 517 433 517 425 517 c 0,6,7
 416 517 416 517 407 525 c 2,8,-1
 300 613 l 1,9,-1
 193 525 l 2,10,11
 184 517 184 517 175 517 c 0,12,13
 167 517 167 517 161 522.5 c 128,-1,14
 155 528 155 528 155 536 c 0,15,16
 155 548 155 548 167 557 c 2,17,-1
 300 666 l 1,0,-1
EndSplineSet
EndChar

StartChar: tilde
Encoding: 732 732 129
Width: 600
GlyphClass: 2
Flags: W
LayerCount: 2
Fore
SplineSet
434 626 m 0,0,1
 442 626 442 626 448.5 620 c 128,-1,2
 455 614 455 614 455 606 c 0,3,4
 455 596 455 596 433 575 c 0,5,6
 397 539 397 539 364 539 c 0,7,8
 335 539 335 539 283 570 c 0,9,10
 257 587 257 587 240 587 c 0,11,12
 225 587 225 587 214.5 580 c 128,-1,13
 204 573 204 573 182 550 c 0,14,15
 176 542 176 542 165 542 c 0,16,17
 157 542 157 542 150.5 547.5 c 128,-1,18
 144 553 144 553 144 561 c 0,19,20
 144 572 144 572 164 591 c 0,21,22
 203 627 203 627 239 627 c 0,23,24
 266 627 266 627 303 606 c 0,25,26
 348 580 348 580 362 580 c 0,27,28
 375 580 375 580 386 587.5 c 128,-1,29
 397 595 397 595 419 618 c 0,30,31
 427 626 427 626 434 626 c 0,0,1
EndSplineSet
EndChar

StartChar: macron
Encoding: 175 175 130
Width: 600
GlyphClass: 2
Flags: W
LayerCount: 2
Fore
SplineSet
417 555 m 2,0,-1
 182 555 l 2,1,2
 155 555 155 555 155 575 c 128,-1,3
 155 595 155 595 182 595 c 2,4,-1
 417 595 l 2,5,6
 445 595 445 595 445 575 c 128,-1,7
 445 555 445 555 417 555 c 2,0,-1
EndSplineSet
EndChar

StartChar: breve
Encoding: 728 728 131
Width: 600
GlyphClass: 2
Flags: W
LayerCount: 2
Fore
SplineSet
176 647 m 0,0,1
 193 647 193 647 197 625 c 1,2,3
 198 597 198 597 228 577.5 c 128,-1,4
 258 558 258 558 300 558 c 128,-1,5
 342 558 342 558 371.5 577 c 128,-1,6
 401 596 401 596 404 625 c 0,7,8
 408 647 408 647 425 647 c 0,9,10
 433 647 433 647 439 640.5 c 128,-1,11
 445 634 445 634 445 624 c 0,12,13
 445 579 445 579 403 548 c 128,-1,14
 361 517 361 517 300 517 c 128,-1,15
 239 517 239 517 197 548 c 128,-1,16
 155 579 155 579 155 624 c 0,17,18
 155 647 155 647 176 647 c 0,0,1
EndSplineSet
EndChar

StartChar: dotaccent
Encoding: 729 729 132
Width: 600
GlyphClass: 2
Flags: W
LayerCount: 2
Fore
SplineSet
288 627 m 2,0,-1
 312 627 l 2,1,2
 333 627 333 627 333 601 c 2,3,-1
 333 544 l 2,4,5
 333 517 333 517 312 517 c 2,6,-1
 288 517 l 2,7,8
 268 517 268 517 268 544 c 2,9,-1
 268 601 l 2,10,11
 268 627 268 627 288 627 c 2,0,-1
EndSplineSet
EndChar

StartChar: dieresis
Encoding: 168 168 133
Width: 600
GlyphClass: 2
Flags: W
LayerCount: 2
Fore
SplineSet
200 627 m 2,0,-1
 225 627 l 2,1,2
 244 627 244 627 244 601 c 2,3,-1
 244 544 l 2,4,5
 244 517 244 517 225 517 c 2,6,-1
 200 517 l 2,7,8
 180 517 180 517 180 544 c 2,9,-1
 180 601 l 2,10,11
 180 627 180 627 200 627 c 2,0,-1
376 627 m 2,12,-1
 400 627 l 2,13,14
 420 627 420 627 420 601 c 2,15,-1
 420 544 l 2,16,17
 420 517 420 517 400 517 c 2,18,-1
 376 517 l 2,19,20
 356 517 356 517 356 544 c 2,21,-1
 356 601 l 2,22,23
 356 627 356 627 376 627 c 2,12,-1
EndSplineSet
EndChar

StartChar: ring
Encoding: 730 730 134
Width: 600
GlyphClass: 2
Flags: W
LayerCount: 2
Fore
SplineSet
300 665 m 0,0,1
 339 665 339 665 366 638.5 c 128,-1,2
 393 612 393 612 393 573 c 0,3,4
 393 537 393 537 365.5 510.5 c 128,-1,5
 338 484 338 484 300 484 c 128,-1,6
 262 484 262 484 235 510.5 c 128,-1,7
 208 537 208 537 208 575 c 0,8,9
 208 612 208 612 235 638.5 c 128,-1,10
 262 665 262 665 300 665 c 0,0,1
300 632 m 128,-1,12
 275 632 275 632 257.5 615 c 128,-1,13
 240 598 240 598 240 575 c 0,14,15
 240 550 240 550 257.5 533.5 c 128,-1,16
 275 517 275 517 300 517 c 128,-1,17
 325 517 325 517 342.5 533.5 c 128,-1,18
 360 550 360 550 360 574 c 128,-1,19
 360 598 360 598 342.5 615 c 128,-1,11
 325 632 325 632 300 632 c 128,-1,12
EndSplineSet
EndChar

StartChar: cedilla
Encoding: 184 184 135
Width: 600
GlyphClass: 2
Flags: W
LayerCount: 2
Fore
SplineSet
274 0 m 1,0,-1
 312 0 l 1,1,-1
 312 -47 l 1,2,3
 377 -50 377 -50 377 -108 c 0,4,5
 377 -137 377 -137 355.5 -155.5 c 128,-1,6
 334 -174 334 -174 299 -174 c 0,7,8
 266 -174 266 -174 228 -155 c 0,9,10
 210 -146 210 -146 210 -133 c 0,11,12
 210 -125 210 -125 216 -119.5 c 128,-1,13
 222 -114 222 -114 231 -114 c 0,14,15
 235 -114 235 -114 245 -119 c 0,16,17
 274 -135 274 -135 296 -135 c 0,18,19
 315 -135 315 -135 327.5 -127 c 128,-1,20
 340 -119 340 -119 340 -106 c 0,21,22
 340 -81 340 -81 294 -81 c 2,23,-1
 274 -81 l 1,24,-1
 274 0 l 1,0,-1
EndSplineSet
EndChar

StartChar: hungarumlaut
Encoding: 733 733 136
Width: 600
GlyphClass: 2
Flags: W
LayerCount: 2
Fore
SplineSet
353 619 m 2,0,-1
 256 525 l 2,1,2
 246 516 246 516 237 516 c 0,3,4
 229 516 229 516 223 522 c 128,-1,5
 217 528 217 528 217 536 c 0,6,7
 217 545 217 545 229 556 c 2,8,-1
 326 650 l 2,9,10
 335 659 335 659 345 659 c 0,11,12
 353 659 353 659 359 653 c 128,-1,13
 365 647 365 647 365 638 c 0,14,15
 365 631 365 631 353 619 c 2,0,-1
500 619 m 2,16,-1
 402 525 l 2,17,18
 390 516 390 516 383 516 c 0,19,20
 375 516 375 516 369 522 c 128,-1,21
 363 528 363 528 363 536 c 0,22,23
 363 546 363 546 375 556 c 2,24,-1
 473 650 l 2,25,26
 483 659 483 659 492 659 c 0,27,28
 500 659 500 659 506 653 c 128,-1,29
 512 647 512 647 512 638 c 0,30,31
 512 630 512 630 500 619 c 2,16,-1
EndSplineSet
EndChar

StartChar: ogonek
Encoding: 731 731 137
Width: 600
GlyphClass: 2
Flags: W
LayerCount: 2
Fore
SplineSet
404 0 m 1,0,-1
 377 -15 l 2,1,2
 319 -48 319 -48 319 -89 c 0,3,4
 319 -123 319 -123 362 -123 c 0,5,6
 384 -123 384 -123 411 -107 c 2,7,8
 412 -107 412 -107 415 -105.5 c 128,-1,9
 418 -104 418 -104 419 -104 c 0,10,11
 433 -104 433 -104 433 -119 c 0,12,13
 433 -132 433 -132 408.5 -143.5 c 128,-1,14
 384 -155 384 -155 356 -155 c 0,15,16
 320 -155 320 -155 300 -138.5 c 128,-1,17
 280 -122 280 -122 280 -93 c 0,18,19
 280 -35 280 -35 357 0 c 1,20,-1
 404 0 l 1,0,-1
EndSplineSet
EndChar

StartChar: caron
Encoding: 711 711 138
Width: 600
GlyphClass: 2
Flags: W
LayerCount: 2
Fore
SplineSet
300 517 m 1,0,-1
 167 626 l 2,1,2
 155 635 155 635 155 646 c 0,3,4
 155 654 155 654 161 660 c 128,-1,5
 167 666 167 666 175 666 c 0,6,7
 182 666 182 666 193 658 c 2,8,-1
 300 570 l 1,9,-1
 407 658 l 2,10,11
 418 666 418 666 425 666 c 128,-1,12
 432 666 432 666 438.5 660 c 128,-1,13
 445 654 445 654 445 646 c 0,14,15
 445 634 445 634 432 625 c 2,16,-1
 300 517 l 1,0,-1
EndSplineSet
EndChar

StartChar: emdash
Encoding: 8212 8212 139
Width: 600
GlyphClass: 2
Flags: W
LayerCount: 2
Fore
SplineSet
572 261 m 2,0,-1
 28 261 l 2,1,2
 1 261 1 261 1 282 c 0,3,4
 1 302 1 302 28 302 c 2,5,-1
 572 302 l 2,6,7
 600 302 600 302 600 282 c 0,8,9
 600 261 600 261 572 261 c 2,0,-1
EndSplineSet
EndChar

StartChar: AE
Encoding: 198 198 140
Width: 600
GlyphClass: 2
Flags: W
LayerCount: 2
Fore
SplineSet
297 189 m 1,0,-1
 157 189 l 1,1,-1
 115 41 l 1,2,-1
 141 41 l 2,3,4
 167 41 167 41 167 21 c 0,5,6
 167 0 167 0 141 0 c 2,7,-1
 36 0 l 2,8,9
 10 0 10 0 10 21 c 0,10,11
 10 41 10 41 36 41 c 2,12,-1
 74 41 l 1,13,-1
 208 522 l 1,14,-1
 144 522 l 2,15,16
 117 522 117 522 117 542 c 0,17,18
 117 563 117 563 144 563 c 2,19,-1
 570 563 l 1,20,-1
 570 411 l 2,21,22
 570 383 570 383 549 383 c 0,23,24
 529 383 529 383 529 411 c 2,25,-1
 529 522 l 1,26,-1
 339 522 l 1,27,-1
 339 314 l 1,28,-1
 416 314 l 1,29,-1
 416 342 l 2,30,31
 416 369 416 369 436 369 c 128,-1,32
 456 369 456 369 456 342 c 2,33,-1
 456 246 l 2,34,35
 456 218 456 218 436 218 c 128,-1,36
 416 218 416 218 416 246 c 2,37,-1
 416 273 l 1,38,-1
 339 273 l 1,39,-1
 339 41 l 1,40,-1
 549 41 l 1,41,-1
 549 133 l 2,42,43
 549 160 549 160 569 160 c 0,44,45
 590 160 590 160 590 133 c 2,46,-1
 590 0 l 1,47,-1
 245 0 l 2,48,49
 218 0 218 0 218 21 c 0,50,51
 218 41 218 41 245 41 c 2,52,-1
 297 41 l 1,53,-1
 297 189 l 1,0,-1
297 231 m 1,54,-1
 297 522 l 1,55,-1
 248 522 l 1,56,-1
 167 231 l 1,57,-1
 297 231 l 1,54,-1
EndSplineSet
EndChar

StartChar: ordfeminine
Encoding: 170 170 141
Width: 600
GlyphClass: 2
Flags: W
LayerCount: 2
Fore
SplineSet
360 282 m 1,0,-1
 360 308 l 1,1,2
 307 279 307 279 254 279 c 0,3,4
 210 279 210 279 182.5 301 c 128,-1,5
 155 323 155 323 155 358 c 0,6,7
 155 401 155 401 192.5 428 c 128,-1,8
 230 455 230 455 288 455 c 0,9,10
 302 455 302 455 360 447 c 1,11,-1
 360 490 l 2,12,13
 360 511 360 511 342.5 523.5 c 128,-1,14
 325 536 325 536 296 536 c 0,15,16
 265 536 265 536 220 518 c 0,17,18
 212 515 212 515 206 515 c 0,19,20
 199 515 199 515 194 520.5 c 128,-1,21
 189 526 189 526 189 533 c 0,22,23
 189 545 189 545 203 552 c 0,24,25
 258 574 258 574 299 574 c 0,26,27
 342 574 342 574 370 550.5 c 128,-1,28
 398 527 398 527 398 490 c 2,29,-1
 398 319 l 1,30,-1
 424 319 l 2,31,32
 447 319 447 319 447 300 c 0,33,34
 447 282 447 282 424 282 c 2,35,-1
 360 282 l 1,0,-1
360 350 m 1,36,-1
 360 409 l 1,37,38
 332 420 332 420 290 420 c 0,39,40
 247 420 247 420 219.5 402 c 128,-1,41
 192 384 192 384 192 356 c 0,42,43
 192 339 192 339 209 327.5 c 128,-1,44
 226 316 226 316 254 316 c 0,45,46
 312 316 312 316 360 350 c 1,36,-1
EndSplineSet
EndChar

StartChar: Lslash
Encoding: 321 321 142
Width: 600
GlyphClass: 2
Flags: W
LayerCount: 2
Fore
SplineSet
226 522 m 1,0,-1
 226 309 l 1,1,-1
 360 390 l 1,2,3
 370 394 370 394 377 394 c 0,4,5
 385 394 385 394 391 388.5 c 128,-1,6
 397 383 397 383 397 375 c 0,7,8
 397 364 397 364 380 356 c 2,9,-1
 226 263 l 1,10,-1
 226 41 l 1,11,-1
 500 41 l 1,12,-1
 500 201 l 2,13,14
 500 229 500 229 521 229 c 0,15,16
 541 229 541 229 541 201 c 2,17,-1
 541 0 l 1,18,-1
 90 0 l 2,19,20
 63 0 63 0 63 21 c 0,21,22
 63 41 63 41 90 41 c 2,23,-1
 184 41 l 1,24,-1
 184 246 l 1,25,-1
 79 184 l 2,26,27
 70 178 70 178 62 178 c 0,28,29
 55 178 55 178 48.5 184.5 c 128,-1,30
 42 191 42 191 42 199 c 0,31,32
 42 210 42 210 59 218 c 2,33,-1
 184 292 l 1,34,-1
 184 522 l 1,35,-1
 90 522 l 2,36,37
 63 522 63 522 63 542 c 0,38,39
 63 563 63 563 90 563 c 2,40,-1
 283 563 l 2,41,42
 309 563 309 563 309 542 c 0,43,44
 309 522 309 522 283 522 c 2,45,-1
 226 522 l 1,0,-1
EndSplineSet
EndChar

StartChar: Oslash
Encoding: 216 216 143
Width: 600
GlyphClass: 2
Flags: W
LayerCount: 2
Fore
SplineSet
141 51 m 1,0,-1
 76 -32 l 2,1,2
 67 -42 67 -42 58 -42 c 0,3,4
 51 -42 51 -42 45.5 -37 c 128,-1,5
 40 -32 40 -32 40 -25 c 0,6,7
 40 -19 40 -19 49 -8 c 2,8,-1
 117 78 l 1,9,10
 51 166 51 166 51 280 c 0,11,12
 51 405 51 405 123 490.5 c 128,-1,13
 195 576 195 576 300 576 c 0,14,15
 386 576 386 576 458 510 c 1,16,-1
 524 593 l 2,17,18
 536 606 536 606 542 606 c 0,19,20
 549 606 549 606 554 600.5 c 128,-1,21
 559 595 559 595 559 587 c 0,22,23
 559 580 559 580 552 572 c 2,24,-1
 482 483 l 1,25,26
 549 400 549 400 549 280 c 0,27,28
 549 156 549 156 476.5 70 c 128,-1,29
 404 -16 404 -16 300 -16 c 0,30,31
 210 -16 210 -16 141 51 c 1,0,-1
144 112 m 1,32,-1
 432 476 l 1,33,34
 373 535 373 535 300 535 c 0,35,36
 213 535 213 535 152.5 460 c 128,-1,37
 92 385 92 385 92 280 c 0,38,39
 92 189 92 189 144 112 c 1,32,-1
456 449 m 1,40,-1
 167 84 l 1,41,42
 226 25 226 25 300 25 c 0,43,44
 386 25 386 25 447 100 c 128,-1,45
 508 175 508 175 508 280 c 0,46,47
 508 374 508 374 456 449 c 1,40,-1
EndSplineSet
EndChar

StartChar: OE
Encoding: 338 338 144
Width: 600
GlyphClass: 2
Flags: W
LayerCount: 2
Fore
SplineSet
339 272 m 1,0,-1
 339 41 l 1,1,-1
 549 41 l 1,2,-1
 549 133 l 2,3,4
 549 160 549 160 569 160 c 0,5,6
 590 160 590 160 590 133 c 2,7,-1
 590 0 l 1,8,-1
 263 0 l 2,9,10
 148 0 148 0 79 77 c 128,-1,11
 10 154 10 154 10 282 c 0,12,13
 10 407 10 407 78 485 c 128,-1,14
 146 563 146 563 255 563 c 2,15,-1
 570 563 l 1,16,-1
 570 409 l 2,17,18
 570 382 570 382 550 382 c 0,19,20
 529 382 529 382 529 409 c 2,21,-1
 529 522 l 1,22,-1
 339 522 l 1,23,-1
 339 313 l 1,24,-1
 416 313 l 1,25,-1
 416 340 l 2,26,27
 416 367 416 367 437 367 c 128,-1,28
 458 367 458 367 458 340 c 2,29,-1
 458 244 l 2,30,31
 458 217 458 217 437 217 c 128,-1,32
 416 217 416 217 416 244 c 2,33,-1
 416 272 l 1,34,-1
 339 272 l 1,0,-1
297 522 m 1,35,-1
 265 522 l 2,36,37
 159 522 159 522 104 451 c 0,38,39
 51 386 51 386 51 282 c 128,-1,40
 51 178 51 178 104 110 c 0,41,42
 160 41 160 41 265 41 c 2,43,-1
 297 41 l 1,44,-1
 297 522 l 1,35,-1
EndSplineSet
EndChar

StartChar: ordmasculine
Encoding: 186 186 145
Width: 600
GlyphClass: 2
Flags: W
LayerCount: 2
Fore
SplineSet
301 576 m 0,0,1
 363 576 363 576 405.5 533.5 c 128,-1,2
 448 491 448 491 448 428 c 0,3,4
 448 369 448 369 404.5 326.5 c 128,-1,5
 361 284 361 284 301 284 c 0,6,7
 240 284 240 284 197 327 c 128,-1,8
 154 370 154 370 154 431 c 0,9,10
 154 491 154 491 197 533.5 c 128,-1,11
 240 576 240 576 301 576 c 0,0,1
301 540 m 0,12,13
 255 540 255 540 223 508.5 c 128,-1,14
 191 477 191 477 191 431 c 0,15,16
 191 386 191 386 223.5 354 c 128,-1,17
 256 322 256 322 301 322 c 0,18,19
 345 322 345 322 378 353.5 c 128,-1,20
 411 385 411 385 411 428 c 0,21,22
 411 476 411 476 379.5 508 c 128,-1,23
 348 540 348 540 301 540 c 0,12,13
EndSplineSet
EndChar

StartChar: ae
Encoding: 230 230 146
Width: 600
GlyphClass: 2
Flags: W
LayerCount: 2
Fore
SplineSet
320 61 m 1,0,-1
 320 27 l 2,1,2
 320 0 320 0 300 0 c 128,-1,3
 280 0 280 0 280 27 c 2,4,-1
 280 52 l 1,5,6
 225 -16 225 -16 160 -16 c 0,7,8
 96 -16 96 -16 54 26 c 128,-1,9
 12 68 12 68 12 132 c 0,10,11
 12 181 12 181 57 217 c 0,12,13
 113 257 113 257 195 257 c 0,14,15
 230 257 230 257 280 245 c 1,16,-1
 280 305 l 2,17,18
 280 340 280 340 254.5 365 c 128,-1,19
 229 390 229 390 192 390 c 0,20,21
 147 390 147 390 108 365 c 0,22,23
 98 358 98 358 90 358 c 0,24,25
 83 358 83 358 77.5 364.5 c 128,-1,26
 72 371 72 371 72 377 c 0,27,28
 72 394 72 394 100 407 c 0,29,30
 154 431 154 431 199 431 c 0,31,32
 236 431 236 431 266.5 408 c 128,-1,33
 297 385 297 385 312 347 c 1,34,35
 330 386 330 386 362 408.5 c 128,-1,36
 394 431 394 431 430 431 c 0,37,38
 475 431 475 431 509 403 c 128,-1,39
 543 375 543 375 559 325 c 0,40,41
 576 277 576 277 576 199 c 1,42,-1
 319 199 l 1,43,44
 324 123 324 123 360 74 c 128,-1,45
 396 25 396 25 447 25 c 0,46,47
 468 25 468 25 489 37.5 c 128,-1,48
 510 50 510 50 545 83 c 1,49,50
 553 87 553 87 558 87 c 0,51,52
 566 87 566 87 572 80.5 c 128,-1,53
 578 74 578 74 578 67 c 0,54,55
 578 56 578 56 547 29 c 0,56,57
 487 -16 487 -16 444 -16 c 0,58,59
 370 -16 370 -16 320 61 c 1,0,-1
280 110 m 1,60,-1
 280 203 l 1,61,62
 234 216 234 216 201 216 c 0,63,64
 169 216 169 216 132 204 c 128,-1,65
 95 192 95 192 78 176 c 0,66,67
 57 154 57 154 57 121 c 0,68,69
 57 80 57 80 86.5 52.5 c 128,-1,70
 116 25 116 25 161 25 c 0,71,72
 189 25 189 25 217 45 c 128,-1,73
 245 65 245 65 280 110 c 1,60,-1
320 240 m 1,74,-1
 535 240 l 1,75,76
 527 305 527 305 512 335 c 0,77,78
 485 390 485 390 428 390 c 0,79,80
 340 390 340 390 320 240 c 1,74,-1
EndSplineSet
EndChar

StartChar: dotlessi
Encoding: 305 305 147
Width: 600
GlyphClass: 2
Flags: W
LayerCount: 2
Fore
SplineSet
320 417 m 1,0,-1
 320 41 l 1,1,-1
 481 41 l 2,2,3
 508 41 508 41 508 21 c 0,4,5
 508 0 508 0 481 0 c 2,6,-1
 119 0 l 2,7,8
 92 0 92 0 92 21 c 0,9,10
 92 41 92 41 119 41 c 2,11,-1
 279 41 l 1,12,-1
 279 376 l 1,13,-1
 161 376 l 2,14,15
 133 376 133 376 133 397 c 0,16,17
 133 417 133 417 161 417 c 2,18,-1
 320 417 l 1,0,-1
EndSplineSet
EndChar

StartChar: lslash
Encoding: 322 322 148
Width: 600
GlyphClass: 2
Flags: W
LayerCount: 2
Fore
SplineSet
319 604 m 1,0,-1
 319 343 l 1,1,-1
 407 394 l 2,2,3
 418 400 418 400 424 400 c 0,4,5
 432 400 432 400 437.5 394 c 128,-1,6
 443 388 443 388 443 380 c 0,7,8
 443 370 443 370 427 359 c 2,9,-1
 319 297 l 1,10,-1
 319 41 l 1,11,-1
 481 41 l 2,12,13
 508 41 508 41 508 21 c 0,14,15
 508 0 508 0 481 0 c 2,16,-1
 119 0 l 2,17,18
 92 0 92 0 92 21 c 0,19,20
 92 41 92 41 119 41 c 2,21,-1
 278 41 l 1,22,-1
 278 280 l 1,23,-1
 191 231 l 2,24,25
 182 225 182 225 174 225 c 128,-1,26
 166 225 166 225 160.5 231 c 128,-1,27
 155 237 155 237 155 245 c 0,28,29
 155 255 155 255 171 266 c 2,30,-1
 278 326 l 1,31,-1
 278 563 l 1,32,-1
 161 563 l 2,33,34
 135 563 135 563 135 584 c 0,35,36
 135 604 135 604 161 604 c 2,37,-1
 319 604 l 1,0,-1
EndSplineSet
EndChar

StartChar: oslash
Encoding: 248 248 149
Width: 600
GlyphClass: 2
Flags: W
LayerCount: 2
Fore
SplineSet
154 35 m 1,0,-1
 89 -33 l 2,1,2
 79 -42 79 -42 72 -42 c 0,3,4
 53 -42 53 -42 53 -25 c 0,5,6
 53 -18 53 -18 63 -8 c 2,7,-1
 129 59 l 1,8,9
 72 125 72 125 72 208 c 0,10,11
 72 301 72 301 138.5 366 c 128,-1,12
 205 431 205 431 300 431 c 0,13,14
 382 431 382 431 444 382 c 1,15,-1
 508 448 l 2,16,17
 519 458 519 458 525 458 c 0,18,19
 532 458 532 458 537 453 c 128,-1,20
 542 448 542 448 542 441 c 0,21,22
 542 432 542 432 533 424 c 2,23,-1
 468 358 l 1,24,25
 528 295 528 295 528 208 c 0,26,27
 528 114 528 114 461.5 49 c 128,-1,28
 395 -16 395 -16 300 -16 c 0,29,30
 220 -16 220 -16 154 35 c 1,0,-1
441 329 m 1,31,-1
 183 66 l 1,32,33
 233 25 233 25 300 25 c 0,34,35
 378 25 378 25 432.5 78.5 c 128,-1,36
 487 132 487 132 487 208 c 0,37,38
 487 275 487 275 441 329 c 1,31,-1
158 89 m 1,39,-1
 415 352 l 1,40,41
 365 390 365 390 300 390 c 0,42,43
 223 390 223 390 168 337 c 128,-1,44
 113 284 113 284 113 208 c 0,45,46
 113 142 113 142 158 89 c 1,39,-1
EndSplineSet
EndChar

StartChar: oe
Encoding: 339 339 150
Width: 600
GlyphClass: 2
Flags: W
LayerCount: 2
Fore
SplineSet
576 199 m 1,0,-1
 319 199 l 1,1,2
 324 125 324 125 361 75 c 128,-1,3
 398 25 398 25 447 25 c 0,4,5
 468 25 468 25 489 37.5 c 128,-1,6
 510 50 510 50 545 83 c 1,7,8
 553 87 553 87 558 87 c 0,9,10
 565 87 565 87 571.5 80.5 c 128,-1,11
 578 74 578 74 578 67 c 0,12,13
 578 56 578 56 547 29 c 0,14,15
 487 -16 487 -16 444 -16 c 0,16,17
 399 -16 399 -16 360.5 16 c 128,-1,18
 322 48 322 48 299 103 c 1,19,20
 252 -16 252 -16 166 -16 c 0,21,22
 104 -16 104 -16 58 52 c 128,-1,23
 12 120 12 120 12 212 c 0,24,25
 12 300 12 300 57.5 365.5 c 128,-1,26
 103 431 103 431 165 431 c 0,27,28
 205 431 205 431 241.5 400 c 128,-1,29
 278 369 278 369 299 317 c 1,30,31
 320 371 320 371 346 394 c 0,32,33
 383 431 383 431 431 431 c 0,34,35
 475 431 475 431 509 403 c 128,-1,36
 543 375 543 375 559 325 c 0,37,38
 576 277 576 277 576 199 c 1,0,-1
320 240 m 1,39,-1
 536 240 l 1,40,41
 528 305 528 305 513 335 c 0,42,43
 485 390 485 390 428 390 c 0,44,45
 340 390 340 390 320 240 c 1,39,-1
166 390 m 0,46,47
 121 390 121 390 87 335.5 c 128,-1,48
 53 281 53 281 53 208 c 128,-1,49
 53 135 53 135 87 80 c 128,-1,50
 121 25 121 25 167 25 c 0,51,52
 211 25 211 25 245.5 79.5 c 128,-1,53
 280 134 280 134 280 206 c 0,54,55
 280 280 280 280 246 335 c 128,-1,56
 212 390 212 390 166 390 c 0,46,47
EndSplineSet
EndChar

StartChar: germandbls
Encoding: 223 223 151
Width: 600
GlyphClass: 2
Flags: W
LayerCount: 2
Fore
SplineSet
124 41 m 1,0,-1
 124 476 l 2,1,2
 124 529 124 529 165.5 566.5 c 128,-1,3
 207 604 207 604 266 604 c 0,4,5
 327 604 327 604 369 561.5 c 128,-1,6
 411 519 411 519 411 458 c 128,-1,7
 411 397 411 397 354 359 c 1,8,9
 499 300 499 300 499 161 c 0,10,11
 499 85 499 85 460.5 34.5 c 128,-1,12
 422 -16 422 -16 365 -16 c 0,13,14
 320 -16 320 -16 289 18 c 128,-1,15
 258 52 258 52 258 101 c 0,16,17
 258 124 258 124 279 124 c 0,18,19
 299 124 299 124 300 100 c 0,20,21
 305 25 305 25 365 25 c 0,22,23
 404 25 404 25 431 64.5 c 128,-1,24
 458 104 458 104 458 161 c 0,25,26
 458 240 458 240 397 290 c 0,27,28
 343 334 343 334 279 334 c 2,29,-1
 274 334 l 2,30,31
 248 334 248 334 248 356 c 0,32,33
 248 375 248 375 269 375 c 2,34,-1
 275 375 l 2,35,36
 313 375 313 375 342 400.5 c 128,-1,37
 371 426 371 426 371 459 c 0,38,39
 371 502 371 502 340 532.5 c 128,-1,40
 309 563 309 563 266 563 c 0,41,42
 224 563 224 563 194.5 538 c 128,-1,43
 165 513 165 513 165 476 c 2,44,-1
 165 41 l 1,45,-1
 180 41 l 2,46,47
 208 41 208 41 208 21 c 0,48,49
 208 0 208 0 180 0 c 2,50,-1
 70 0 l 2,51,52
 42 0 42 0 42 21 c 0,53,54
 42 41 42 41 70 41 c 2,55,-1
 124 41 l 1,0,-1
EndSplineSet
EndChar

StartChar: Adieresis
Encoding: 196 196 152
Width: 600
GlyphClass: 2
Flags: W
LayerCount: 2
Fore
SplineSet
428 188 m 1,0,-1
 161 188 l 1,1,-1
 108 41 l 1,2,-1
 187 41 l 2,3,4
 214 41 214 41 214 21 c 0,5,6
 214 0 214 0 187 0 c 2,7,-1
 36 0 l 2,8,9
 8 0 8 0 8 21 c 0,10,11
 8 41 8 41 36 41 c 2,12,-1
 67 41 l 1,13,-1
 246 522 l 1,14,-1
 126 522 l 2,15,16
 100 522 100 522 100 542 c 0,17,18
 100 563 100 563 126 563 c 2,19,-1
 330 563 l 1,20,-1
 527 41 l 1,21,-1
 564 41 l 2,22,23
 591 41 591 41 591 21 c 0,24,25
 591 0 591 0 564 0 c 2,26,-1
 408 0 l 2,27,28
 381 0 381 0 381 21 c 0,29,30
 381 41 381 41 408 41 c 2,31,-1
 484 41 l 1,32,-1
 428 188 l 1,0,-1
413 229 m 1,33,-1
 301 522 l 1,34,-1
 286 522 l 1,35,-1
 178 229 l 1,36,-1
 413 229 l 1,33,-1
200 779 m 2,37,-1
 225 779 l 2,38,39
 244 779 244 779 244 745 c 2,40,-1
 244 675 l 2,41,42
 244 641 244 641 225 641 c 2,43,-1
 200 641 l 2,44,45
 180 641 180 641 180 675 c 2,46,-1
 180 745 l 2,47,48
 180 779 180 779 200 779 c 2,37,-1
376 779 m 2,49,-1
 400 779 l 2,50,51
 420 779 420 779 420 745 c 2,52,-1
 420 675 l 2,53,54
 420 641 420 641 400 641 c 2,55,-1
 376 641 l 2,56,57
 356 641 356 641 356 675 c 2,58,-1
 356 745 l 2,59,60
 356 779 356 779 376 779 c 2,49,-1
EndSplineSet
EndChar

StartChar: Aogonek
Encoding: 260 260 159
Width: 600
GlyphClass: 2
Flags: W
LayerCount: 2
Fore
SplineSet
330 563 m 1,0,-1
 527 41 l 1,1,-1
 564 41 l 2,2,3
 591 41 591 41 591 21 c 0,4,5
 591 11 591 11 587 7.5 c 128,-1,6
 583 4 583 4 567 -2 c 0,7,8
 530 -19 530 -19 507.5 -42.5 c 128,-1,9
 485 -66 485 -66 485 -89 c 0,10,11
 485 -123 485 -123 529 -123 c 0,12,13
 549 -123 549 -123 578 -107 c 2,14,15
 579 -107 579 -107 582 -105.5 c 128,-1,16
 585 -104 585 -104 586 -104 c 0,17,18
 600 -104 600 -104 600 -119 c 0,19,20
 600 -132 600 -132 575.5 -143.5 c 128,-1,21
 551 -155 551 -155 523 -155 c 0,22,23
 487 -155 487 -155 467 -138.5 c 128,-1,24
 447 -122 447 -122 447 -93 c 0,25,26
 447 -62 447 -62 464.5 -41 c 128,-1,27
 482 -20 482 -20 524 0 c 1,28,-1
 408 0 l 2,29,30
 381 0 381 0 381 21 c 0,31,32
 381 41 381 41 408 41 c 2,33,-1
 484 41 l 1,34,-1
 428 188 l 1,35,-1
 161 188 l 1,36,-1
 108 41 l 1,37,-1
 187 41 l 2,38,39
 214 41 214 41 214 21 c 0,40,41
 214 0 214 0 187 0 c 2,42,-1
 36 0 l 2,43,44
 8 0 8 0 8 21 c 0,45,46
 8 41 8 41 36 41 c 2,47,-1
 67 41 l 1,48,-1
 246 522 l 1,49,-1
 126 522 l 2,50,51
 100 522 100 522 100 542 c 0,52,53
 100 563 100 563 126 563 c 2,54,-1
 330 563 l 1,0,-1
413 229 m 1,55,-1
 301 522 l 1,56,-1
 286 522 l 1,57,-1
 178 229 l 1,58,-1
 413 229 l 1,55,-1
EndSplineSet
EndChar

StartChar: Ccedilla
Encoding: 199 199 160
Width: 600
GlyphClass: 2
Flags: W
LayerCount: 2
Fore
SplineSet
317 -16 m 1,0,-1
 317 -47 l 1,1,2
 382 -50 382 -50 382 -108 c 0,3,4
 382 -137 382 -137 360 -155.5 c 128,-1,5
 338 -174 338 -174 303 -174 c 0,6,7
 269 -174 269 -174 233 -155 c 0,8,9
 215 -147 215 -147 215 -133 c 0,10,11
 215 -126 215 -126 221 -120 c 128,-1,12
 227 -114 227 -114 235 -114 c 0,13,14
 240 -114 240 -114 250 -119 c 0,15,16
 281 -135 281 -135 301 -135 c 0,17,18
 320 -135 320 -135 332.5 -127 c 128,-1,19
 345 -119 345 -119 345 -106 c 0,20,21
 345 -81 345 -81 299 -81 c 2,22,-1
 279 -81 l 1,23,-1
 279 -12 l 1,24,25
 217 3 217 3 183 28 c 0,26,27
 128 66 128 66 95.5 123.5 c 128,-1,28
 63 181 63 181 63 242 c 2,29,-1
 63 325 l 2,30,31
 63 371 63 371 82 419 c 128,-1,32
 101 467 101 467 133 502 c 0,33,34
 202 576 202 576 305 576 c 0,35,36
 406 576 406 576 478 507 c 1,37,-1
 478 536 l 2,38,39
 478 563 478 563 499 563 c 0,40,41
 519 563 519 563 519 536 c 2,42,-1
 519 424 l 2,43,44
 519 397 519 397 498 397 c 0,45,46
 480 397 480 397 478 421 c 0,47,48
 476 467 476 467 424 501 c 128,-1,49
 372 535 372 535 305 535 c 0,50,51
 222 535 222 535 163 471.5 c 128,-1,52
 104 408 104 408 104 319 c 2,53,-1
 104 248 l 2,54,55
 104 157 104 157 168.5 91 c 128,-1,56
 233 25 233 25 322 25 c 0,57,58
 374 25 374 25 415 46 c 128,-1,59
 456 67 456 67 496 115 c 0,60,61
 504 125 504 125 515 125 c 0,62,63
 523 125 523 125 528.5 119.5 c 128,-1,64
 534 114 534 114 534 106 c 0,65,66
 534 90 534 90 496 55 c 0,67,68
 461 23 461 23 416 3.5 c 128,-1,69
 371 -16 371 -16 330 -16 c 2,70,-1
 317 -16 l 1,0,-1
EndSplineSet
EndChar

StartChar: Cacute
Encoding: 262 262 161
Width: 600
GlyphClass: 2
Flags: W
LayerCount: 2
Fore
SplineSet
478 507 m 1,0,-1
 478 536 l 2,1,2
 478 563 478 563 499 563 c 0,3,4
 519 563 519 563 519 536 c 2,5,-1
 519 424 l 2,6,7
 519 397 519 397 498 397 c 0,8,9
 480 397 480 397 478 421 c 0,10,11
 476 467 476 467 424 501 c 128,-1,12
 372 535 372 535 305 535 c 0,13,14
 222 535 222 535 163 471.5 c 128,-1,15
 104 408 104 408 104 319 c 2,16,-1
 104 248 l 2,17,18
 104 157 104 157 168.5 91 c 128,-1,19
 233 25 233 25 322 25 c 0,20,21
 374 25 374 25 415 46 c 128,-1,22
 456 67 456 67 496 115 c 0,23,24
 504 125 504 125 515 125 c 0,25,26
 523 125 523 125 528.5 119.5 c 128,-1,27
 534 114 534 114 534 106 c 0,28,29
 534 90 534 90 496 55 c 0,30,31
 422 -16 422 -16 322 -16 c 0,32,33
 220 -16 220 -16 141.5 62.5 c 128,-1,34
 63 141 63 141 63 242 c 2,35,-1
 63 325 l 2,36,37
 63 371 63 371 82 419 c 128,-1,38
 101 467 101 467 133 502 c 0,39,40
 202 576 202 576 305 576 c 0,41,42
 406 576 406 576 478 507 c 1,0,-1
433 749 m 2,43,-1
 319 649 l 2,44,45
 306 640 306 640 300 640 c 0,46,47
 292 640 292 640 286 646 c 128,-1,48
 280 652 280 652 280 661 c 0,49,50
 280 669 280 669 292 680 c 2,51,-1
 407 780 l 2,52,53
 419 789 419 789 425 789 c 0,54,55
 433 789 433 789 439 783 c 128,-1,56
 445 777 445 777 445 768 c 0,57,58
 445 760 445 760 433 749 c 2,43,-1
EndSplineSet
EndChar

StartChar: Ccaron
Encoding: 268 268 162
Width: 600
GlyphClass: 2
Flags: W
LayerCount: 2
Fore
SplineSet
478 507 m 1,0,-1
 478 536 l 2,1,2
 478 563 478 563 499 563 c 0,3,4
 519 563 519 563 519 536 c 2,5,-1
 519 424 l 2,6,7
 519 397 519 397 498 397 c 0,8,9
 480 397 480 397 478 421 c 0,10,11
 476 467 476 467 424 501 c 128,-1,12
 372 535 372 535 305 535 c 0,13,14
 222 535 222 535 163 471.5 c 128,-1,15
 104 408 104 408 104 319 c 2,16,-1
 104 248 l 2,17,18
 104 157 104 157 168.5 91 c 128,-1,19
 233 25 233 25 322 25 c 0,20,21
 374 25 374 25 415 46 c 128,-1,22
 456 67 456 67 496 115 c 0,23,24
 504 125 504 125 515 125 c 0,25,26
 523 125 523 125 528.5 119.5 c 128,-1,27
 534 114 534 114 534 106 c 0,28,29
 534 90 534 90 496 55 c 0,30,31
 422 -16 422 -16 322 -16 c 0,32,33
 220 -16 220 -16 141.5 62.5 c 128,-1,34
 63 141 63 141 63 242 c 2,35,-1
 63 325 l 2,36,37
 63 371 63 371 82 419 c 128,-1,38
 101 467 101 467 133 502 c 0,39,40
 202 576 202 576 305 576 c 0,41,42
 406 576 406 576 478 507 c 1,0,-1
300 640 m 1,43,-1
 167 749 l 2,44,45
 155 758 155 758 155 769 c 0,46,47
 155 777 155 777 161 783 c 128,-1,48
 167 789 167 789 175 789 c 0,49,50
 181 789 181 789 193 782 c 1,51,-1
 300 693 l 1,52,-1
 407 782 l 1,53,54
 419 789 419 789 425 789 c 0,55,56
 432 789 432 789 438.5 782.5 c 128,-1,57
 445 776 445 776 445 769 c 0,58,59
 445 759 445 759 432 748 c 2,60,-1
 300 640 l 1,43,-1
EndSplineSet
EndChar

StartChar: Dcaron
Encoding: 270 270 163
Width: 600
GlyphClass: 2
Flags: W
LayerCount: 2
Fore
SplineSet
104 41 m 1,0,-1
 104 522 l 1,1,-1
 70 522 l 2,2,3
 42 522 42 522 42 542 c 0,4,5
 42 563 42 563 70 563 c 2,6,-1
 290 563 l 2,7,8
 387 563 387 563 453 489.5 c 128,-1,9
 519 416 519 416 519 309 c 2,10,-1
 519 254 l 2,11,12
 519 147 519 147 453 73.5 c 128,-1,13
 387 0 387 0 290 0 c 2,14,-1
 70 0 l 2,15,16
 42 0 42 0 42 21 c 0,17,18
 42 41 42 41 70 41 c 2,19,-1
 104 41 l 1,0,-1
144 41 m 1,20,-1
 295 41 l 2,21,22
 367 41 367 41 423 103.5 c 128,-1,23
 479 166 479 166 479 245 c 2,24,-1
 479 318 l 2,25,26
 479 405 479 405 414 472 c 0,27,28
 364 522 364 522 288 522 c 2,29,-1
 144 522 l 1,30,-1
 144 41 l 1,20,-1
300 640 m 1,31,-1
 167 749 l 2,32,33
 155 758 155 758 155 769 c 0,34,35
 155 777 155 777 161 783 c 128,-1,36
 167 789 167 789 175 789 c 0,37,38
 181 789 181 789 193 782 c 1,39,-1
 300 693 l 1,40,-1
 407 782 l 1,41,42
 419 789 419 789 425 789 c 0,43,44
 432 789 432 789 438.5 782.5 c 128,-1,45
 445 776 445 776 445 769 c 0,46,47
 445 759 445 759 432 748 c 2,48,-1
 300 640 l 1,31,-1
EndSplineSet
EndChar

StartChar: Edieresis
Encoding: 203 203 164
Width: 600
GlyphClass: 2
Flags: W
LayerCount: 2
Fore
SplineSet
165 272 m 1,0,-1
 165 41 l 1,1,-1
 479 41 l 1,2,-1
 479 160 l 2,3,4
 479 187 479 187 500 187 c 0,5,6
 519 187 519 187 519 160 c 2,7,-1
 519 0 l 1,8,-1
 70 0 l 2,9,10
 42 0 42 0 42 21 c 0,11,12
 42 41 42 41 70 41 c 2,13,-1
 124 41 l 1,14,-1
 124 522 l 1,15,-1
 70 522 l 2,16,17
 42 522 42 522 42 542 c 0,18,19
 42 563 42 563 70 563 c 2,20,-1
 499 563 l 1,21,-1
 499 424 l 2,22,23
 499 397 499 397 478 397 c 0,24,25
 458 397 458 397 458 424 c 2,26,-1
 458 522 l 1,27,-1
 165 522 l 1,28,-1
 165 313 l 1,29,-1
 309 313 l 1,30,-1
 309 358 l 2,31,32
 309 385 309 385 331 385 c 0,33,34
 351 385 351 385 351 358 c 2,35,-1
 351 227 l 2,36,37
 351 200 351 200 331 200 c 0,38,39
 309 200 309 200 309 227 c 2,40,-1
 309 272 l 1,41,-1
 165 272 l 1,0,-1
181 761 m 0,42,43
 202 761 202 761 216.5 746 c 128,-1,44
 231 731 231 731 231 710 c 0,45,46
 231 690 231 690 216 675.5 c 128,-1,47
 201 661 201 661 181 661 c 128,-1,48
 161 661 161 661 146 676 c 128,-1,49
 131 691 131 691 131 711 c 128,-1,50
 131 731 131 731 146 746 c 128,-1,51
 161 761 161 761 181 761 c 0,42,43
402 761 m 0,52,53
 423 761 423 761 437 746 c 128,-1,54
 451 731 451 731 451 710 c 0,55,56
 451 690 451 690 436.5 675.5 c 128,-1,57
 422 661 422 661 402 661 c 128,-1,58
 382 661 382 661 367 676 c 128,-1,59
 352 691 352 691 352 711 c 128,-1,60
 352 731 352 731 367 746 c 128,-1,61
 382 761 382 761 402 761 c 0,52,53
EndSplineSet
EndChar

StartChar: Eacute
Encoding: 201 201 165
Width: 600
GlyphClass: 2
Flags: W
LayerCount: 2
Fore
SplineSet
165 272 m 1,0,-1
 165 41 l 1,1,-1
 479 41 l 1,2,-1
 479 160 l 2,3,4
 479 187 479 187 500 187 c 0,5,6
 519 187 519 187 519 160 c 2,7,-1
 519 0 l 1,8,-1
 70 0 l 2,9,10
 42 0 42 0 42 21 c 0,11,12
 42 41 42 41 70 41 c 2,13,-1
 124 41 l 1,14,-1
 124 522 l 1,15,-1
 70 522 l 2,16,17
 42 522 42 522 42 542 c 0,18,19
 42 563 42 563 70 563 c 2,20,-1
 499 563 l 1,21,-1
 499 424 l 2,22,23
 499 397 499 397 478 397 c 0,24,25
 458 397 458 397 458 424 c 2,26,-1
 458 522 l 1,27,-1
 165 522 l 1,28,-1
 165 313 l 1,29,-1
 309 313 l 1,30,-1
 309 358 l 2,31,32
 309 385 309 385 331 385 c 0,33,34
 351 385 351 385 351 358 c 2,35,-1
 351 227 l 2,36,37
 351 200 351 200 331 200 c 0,38,39
 309 200 309 200 309 227 c 2,40,-1
 309 272 l 1,41,-1
 165 272 l 1,0,-1
390 749 m 2,42,-1
 275 649 l 2,43,44
 263 640 263 640 256 640 c 0,45,46
 248 640 248 640 241.5 646 c 128,-1,47
 235 652 235 652 235 661 c 0,48,49
 235 668 235 668 248 680 c 2,50,-1
 362 780 l 1,51,52
 376 789 376 789 381 789 c 0,53,54
 400 789 400 789 400 768 c 0,55,56
 400 759 400 759 390 749 c 2,42,-1
EndSplineSet
EndChar

StartChar: Egrave
Encoding: 200 200 166
Width: 600
GlyphClass: 2
Flags: W
LayerCount: 2
Fore
SplineSet
165 272 m 1,0,-1
 165 41 l 1,1,-1
 479 41 l 1,2,-1
 479 160 l 2,3,4
 479 187 479 187 500 187 c 0,5,6
 519 187 519 187 519 160 c 2,7,-1
 519 0 l 1,8,-1
 70 0 l 2,9,10
 42 0 42 0 42 21 c 0,11,12
 42 41 42 41 70 41 c 2,13,-1
 124 41 l 1,14,-1
 124 522 l 1,15,-1
 70 522 l 2,16,17
 42 522 42 522 42 542 c 0,18,19
 42 563 42 563 70 563 c 2,20,-1
 499 563 l 1,21,-1
 499 424 l 2,22,23
 499 397 499 397 478 397 c 0,24,25
 458 397 458 397 458 424 c 2,26,-1
 458 522 l 1,27,-1
 165 522 l 1,28,-1
 165 313 l 1,29,-1
 309 313 l 1,30,-1
 309 358 l 2,31,32
 309 385 309 385 331 385 c 0,33,34
 351 385 351 385 351 358 c 2,35,-1
 351 227 l 2,36,37
 351 200 351 200 331 200 c 0,38,39
 309 200 309 200 309 227 c 2,40,-1
 309 272 l 1,41,-1
 165 272 l 1,0,-1
215 780 m 2,42,-1
 329 680 l 1,43,-1
 336 672 l 2,44,45
 341 667 341 667 341 661 c 0,46,47
 341 640 341 640 320 640 c 0,48,49
 312 640 312 640 302 649 c 2,50,-1
 188 749 l 2,51,52
 176 759 176 759 176 769 c 0,53,54
 176 789 176 789 197 789 c 0,55,56
 204 789 204 789 215 780 c 2,42,-1
EndSplineSet
EndChar

StartChar: Ecircumflex
Encoding: 202 202 167
Width: 600
GlyphClass: 2
Flags: W
LayerCount: 2
Fore
SplineSet
165 272 m 1,0,-1
 165 41 l 1,1,-1
 479 41 l 1,2,-1
 479 160 l 2,3,4
 479 187 479 187 500 187 c 0,5,6
 519 187 519 187 519 160 c 2,7,-1
 519 0 l 1,8,-1
 70 0 l 2,9,10
 42 0 42 0 42 21 c 0,11,12
 42 41 42 41 70 41 c 2,13,-1
 124 41 l 1,14,-1
 124 522 l 1,15,-1
 70 522 l 2,16,17
 42 522 42 522 42 542 c 0,18,19
 42 563 42 563 70 563 c 2,20,-1
 499 563 l 1,21,-1
 499 424 l 2,22,23
 499 397 499 397 478 397 c 0,24,25
 458 397 458 397 458 424 c 2,26,-1
 458 522 l 1,27,-1
 165 522 l 1,28,-1
 165 313 l 1,29,-1
 309 313 l 1,30,-1
 309 358 l 2,31,32
 309 385 309 385 331 385 c 0,33,34
 351 385 351 385 351 358 c 2,35,-1
 351 227 l 2,36,37
 351 200 351 200 331 200 c 0,38,39
 309 200 309 200 309 227 c 2,40,-1
 309 272 l 1,41,-1
 165 272 l 1,0,-1
291 789 m 1,42,-1
 424 681 l 2,43,44
 436 670 436 670 436 660 c 0,45,46
 436 652 436 652 430 646 c 128,-1,47
 424 640 424 640 416 640 c 0,48,49
 409 640 409 640 398 648 c 2,50,-1
 291 735 l 1,51,-1
 184 648 l 2,52,53
 173 640 173 640 166 640 c 0,54,55
 158 640 158 640 152 646 c 128,-1,56
 146 652 146 652 146 660 c 0,57,58
 146 672 146 672 159 680 c 2,59,-1
 291 789 l 1,42,-1
EndSplineSet
EndChar

StartChar: Eogonek
Encoding: 280 280 170
Width: 600
GlyphClass: 2
Flags: W
LayerCount: 2
Fore
SplineSet
165 272 m 1,0,-1
 165 41 l 1,1,-1
 479 41 l 1,2,-1
 479 160 l 2,3,4
 479 187 479 187 500 187 c 0,5,6
 519 187 519 187 519 160 c 2,7,-1
 519 0 l 1,8,-1
 493 -15 l 2,9,10
 434 -48 434 -48 434 -89 c 0,11,12
 434 -123 434 -123 478 -123 c 0,13,14
 499 -123 499 -123 525 -107 c 1,15,16
 531 -105 l 128,-1,17
 534 -104 534 -104 535 -104 c 0,18,19
 549 -104 549 -104 549 -119 c 0,20,21
 549 -132 549 -132 524 -143.5 c 128,-1,22
 499 -155 499 -155 472 -155 c 0,23,24
 436 -155 436 -155 415 -138.5 c 128,-1,25
 394 -122 394 -122 394 -93 c 0,26,27
 394 -63 394 -63 412 -41.5 c 128,-1,28
 430 -20 430 -20 473 0 c 1,29,-1
 70 0 l 2,30,31
 42 0 42 0 42 21 c 0,32,33
 42 41 42 41 70 41 c 2,34,-1
 124 41 l 1,35,-1
 124 522 l 1,36,-1
 70 522 l 2,37,38
 42 522 42 522 42 542 c 0,39,40
 42 563 42 563 70 563 c 2,41,-1
 499 563 l 1,42,-1
 499 424 l 2,43,44
 499 397 499 397 478 397 c 0,45,46
 458 397 458 397 458 424 c 2,47,-1
 458 522 l 1,48,-1
 165 522 l 1,49,-1
 165 313 l 1,50,-1
 309 313 l 1,51,-1
 309 358 l 2,52,53
 309 385 309 385 331 385 c 0,54,55
 351 385 351 385 351 358 c 2,56,-1
 351 227 l 2,57,58
 351 200 351 200 331 200 c 0,59,60
 309 200 309 200 309 227 c 2,61,-1
 309 272 l 1,62,-1
 165 272 l 1,0,-1
EndSplineSet
EndChar

StartChar: Gbreve
Encoding: 286 286 171
Width: 600
GlyphClass: 2
Flags: W
LayerCount: 2
Fore
SplineSet
519 209 m 1,0,-1
 519 36 l 1,1,2
 430 -16 430 -16 333 -16 c 0,3,4
 210 -16 210 -16 136.5 55 c 128,-1,5
 63 126 63 126 63 244 c 2,6,-1
 63 318 l 2,7,8
 63 372 63 372 84.5 424 c 128,-1,9
 106 476 106 476 144 511 c 0,10,11
 214 576 214 576 313 576 c 128,-1,12
 412 576 412 576 479 522 c 1,13,-1
 479 536 l 2,14,15
 479 563 479 563 500 563 c 0,16,17
 519 563 519 563 519 536 c 2,18,-1
 519 445 l 2,19,20
 519 417 519 417 500 417 c 128,-1,21
 481 417 481 417 481 443 c 0,22,23
 477 481 477 481 429.5 508 c 128,-1,24
 382 535 382 535 316 535 c 0,25,26
 231 535 231 535 176 481 c 0,27,28
 143 451 143 451 123.5 406 c 128,-1,29
 104 361 104 361 104 317 c 2,30,-1
 104 244 l 2,31,32
 104 142 104 142 166 83.5 c 128,-1,33
 228 25 228 25 336 25 c 0,34,35
 407 25 407 25 479 59 c 1,36,-1
 479 209 l 1,37,-1
 340 209 l 2,38,39
 313 209 313 209 313 231 c 0,40,41
 313 250 313 250 340 250 c 2,42,-1
 534 250 l 2,43,44
 562 250 562 250 562 231 c 0,45,46
 562 209 562 209 534 209 c 2,47,-1
 519 209 l 1,0,-1
206 769 m 0,48,49
 225 769 225 769 226 748 c 0,50,51
 228 719 228 719 258 700 c 128,-1,52
 288 681 288 681 330 681 c 128,-1,53
 372 681 372 681 401.5 700 c 128,-1,54
 431 719 431 719 434 748 c 0,55,56
 437 769 437 769 455 769 c 0,57,58
 475 769 475 769 475 748 c 0,59,60
 475 702 475 702 433 671 c 128,-1,61
 391 640 391 640 330 640 c 0,62,63
 268 640 268 640 226 671 c 128,-1,64
 184 702 184 702 184 748 c 0,65,66
 184 769 184 769 206 769 c 0,48,49
EndSplineSet
EndChar

StartChar: Idieresis
Encoding: 207 207 172
Width: 600
GlyphClass: 2
Flags: W
LayerCount: 2
Fore
SplineSet
320 522 m 1,0,-1
 320 41 l 1,1,-1
 459 41 l 2,2,3
 487 41 487 41 487 21 c 0,4,5
 487 0 487 0 459 0 c 2,6,-1
 140 0 l 2,7,8
 113 0 113 0 113 21 c 0,9,10
 113 41 113 41 140 41 c 2,11,-1
 279 41 l 1,12,-1
 279 522 l 1,13,-1
 140 522 l 2,14,15
 113 522 113 522 113 542 c 0,16,17
 113 563 113 563 140 563 c 2,18,-1
 459 563 l 2,19,20
 487 563 487 563 487 542 c 0,21,22
 487 522 487 522 459 522 c 2,23,-1
 320 522 l 1,0,-1
189 761 m 128,-1,25
 210 761 210 761 224.5 746 c 128,-1,26
 239 731 239 731 239 710 c 0,27,28
 239 690 239 690 224 675.5 c 128,-1,29
 209 661 209 661 189 661 c 0,30,31
 168 661 168 661 154 675.5 c 128,-1,32
 140 690 140 690 140 711 c 128,-1,33
 140 732 140 732 154 746.5 c 128,-1,24
 168 761 168 761 189 761 c 128,-1,25
411 761 m 128,-1,35
 432 761 432 761 446.5 746 c 128,-1,36
 461 731 461 731 461 710 c 0,37,38
 461 690 461 690 446 675.5 c 128,-1,39
 431 661 431 661 411 661 c 0,40,41
 390 661 390 661 375 676 c 128,-1,42
 360 691 360 691 360 711 c 128,-1,43
 360 731 360 731 375 746 c 128,-1,34
 390 761 390 761 411 761 c 128,-1,35
EndSplineSet
EndChar

StartChar: Iacute
Encoding: 205 205 173
Width: 600
GlyphClass: 2
Flags: W
LayerCount: 2
Fore
SplineSet
320 522 m 1,0,-1
 320 41 l 1,1,-1
 459 41 l 2,2,3
 487 41 487 41 487 21 c 0,4,5
 487 0 487 0 459 0 c 2,6,-1
 140 0 l 2,7,8
 113 0 113 0 113 21 c 0,9,10
 113 41 113 41 140 41 c 2,11,-1
 279 41 l 1,12,-1
 279 522 l 1,13,-1
 140 522 l 2,14,15
 113 522 113 522 113 542 c 0,16,17
 113 563 113 563 140 563 c 2,18,-1
 459 563 l 2,19,20
 487 563 487 563 487 542 c 0,21,22
 487 522 487 522 459 522 c 2,23,-1
 320 522 l 1,0,-1
433 749 m 2,24,-1
 319 649 l 2,25,26
 306 640 306 640 300 640 c 0,27,28
 292 640 292 640 286 646 c 128,-1,29
 280 652 280 652 280 661 c 0,30,31
 280 669 280 669 292 680 c 2,32,-1
 407 780 l 2,33,34
 419 789 419 789 425 789 c 0,35,36
 433 789 433 789 439 783 c 128,-1,37
 445 777 445 777 445 768 c 0,38,39
 445 760 445 760 433 749 c 2,24,-1
EndSplineSet
EndChar

StartChar: Igrave
Encoding: 204 204 174
Width: 600
GlyphClass: 2
Flags: W
LayerCount: 2
Fore
SplineSet
320 522 m 1,0,-1
 320 41 l 1,1,-1
 459 41 l 2,2,3
 487 41 487 41 487 21 c 0,4,5
 487 0 487 0 459 0 c 2,6,-1
 140 0 l 2,7,8
 113 0 113 0 113 21 c 0,9,10
 113 41 113 41 140 41 c 2,11,-1
 279 41 l 1,12,-1
 279 522 l 1,13,-1
 140 522 l 2,14,15
 113 522 113 522 113 542 c 0,16,17
 113 563 113 563 140 563 c 2,18,-1
 459 563 l 2,19,20
 487 563 487 563 487 542 c 0,21,22
 487 522 487 522 459 522 c 2,23,-1
 320 522 l 1,0,-1
231 780 m 2,24,-1
 343 680 l 1,25,-1
 351 672 l 2,26,27
 356 667 356 667 356 661 c 0,28,29
 356 652 356 652 350 646 c 128,-1,30
 344 640 344 640 335 640 c 0,31,32
 328 640 328 640 317 649 c 2,33,-1
 203 749 l 2,34,35
 191 760 191 760 191 769 c 0,36,37
 191 777 191 777 197 783 c 128,-1,38
 203 789 203 789 211 789 c 0,39,40
 218 789 218 789 231 780 c 2,24,-1
EndSplineSet
EndChar

StartChar: Icircumflex
Encoding: 206 206 175
Width: 600
GlyphClass: 2
Flags: W
LayerCount: 2
Fore
SplineSet
320 522 m 1,0,-1
 320 41 l 1,1,-1
 459 41 l 2,2,3
 487 41 487 41 487 21 c 0,4,5
 487 0 487 0 459 0 c 2,6,-1
 140 0 l 2,7,8
 113 0 113 0 113 21 c 0,9,10
 113 41 113 41 140 41 c 2,11,-1
 279 41 l 1,12,-1
 279 522 l 1,13,-1
 140 522 l 2,14,15
 113 522 113 522 113 542 c 0,16,17
 113 563 113 563 140 563 c 2,18,-1
 459 563 l 2,19,20
 487 563 487 563 487 542 c 0,21,22
 487 522 487 522 459 522 c 2,23,-1
 320 522 l 1,0,-1
300 789 m 1,24,-1
 432 681 l 2,25,26
 445 670 445 670 445 660 c 0,27,28
 445 652 445 652 439 646 c 128,-1,29
 433 640 433 640 425 640 c 0,30,31
 418 640 418 640 407 648 c 2,32,-1
 300 735 l 1,33,-1
 193 648 l 2,34,35
 182 640 182 640 175 640 c 0,36,37
 167 640 167 640 161 646 c 128,-1,38
 155 652 155 652 155 660 c 0,39,40
 155 672 155 672 167 680 c 2,41,-1
 300 789 l 1,24,-1
EndSplineSet
EndChar

StartChar: Idotaccent
Encoding: 304 304 176
Width: 600
GlyphClass: 2
Flags: W
LayerCount: 2
Fore
SplineSet
320 522 m 1,0,-1
 320 41 l 1,1,-1
 459 41 l 2,2,3
 487 41 487 41 487 21 c 0,4,5
 487 0 487 0 459 0 c 2,6,-1
 140 0 l 2,7,8
 113 0 113 0 113 21 c 0,9,10
 113 41 113 41 140 41 c 2,11,-1
 279 41 l 1,12,-1
 279 522 l 1,13,-1
 140 522 l 2,14,15
 113 522 113 522 113 542 c 0,16,17
 113 563 113 563 140 563 c 2,18,-1
 459 563 l 2,19,20
 487 563 487 563 487 542 c 0,21,22
 487 522 487 522 459 522 c 2,23,-1
 320 522 l 1,0,-1
300 761 m 0,24,25
 321 761 321 761 335.5 746 c 128,-1,26
 350 731 350 731 350 710 c 0,27,28
 350 691 350 691 335 676 c 128,-1,29
 320 661 320 661 300 661 c 128,-1,30
 280 661 280 661 265 676 c 128,-1,31
 250 691 250 691 250 711 c 128,-1,32
 250 731 250 731 265 746 c 128,-1,33
 280 761 280 761 300 761 c 0,24,25
EndSplineSet
EndChar

StartChar: Lacute
Encoding: 313 313 177
Width: 600
GlyphClass: 2
Flags: W
LayerCount: 2
Fore
SplineSet
227 522 m 1,0,-1
 227 41 l 1,1,-1
 500 41 l 1,2,-1
 500 201 l 2,3,4
 500 228 500 228 521 228 c 0,5,6
 541 228 541 228 541 201 c 2,7,-1
 541 0 l 1,8,-1
 90 0 l 2,9,10
 63 0 63 0 63 21 c 0,11,12
 63 41 63 41 90 41 c 2,13,-1
 186 41 l 1,14,-1
 186 522 l 1,15,-1
 90 522 l 2,16,17
 63 522 63 522 63 542 c 0,18,19
 63 563 63 563 90 563 c 2,20,-1
 323 563 l 2,21,22
 350 563 350 563 350 542 c 0,23,24
 350 522 350 522 323 522 c 2,25,-1
 227 522 l 1,0,-1
353 749 m 2,26,-1
 239 649 l 2,27,28
 229 640 229 640 220 640 c 0,29,30
 212 640 212 640 206 646 c 128,-1,31
 200 652 200 652 200 661 c 128,-1,32
 200 670 200 670 212 680 c 2,33,-1
 326 780 l 1,34,35
 340 789 340 789 345 789 c 0,36,37
 353 789 353 789 359 783 c 128,-1,38
 365 777 365 777 365 768 c 0,39,40
 365 760 365 760 353 749 c 2,26,-1
EndSplineSet
EndChar

StartChar: Lcaron
Encoding: 317 317 178
Width: 600
GlyphClass: 2
Flags: W
LayerCount: 2
Fore
SplineSet
227 522 m 1,0,-1
 227 41 l 1,1,-1
 500 41 l 1,2,-1
 500 201 l 2,3,4
 500 228 500 228 521 228 c 0,5,6
 541 228 541 228 541 201 c 2,7,-1
 541 0 l 1,8,-1
 90 0 l 2,9,10
 63 0 63 0 63 21 c 0,11,12
 63 41 63 41 90 41 c 2,13,-1
 186 41 l 1,14,-1
 186 522 l 1,15,-1
 90 522 l 2,16,17
 63 522 63 522 63 542 c 0,18,19
 63 563 63 563 90 563 c 2,20,-1
 323 563 l 2,21,22
 350 563 350 563 350 542 c 0,23,24
 350 522 350 522 323 522 c 2,25,-1
 227 522 l 1,0,-1
501 529 m 1,26,-1
 417 403 l 2,27,28
 408 390 408 390 396 390 c 0,29,30
 388 390 388 390 382 395.5 c 128,-1,31
 376 401 376 401 376 410 c 0,32,33
 376 418 376 418 383 426 c 2,34,-1
 467 552 l 2,35,36
 478 566 478 566 488 566 c 0,37,38
 508 566 508 566 508 545 c 0,39,40
 508 540 508 540 504 533 c 2,41,-1
 501 529 l 1,26,-1
EndSplineSet
EndChar

StartChar: Nacute
Encoding: 323 323 179
Width: 600
GlyphClass: 2
Flags: W
LayerCount: 2
Fore
SplineSet
501 0 m 1,0,-1
 449 0 l 1,1,-1
 144 504 l 1,2,-1
 144 41 l 1,3,-1
 218 41 l 2,4,5
 246 41 246 41 246 21 c 0,6,7
 246 0 246 0 218 0 c 2,8,-1
 69 0 l 2,9,10
 42 0 42 0 42 21 c 0,11,12
 42 41 42 41 69 41 c 2,13,-1
 103 41 l 1,14,-1
 103 522 l 1,15,-1
 49 522 l 2,16,17
 22 522 22 522 22 542 c 0,18,19
 22 563 22 563 49 563 c 2,20,-1
 155 563 l 1,21,-1
 460 59 l 1,22,-1
 460 522 l 1,23,-1
 386 522 l 2,24,25
 358 522 358 522 358 542 c 0,26,27
 358 563 358 563 386 563 c 2,28,-1
 535 563 l 2,29,30
 562 563 562 563 562 542 c 0,31,32
 562 522 562 522 535 522 c 2,33,-1
 501 522 l 1,34,-1
 501 0 l 1,0,-1
433 749 m 2,35,-1
 319 649 l 2,36,37
 306 640 306 640 300 640 c 0,38,39
 292 640 292 640 286 646 c 128,-1,40
 280 652 280 652 280 661 c 0,41,42
 280 669 280 669 292 680 c 2,43,-1
 407 780 l 2,44,45
 419 789 419 789 425 789 c 0,46,47
 433 789 433 789 439 783 c 128,-1,48
 445 777 445 777 445 768 c 0,49,50
 445 760 445 760 433 749 c 2,35,-1
EndSplineSet
EndChar

StartChar: Ncaron
Encoding: 327 327 180
Width: 600
GlyphClass: 2
Flags: W
LayerCount: 2
Fore
SplineSet
501 0 m 1,0,-1
 449 0 l 1,1,-1
 144 504 l 1,2,-1
 144 41 l 1,3,-1
 218 41 l 2,4,5
 246 41 246 41 246 21 c 0,6,7
 246 0 246 0 218 0 c 2,8,-1
 69 0 l 2,9,10
 42 0 42 0 42 21 c 0,11,12
 42 41 42 41 69 41 c 2,13,-1
 103 41 l 1,14,-1
 103 522 l 1,15,-1
 49 522 l 2,16,17
 22 522 22 522 22 542 c 0,18,19
 22 563 22 563 49 563 c 2,20,-1
 155 563 l 1,21,-1
 460 59 l 1,22,-1
 460 522 l 1,23,-1
 386 522 l 2,24,25
 358 522 358 522 358 542 c 0,26,27
 358 563 358 563 386 563 c 2,28,-1
 535 563 l 2,29,30
 562 563 562 563 562 542 c 0,31,32
 562 522 562 522 535 522 c 2,33,-1
 501 522 l 1,34,-1
 501 0 l 1,0,-1
300 640 m 1,35,-1
 167 749 l 2,36,37
 155 758 155 758 155 769 c 0,38,39
 155 777 155 777 161 783 c 128,-1,40
 167 789 167 789 175 789 c 0,41,42
 181 789 181 789 193 782 c 1,43,-1
 300 693 l 1,44,-1
 407 782 l 1,45,46
 419 789 419 789 425 789 c 0,47,48
 432 789 432 789 438.5 782.5 c 128,-1,49
 445 776 445 776 445 769 c 0,50,51
 445 759 445 759 432 748 c 2,52,-1
 300 640 l 1,35,-1
EndSplineSet
EndChar

StartChar: Ntilde
Encoding: 209 209 181
Width: 600
GlyphClass: 2
Flags: W
LayerCount: 2
Fore
SplineSet
501 0 m 1,0,-1
 449 0 l 1,1,-1
 144 504 l 1,2,-1
 144 41 l 1,3,-1
 218 41 l 2,4,5
 246 41 246 41 246 21 c 0,6,7
 246 0 246 0 218 0 c 2,8,-1
 69 0 l 2,9,10
 42 0 42 0 42 21 c 0,11,12
 42 41 42 41 69 41 c 2,13,-1
 103 41 l 1,14,-1
 103 522 l 1,15,-1
 49 522 l 2,16,17
 22 522 22 522 22 542 c 0,18,19
 22 563 22 563 49 563 c 2,20,-1
 155 563 l 1,21,-1
 460 59 l 1,22,-1
 460 522 l 1,23,-1
 386 522 l 2,24,25
 358 522 358 522 358 542 c 0,26,27
 358 563 358 563 386 563 c 2,28,-1
 535 563 l 2,29,30
 562 563 562 563 562 542 c 0,31,32
 562 522 562 522 535 522 c 2,33,-1
 501 522 l 1,34,-1
 501 0 l 1,0,-1
433 752 m 128,-1,36
 441 752 441 752 447 746.5 c 128,-1,37
 453 741 453 741 453 733 c 0,38,39
 453 722 453 722 431 701 c 0,40,41
 395 666 395 666 362 666 c 0,42,43
 336 666 336 666 282 697 c 0,44,45
 255 714 255 714 238 714 c 0,46,47
 223 714 223 714 212.5 707 c 128,-1,48
 202 700 202 700 180 677 c 0,49,50
 174 669 174 669 163 669 c 0,51,52
 155 669 155 669 149 674.5 c 128,-1,53
 143 680 143 680 143 688 c 0,54,55
 143 698 143 698 161 718 c 0,56,57
 202 755 202 755 237 755 c 0,58,59
 262 755 262 755 301 732 c 0,60,61
 344 708 344 708 360 708 c 0,62,63
 373 708 373 708 384 715 c 128,-1,64
 395 722 395 722 417 745 c 0,65,35
 425 752 425 752 433 752 c 128,-1,36
EndSplineSet
EndChar

StartChar: Oacute
Encoding: 211 211 183
Width: 600
GlyphClass: 2
Flags: W
LayerCount: 2
Fore
SplineSet
300 576 m 0,0,1
 406 576 406 576 477.5 490 c 128,-1,2
 549 404 549 404 549 275 c 0,3,4
 549 155 549 155 476 69.5 c 128,-1,5
 403 -16 403 -16 300 -16 c 0,6,7
 196 -16 196 -16 123.5 70 c 128,-1,8
 51 156 51 156 51 280 c 128,-1,9
 51 404 51 404 123.5 490 c 128,-1,10
 196 576 196 576 300 576 c 0,0,1
300 535 m 128,-1,12
 213 535 213 535 152.5 460 c 128,-1,13
 92 385 92 385 92 280 c 128,-1,14
 92 175 92 175 153 100 c 128,-1,15
 214 25 214 25 300 25 c 0,16,17
 385 25 385 25 446.5 99.5 c 128,-1,18
 508 174 508 174 508 277 c 0,19,20
 508 385 508 385 447.5 460 c 128,-1,11
 387 535 387 535 300 535 c 128,-1,12
404 749 m 2,21,-1
 290 649 l 2,22,23
 280 640 280 640 271 640 c 0,24,25
 263 640 263 640 257 646 c 128,-1,26
 251 652 251 652 251 661 c 128,-1,27
 251 670 251 670 263 680 c 2,28,-1
 377 780 l 1,29,30
 391 789 391 789 396 789 c 0,31,32
 404 789 404 789 410 783 c 128,-1,33
 416 777 416 777 416 768 c 0,34,35
 416 760 416 760 404 749 c 2,21,-1
EndSplineSet
EndChar

StartChar: Ograve
Encoding: 210 210 184
Width: 600
GlyphClass: 2
Flags: W
LayerCount: 2
Fore
SplineSet
300 576 m 0,0,1
 406 576 406 576 477.5 490 c 128,-1,2
 549 404 549 404 549 275 c 0,3,4
 549 155 549 155 476 69.5 c 128,-1,5
 403 -16 403 -16 300 -16 c 0,6,7
 196 -16 196 -16 123.5 70 c 128,-1,8
 51 156 51 156 51 280 c 128,-1,9
 51 404 51 404 123.5 490 c 128,-1,10
 196 576 196 576 300 576 c 0,0,1
300 535 m 128,-1,12
 213 535 213 535 152.5 460 c 128,-1,13
 92 385 92 385 92 280 c 128,-1,14
 92 175 92 175 153 100 c 128,-1,15
 214 25 214 25 300 25 c 0,16,17
 385 25 385 25 446.5 99.5 c 128,-1,18
 508 174 508 174 508 277 c 0,19,20
 508 385 508 385 447.5 460 c 128,-1,11
 387 535 387 535 300 535 c 128,-1,12
225 780 m 2,21,-1
 339 680 l 1,22,-1
 345 672 l 1,23,24
 350 667 350 667 350 661 c 0,25,26
 350 652 350 652 344 646 c 128,-1,27
 338 640 338 640 329 640 c 0,28,29
 322 640 322 640 311 649 c 2,30,-1
 197 749 l 2,31,32
 184 761 184 761 184 769 c 128,-1,33
 184 777 184 777 190.5 783 c 128,-1,34
 197 789 197 789 205 789 c 0,35,36
 212 789 212 789 225 780 c 2,21,-1
EndSplineSet
EndChar

StartChar: Ocircumflex
Encoding: 212 212 185
Width: 600
GlyphClass: 2
Flags: W
LayerCount: 2
Fore
SplineSet
300 576 m 0,0,1
 406 576 406 576 477.5 490 c 128,-1,2
 549 404 549 404 549 275 c 0,3,4
 549 155 549 155 476 69.5 c 128,-1,5
 403 -16 403 -16 300 -16 c 0,6,7
 196 -16 196 -16 123.5 70 c 128,-1,8
 51 156 51 156 51 280 c 128,-1,9
 51 404 51 404 123.5 490 c 128,-1,10
 196 576 196 576 300 576 c 0,0,1
300 535 m 128,-1,12
 213 535 213 535 152.5 460 c 128,-1,13
 92 385 92 385 92 280 c 128,-1,14
 92 175 92 175 153 100 c 128,-1,15
 214 25 214 25 300 25 c 0,16,17
 385 25 385 25 446.5 99.5 c 128,-1,18
 508 174 508 174 508 277 c 0,19,20
 508 385 508 385 447.5 460 c 128,-1,11
 387 535 387 535 300 535 c 128,-1,12
300 789 m 1,21,-1
 432 681 l 2,22,23
 445 670 445 670 445 660 c 0,24,25
 445 652 445 652 439 646 c 128,-1,26
 433 640 433 640 425 640 c 0,27,28
 418 640 418 640 407 648 c 2,29,-1
 300 735 l 1,30,-1
 193 648 l 2,31,32
 182 640 182 640 175 640 c 0,33,34
 167 640 167 640 161 646 c 128,-1,35
 155 652 155 652 155 660 c 0,36,37
 155 672 155 672 167 680 c 2,38,-1
 300 789 l 1,21,-1
EndSplineSet
EndChar

StartChar: Otilde
Encoding: 213 213 186
Width: 600
GlyphClass: 2
Flags: W
LayerCount: 2
Fore
SplineSet
300 576 m 0,0,1
 406 576 406 576 477.5 490 c 128,-1,2
 549 404 549 404 549 275 c 0,3,4
 549 155 549 155 476 69.5 c 128,-1,5
 403 -16 403 -16 300 -16 c 0,6,7
 196 -16 196 -16 123.5 70 c 128,-1,8
 51 156 51 156 51 280 c 128,-1,9
 51 404 51 404 123.5 490 c 128,-1,10
 196 576 196 576 300 576 c 0,0,1
300 535 m 128,-1,12
 213 535 213 535 152.5 460 c 128,-1,13
 92 385 92 385 92 280 c 128,-1,14
 92 175 92 175 153 100 c 128,-1,15
 214 25 214 25 300 25 c 0,16,17
 385 25 385 25 446.5 99.5 c 128,-1,18
 508 174 508 174 508 277 c 0,19,20
 508 385 508 385 447.5 460 c 128,-1,11
 387 535 387 535 300 535 c 128,-1,12
441 752 m 0,21,22
 449 752 449 752 455 746.5 c 128,-1,23
 461 741 461 741 461 733 c 0,24,25
 461 721 461 721 439 701 c 0,26,27
 403 666 403 666 370 666 c 0,28,29
 343 666 343 666 289 697 c 0,30,31
 263 714 263 714 246 714 c 0,32,33
 231 714 231 714 220.5 707 c 128,-1,34
 210 700 210 700 188 677 c 0,35,36
 182 669 182 669 171 669 c 0,37,38
 163 669 163 669 156.5 674.5 c 128,-1,39
 150 680 150 680 150 688 c 0,40,41
 150 698 150 698 170 718 c 0,42,43
 210 755 210 755 245 755 c 0,44,45
 270 755 270 755 309 732 c 0,46,47
 352 708 352 708 368 708 c 0,48,49
 381 708 381 708 391.5 715 c 128,-1,50
 402 722 402 722 425 745 c 0,51,52
 432 752 432 752 441 752 c 0,21,22
EndSplineSet
EndChar

StartChar: Racute
Encoding: 340 340 188
Width: 600
GlyphClass: 2
Flags: W
LayerCount: 2
Fore
SplineSet
165 251 m 1,0,-1
 165 41 l 1,1,-1
 240 41 l 2,2,3
 267 41 267 41 267 21 c 0,4,5
 267 0 267 0 240 0 c 2,6,-1
 70 0 l 2,7,8
 42 0 42 0 42 21 c 0,9,10
 42 41 42 41 70 41 c 2,11,-1
 124 41 l 1,12,-1
 124 522 l 1,13,-1
 70 522 l 2,14,15
 42 522 42 522 42 542 c 0,16,17
 42 563 42 563 70 563 c 2,18,-1
 318 563 l 2,19,20
 391 563 391 563 444.5 517 c 128,-1,21
 498 471 498 471 498 407 c 0,22,23
 498 310 498 310 359 262 c 1,24,25
 406 229 406 229 438 188 c 128,-1,26
 470 147 470 147 532 41 c 1,27,-1
 562 41 l 2,28,29
 589 41 589 41 589 21 c 0,30,31
 589 0 589 0 562 0 c 2,32,-1
 505 0 l 1,33,34
 438 122 438 122 395.5 173.5 c 128,-1,35
 353 225 353 225 297 251 c 1,36,-1
 165 251 l 1,0,-1
165 292 m 1,37,-1
 279 292 l 2,38,39
 353 292 353 292 405.5 326 c 128,-1,40
 458 360 458 360 458 408 c 0,41,42
 458 453 458 453 415 487.5 c 128,-1,43
 372 522 372 522 318 522 c 2,44,-1
 165 522 l 1,45,-1
 165 292 l 1,37,-1
433 749 m 2,46,-1
 319 649 l 2,47,48
 306 640 306 640 300 640 c 0,49,50
 292 640 292 640 286 646 c 128,-1,51
 280 652 280 652 280 661 c 0,52,53
 280 669 280 669 292 680 c 2,54,-1
 407 780 l 2,55,56
 419 789 419 789 425 789 c 0,57,58
 433 789 433 789 439 783 c 128,-1,59
 445 777 445 777 445 768 c 0,60,61
 445 760 445 760 433 749 c 2,46,-1
EndSplineSet
EndChar

StartChar: Rcaron
Encoding: 344 344 189
Width: 600
GlyphClass: 2
Flags: W
LayerCount: 2
Fore
SplineSet
165 251 m 1,0,-1
 165 41 l 1,1,-1
 240 41 l 2,2,3
 267 41 267 41 267 21 c 0,4,5
 267 0 267 0 240 0 c 2,6,-1
 70 0 l 2,7,8
 42 0 42 0 42 21 c 0,9,10
 42 41 42 41 70 41 c 2,11,-1
 124 41 l 1,12,-1
 124 522 l 1,13,-1
 70 522 l 2,14,15
 42 522 42 522 42 542 c 0,16,17
 42 563 42 563 70 563 c 2,18,-1
 318 563 l 2,19,20
 391 563 391 563 444.5 517 c 128,-1,21
 498 471 498 471 498 407 c 0,22,23
 498 310 498 310 359 262 c 1,24,25
 406 229 406 229 438 188 c 128,-1,26
 470 147 470 147 532 41 c 1,27,-1
 562 41 l 2,28,29
 589 41 589 41 589 21 c 0,30,31
 589 0 589 0 562 0 c 2,32,-1
 505 0 l 1,33,34
 438 122 438 122 395.5 173.5 c 128,-1,35
 353 225 353 225 297 251 c 1,36,-1
 165 251 l 1,0,-1
165 292 m 1,37,-1
 279 292 l 2,38,39
 353 292 353 292 405.5 326 c 128,-1,40
 458 360 458 360 458 408 c 0,41,42
 458 453 458 453 415 487.5 c 128,-1,43
 372 522 372 522 318 522 c 2,44,-1
 165 522 l 1,45,-1
 165 292 l 1,37,-1
300 640 m 1,46,-1
 167 749 l 2,47,48
 155 758 155 758 155 769 c 0,49,50
 155 777 155 777 161 783 c 128,-1,51
 167 789 167 789 175 789 c 0,52,53
 181 789 181 789 193 782 c 1,54,-1
 300 693 l 1,55,-1
 407 782 l 1,56,57
 419 789 419 789 425 789 c 0,58,59
 432 789 432 789 438.5 782.5 c 128,-1,60
 445 776 445 776 445 769 c 0,61,62
 445 759 445 759 432 748 c 2,63,-1
 300 640 l 1,46,-1
EndSplineSet
EndChar

StartChar: Sacute
Encoding: 346 346 190
Width: 600
GlyphClass: 2
Flags: W
LayerCount: 2
Fore
SplineSet
445 517 m 1,0,-1
 445 536 l 2,1,2
 445 563 445 563 466 563 c 0,3,4
 485 563 485 563 485 536 c 2,5,-1
 485 433 l 2,6,7
 485 407 485 407 466 407 c 0,8,9
 448 407 448 407 445 430 c 0,10,11
 442 475 442 475 401 505 c 128,-1,12
 360 535 360 535 302 535 c 0,13,14
 241 535 241 535 200 502 c 128,-1,15
 159 469 159 469 159 420 c 128,-1,16
 159 371 159 371 198 343 c 0,17,18
 232 322 232 322 311 309 c 0,19,20
 409 293 409 293 447 269 c 0,21,22
 508 230 508 230 508 150 c 0,23,24
 508 77 508 77 450 30.5 c 128,-1,25
 392 -16 392 -16 302 -16 c 0,26,27
 194 -16 194 -16 133 56 c 1,28,-1
 133 27 l 2,29,30
 133 0 133 0 112 0 c 0,31,32
 92 0 92 0 92 27 c 2,33,-1
 92 140 l 2,34,35
 92 166 92 166 113 166 c 0,36,37
 132 166 132 166 133 142 c 0,38,39
 135 93 135 93 184 59 c 128,-1,40
 233 25 233 25 301 25 c 0,41,42
 371 25 371 25 417.5 61.5 c 128,-1,43
 464 98 464 98 464 153 c 0,44,45
 464 210 464 210 419 237 c 0,46,47
 388 255 388 255 303 271 c 0,48,49
 207 287 207 287 167 317 c 0,50,51
 115 352 115 352 115 421 c 0,52,53
 115 487 115 487 168 531.5 c 128,-1,54
 221 576 221 576 299 576 c 0,55,56
 385 576 385 576 445 517 c 1,0,-1
433 749 m 2,57,-1
 319 649 l 2,58,59
 306 640 306 640 300 640 c 0,60,61
 292 640 292 640 286 646 c 128,-1,62
 280 652 280 652 280 661 c 0,63,64
 280 669 280 669 292 680 c 2,65,-1
 407 780 l 2,66,67
 419 789 419 789 425 789 c 0,68,69
 433 789 433 789 439 783 c 128,-1,70
 445 777 445 777 445 768 c 0,71,72
 445 760 445 760 433 749 c 2,57,-1
EndSplineSet
EndChar

StartChar: Scaron
Encoding: 352 352 191
Width: 600
GlyphClass: 2
Flags: W
LayerCount: 2
Fore
SplineSet
445 517 m 1,0,-1
 445 536 l 2,1,2
 445 563 445 563 466 563 c 0,3,4
 485 563 485 563 485 536 c 2,5,-1
 485 433 l 2,6,7
 485 407 485 407 466 407 c 0,8,9
 448 407 448 407 445 430 c 0,10,11
 442 475 442 475 401 505 c 128,-1,12
 360 535 360 535 302 535 c 0,13,14
 241 535 241 535 200 502 c 128,-1,15
 159 469 159 469 159 420 c 128,-1,16
 159 371 159 371 198 343 c 0,17,18
 232 322 232 322 311 309 c 0,19,20
 409 293 409 293 447 269 c 0,21,22
 508 230 508 230 508 150 c 0,23,24
 508 77 508 77 450 30.5 c 128,-1,25
 392 -16 392 -16 302 -16 c 0,26,27
 194 -16 194 -16 133 56 c 1,28,-1
 133 27 l 2,29,30
 133 0 133 0 112 0 c 0,31,32
 92 0 92 0 92 27 c 2,33,-1
 92 140 l 2,34,35
 92 166 92 166 113 166 c 0,36,37
 132 166 132 166 133 142 c 0,38,39
 135 93 135 93 184 59 c 128,-1,40
 233 25 233 25 301 25 c 0,41,42
 371 25 371 25 417.5 61.5 c 128,-1,43
 464 98 464 98 464 153 c 0,44,45
 464 210 464 210 419 237 c 0,46,47
 388 255 388 255 303 271 c 0,48,49
 207 287 207 287 167 317 c 0,50,51
 115 352 115 352 115 421 c 0,52,53
 115 487 115 487 168 531.5 c 128,-1,54
 221 576 221 576 299 576 c 0,55,56
 385 576 385 576 445 517 c 1,0,-1
309 640 m 1,57,-1
 178 749 l 1,58,59
 165 757 165 757 165 769 c 0,60,61
 165 777 165 777 170.5 783 c 128,-1,62
 176 789 176 789 184 789 c 0,63,64
 193 789 193 789 203 782 c 2,65,-1
 309 693 l 1,66,-1
 417 782 l 1,67,68
 429 789 429 789 434 789 c 0,69,70
 442 789 442 789 448.5 783 c 128,-1,71
 455 777 455 777 455 769 c 0,72,73
 455 759 455 759 442 748 c 2,74,-1
 309 640 l 1,57,-1
EndSplineSet
EndChar

StartChar: Scedilla
Encoding: 350 350 192
Width: 600
GlyphClass: 2
Flags: W
LayerCount: 2
Fore
SplineSet
312 -16 m 1,0,-1
 312 -47 l 1,1,2
 377 -50 377 -50 377 -108 c 0,3,4
 377 -137 377 -137 355.5 -155.5 c 128,-1,5
 334 -174 334 -174 299 -174 c 0,6,7
 266 -174 266 -174 228 -155 c 0,8,9
 210 -146 210 -146 210 -133 c 0,10,11
 210 -125 210 -125 216 -119.5 c 128,-1,12
 222 -114 222 -114 231 -114 c 0,13,14
 235 -114 235 -114 245 -119 c 0,15,16
 276 -135 276 -135 297 -135 c 0,17,18
 316 -135 316 -135 328.5 -127 c 128,-1,19
 341 -119 341 -119 341 -106 c 0,20,21
 341 -81 341 -81 294 -81 c 2,22,-1
 274 -81 l 1,23,-1
 274 -15 l 1,24,25
 182 -4 182 -4 133 56 c 1,26,-1
 133 27 l 2,27,28
 133 0 133 0 112 0 c 0,29,30
 92 0 92 0 92 27 c 2,31,-1
 92 140 l 2,32,33
 92 166 92 166 113 166 c 0,34,35
 132 166 132 166 133 142 c 0,36,37
 135 93 135 93 184 59 c 128,-1,38
 233 25 233 25 301 25 c 0,39,40
 371 25 371 25 417.5 61.5 c 128,-1,41
 464 98 464 98 464 153 c 0,42,43
 464 210 464 210 419 237 c 0,44,45
 388 255 388 255 303 271 c 0,46,47
 207 287 207 287 167 317 c 0,48,49
 115 352 115 352 115 421 c 0,50,51
 115 487 115 487 168 531.5 c 128,-1,52
 221 576 221 576 299 576 c 0,53,54
 385 576 385 576 445 517 c 1,55,-1
 445 536 l 2,56,57
 445 563 445 563 466 563 c 0,58,59
 485 563 485 563 485 536 c 2,60,-1
 485 433 l 2,61,62
 485 407 485 407 466 407 c 0,63,64
 448 407 448 407 445 430 c 0,65,66
 442 475 442 475 401 505 c 128,-1,67
 360 535 360 535 302 535 c 0,68,69
 241 535 241 535 200 502 c 128,-1,70
 159 469 159 469 159 420 c 128,-1,71
 159 371 159 371 198 343 c 0,72,73
 232 322 232 322 312 309 c 0,74,75
 409 292 409 292 447 269 c 0,76,77
 508 230 508 230 508 150 c 0,78,79
 508 80 508 80 453.5 34.5 c 128,-1,80
 399 -11 399 -11 312 -16 c 1,0,-1
EndSplineSet
EndChar

StartChar: Tcaron
Encoding: 356 356 193
Width: 600
GlyphClass: 2
Flags: W
LayerCount: 2
Fore
SplineSet
322 41 m 1,0,-1
 426 41 l 2,1,2
 453 41 453 41 453 21 c 0,3,4
 453 0 453 0 426 0 c 2,5,-1
 175 0 l 2,6,7
 148 0 148 0 148 21 c 0,8,9
 148 41 148 41 175 41 c 2,10,-1
 280 41 l 1,11,-1
 280 522 l 1,12,-1
 113 522 l 1,13,-1
 113 449 l 2,14,15
 113 422 113 422 92 422 c 0,16,17
 72 422 72 422 72 449 c 2,18,-1
 72 563 l 1,19,-1
 528 563 l 1,20,-1
 528 449 l 2,21,22
 528 422 528 422 508 422 c 0,23,24
 499 422 499 422 493 429.5 c 128,-1,25
 487 437 487 437 487 449 c 2,26,-1
 487 522 l 1,27,-1
 322 522 l 1,28,-1
 322 41 l 1,0,-1
300 640 m 1,29,-1
 167 749 l 2,30,31
 155 758 155 758 155 769 c 0,32,33
 155 777 155 777 161 783 c 128,-1,34
 167 789 167 789 175 789 c 0,35,36
 181 789 181 789 193 782 c 1,37,-1
 300 693 l 1,38,-1
 407 782 l 1,39,40
 419 789 419 789 425 789 c 0,41,42
 432 789 432 789 438.5 782.5 c 128,-1,43
 445 776 445 776 445 769 c 0,44,45
 445 759 445 759 432 748 c 2,46,-1
 300 640 l 1,29,-1
EndSplineSet
EndChar

StartChar: Udieresis
Encoding: 220 220 194
Width: 600
GlyphClass: 2
Flags: W
LayerCount: 2
Fore
SplineSet
499 522 m 1,0,-1
 499 184 l 2,1,2
 499 100 499 100 441 42 c 128,-1,3
 383 -16 383 -16 300 -16 c 0,4,5
 216 -16 216 -16 158.5 42 c 128,-1,6
 101 100 101 100 101 184 c 2,7,-1
 101 522 l 1,8,-1
 67 522 l 2,9,10
 40 522 40 522 40 542 c 0,11,12
 40 563 40 563 67 563 c 2,13,-1
 216 563 l 2,14,15
 243 563 243 563 243 542 c 0,16,17
 243 522 243 522 216 522 c 2,18,-1
 142 522 l 1,19,-1
 142 184 l 2,20,21
 142 117 142 117 187.5 71 c 128,-1,22
 233 25 233 25 300 25 c 0,23,24
 366 25 366 25 412 71 c 128,-1,25
 458 117 458 117 458 184 c 2,26,-1
 458 522 l 1,27,-1
 383 522 l 2,28,29
 357 522 357 522 357 542 c 0,30,31
 357 563 357 563 383 563 c 2,32,-1
 533 563 l 2,33,34
 559 563 559 563 559 542 c 0,35,36
 559 522 559 522 533 522 c 2,37,-1
 499 522 l 1,0,-1
189 761 m 128,-1,39
 210 761 210 761 224.5 746 c 128,-1,40
 239 731 239 731 239 710 c 0,41,42
 239 690 239 690 224 675.5 c 128,-1,43
 209 661 209 661 189 661 c 0,44,45
 168 661 168 661 154 675.5 c 128,-1,46
 140 690 140 690 140 711 c 128,-1,47
 140 732 140 732 154 746.5 c 128,-1,38
 168 761 168 761 189 761 c 128,-1,39
410 761 m 0,48,49
 431 761 431 761 445.5 746 c 128,-1,50
 460 731 460 731 460 710 c 0,51,52
 460 690 460 690 445 675.5 c 128,-1,53
 430 661 430 661 410 661 c 128,-1,54
 390 661 390 661 375 676 c 128,-1,55
 360 691 360 691 360 711 c 128,-1,56
 360 731 360 731 375 746 c 128,-1,57
 390 761 390 761 410 761 c 0,48,49
EndSplineSet
EndChar

StartChar: Uacute
Encoding: 218 218 195
Width: 600
GlyphClass: 2
Flags: W
LayerCount: 2
Fore
SplineSet
499 522 m 1,0,-1
 499 184 l 2,1,2
 499 100 499 100 441 42 c 128,-1,3
 383 -16 383 -16 300 -16 c 0,4,5
 216 -16 216 -16 158.5 42 c 128,-1,6
 101 100 101 100 101 184 c 2,7,-1
 101 522 l 1,8,-1
 67 522 l 2,9,10
 40 522 40 522 40 542 c 0,11,12
 40 563 40 563 67 563 c 2,13,-1
 216 563 l 2,14,15
 243 563 243 563 243 542 c 0,16,17
 243 522 243 522 216 522 c 2,18,-1
 142 522 l 1,19,-1
 142 184 l 2,20,21
 142 117 142 117 187.5 71 c 128,-1,22
 233 25 233 25 300 25 c 0,23,24
 366 25 366 25 412 71 c 128,-1,25
 458 117 458 117 458 184 c 2,26,-1
 458 522 l 1,27,-1
 383 522 l 2,28,29
 357 522 357 522 357 542 c 0,30,31
 357 563 357 563 383 563 c 2,32,-1
 533 563 l 2,33,34
 559 563 559 563 559 542 c 0,35,36
 559 522 559 522 533 522 c 2,37,-1
 499 522 l 1,0,-1
400 749 m 2,38,-1
 286 649 l 2,39,40
 276 640 276 640 268 640 c 128,-1,41
 260 640 260 640 254 646 c 128,-1,42
 248 652 248 652 248 661 c 0,43,44
 248 669 248 669 260 680 c 2,45,-1
 374 780 l 1,46,47
 388 789 388 789 393 789 c 0,48,49
 401 789 401 789 407 783 c 128,-1,50
 413 777 413 777 413 768 c 128,-1,51
 413 759 413 759 400 749 c 2,38,-1
EndSplineSet
EndChar

StartChar: Ugrave
Encoding: 217 217 196
Width: 600
GlyphClass: 2
Flags: W
LayerCount: 2
Fore
SplineSet
499 522 m 1,0,-1
 499 184 l 2,1,2
 499 100 499 100 441 42 c 128,-1,3
 383 -16 383 -16 300 -16 c 0,4,5
 216 -16 216 -16 158.5 42 c 128,-1,6
 101 100 101 100 101 184 c 2,7,-1
 101 522 l 1,8,-1
 67 522 l 2,9,10
 40 522 40 522 40 542 c 0,11,12
 40 563 40 563 67 563 c 2,13,-1
 216 563 l 2,14,15
 243 563 243 563 243 542 c 0,16,17
 243 522 243 522 216 522 c 2,18,-1
 142 522 l 1,19,-1
 142 184 l 2,20,21
 142 117 142 117 187.5 71 c 128,-1,22
 233 25 233 25 300 25 c 0,23,24
 366 25 366 25 412 71 c 128,-1,25
 458 117 458 117 458 184 c 2,26,-1
 458 522 l 1,27,-1
 383 522 l 2,28,29
 357 522 357 522 357 542 c 0,30,31
 357 563 357 563 383 563 c 2,32,-1
 533 563 l 2,33,34
 559 563 559 563 559 542 c 0,35,36
 559 522 559 522 533 522 c 2,37,-1
 499 522 l 1,0,-1
227 780 m 2,38,-1
 341 680 l 1,39,-1
 348 672 l 2,40,41
 353 667 353 667 353 661 c 0,42,43
 353 652 353 652 347 646 c 128,-1,44
 341 640 341 640 333 640 c 0,45,46
 326 640 326 640 314 649 c 2,47,-1
 200 749 l 2,48,49
 188 760 188 760 188 769 c 0,50,51
 188 777 188 777 194 783 c 128,-1,52
 200 789 200 789 208 789 c 0,53,54
 214 789 214 789 227 780 c 2,38,-1
EndSplineSet
EndChar

StartChar: Ucircumflex
Encoding: 219 219 197
Width: 600
GlyphClass: 2
Flags: W
LayerCount: 2
Fore
SplineSet
499 522 m 1,0,-1
 499 184 l 2,1,2
 499 100 499 100 441 42 c 128,-1,3
 383 -16 383 -16 300 -16 c 0,4,5
 216 -16 216 -16 158.5 42 c 128,-1,6
 101 100 101 100 101 184 c 2,7,-1
 101 522 l 1,8,-1
 67 522 l 2,9,10
 40 522 40 522 40 542 c 0,11,12
 40 563 40 563 67 563 c 2,13,-1
 216 563 l 2,14,15
 243 563 243 563 243 542 c 0,16,17
 243 522 243 522 216 522 c 2,18,-1
 142 522 l 1,19,-1
 142 184 l 2,20,21
 142 117 142 117 187.5 71 c 128,-1,22
 233 25 233 25 300 25 c 0,23,24
 366 25 366 25 412 71 c 128,-1,25
 458 117 458 117 458 184 c 2,26,-1
 458 522 l 1,27,-1
 383 522 l 2,28,29
 357 522 357 522 357 542 c 0,30,31
 357 563 357 563 383 563 c 2,32,-1
 533 563 l 2,33,34
 559 563 559 563 559 542 c 0,35,36
 559 522 559 522 533 522 c 2,37,-1
 499 522 l 1,0,-1
300 789 m 1,38,-1
 432 681 l 2,39,40
 445 670 445 670 445 660 c 0,41,42
 445 652 445 652 439 646 c 128,-1,43
 433 640 433 640 425 640 c 0,44,45
 418 640 418 640 407 648 c 2,46,-1
 300 735 l 1,47,-1
 193 648 l 2,48,49
 182 640 182 640 175 640 c 0,50,51
 167 640 167 640 161 646 c 128,-1,52
 155 652 155 652 155 660 c 0,53,54
 155 672 155 672 167 680 c 2,55,-1
 300 789 l 1,38,-1
EndSplineSet
EndChar

StartChar: Uring
Encoding: 366 366 198
Width: 600
GlyphClass: 2
Flags: W
LayerCount: 2
Fore
SplineSet
499 522 m 1,0,-1
 499 184 l 2,1,2
 499 100 499 100 441 42 c 128,-1,3
 383 -16 383 -16 300 -16 c 0,4,5
 216 -16 216 -16 158.5 42 c 128,-1,6
 101 100 101 100 101 184 c 2,7,-1
 101 522 l 1,8,-1
 67 522 l 2,9,10
 40 522 40 522 40 542 c 0,11,12
 40 563 40 563 67 563 c 2,13,-1
 216 563 l 2,14,15
 243 563 243 563 243 542 c 0,16,17
 243 522 243 522 216 522 c 2,18,-1
 142 522 l 1,19,-1
 142 184 l 2,20,21
 142 117 142 117 187.5 71 c 128,-1,22
 233 25 233 25 300 25 c 0,23,24
 366 25 366 25 412 71 c 128,-1,25
 458 117 458 117 458 184 c 2,26,-1
 458 522 l 1,27,-1
 383 522 l 2,28,29
 357 522 357 522 357 542 c 0,30,31
 357 563 357 563 383 563 c 2,32,-1
 533 563 l 2,33,34
 559 563 559 563 559 542 c 0,35,36
 559 522 559 522 533 522 c 2,37,-1
 499 522 l 1,0,-1
300 811 m 0,38,39
 339 811 339 811 366 784.5 c 128,-1,40
 393 758 393 758 393 718 c 0,41,42
 393 683 393 683 365.5 656.5 c 128,-1,43
 338 630 338 630 300 630 c 128,-1,44
 262 630 262 630 235 656.5 c 128,-1,45
 208 683 208 683 208 721 c 0,46,47
 208 757 208 757 235 784 c 128,-1,48
 262 811 262 811 300 811 c 0,38,39
300 778 m 128,-1,50
 275 778 275 778 257.5 761 c 128,-1,51
 240 744 240 744 240 721 c 0,52,53
 240 697 240 697 257.5 680 c 128,-1,54
 275 663 275 663 300 663 c 128,-1,55
 325 663 325 663 342.5 680 c 128,-1,56
 360 697 360 697 360 720 c 0,57,58
 360 744 360 744 342.5 761 c 128,-1,49
 325 778 325 778 300 778 c 128,-1,50
EndSplineSet
EndChar

StartChar: Yacute
Encoding: 221 221 200
Width: 600
GlyphClass: 2
Flags: W
LayerCount: 2
Fore
SplineSet
322 254 m 1,0,-1
 322 41 l 1,1,-1
 427 41 l 2,2,3
 454 41 454 41 454 21 c 0,4,5
 454 0 454 0 427 0 c 2,6,-1
 176 0 l 2,7,8
 149 0 149 0 149 21 c 0,9,10
 149 41 149 41 176 41 c 2,11,-1
 282 41 l 1,12,-1
 282 254 l 1,13,-1
 102 522 l 1,14,-1
 78 522 l 2,15,16
 51 522 51 522 51 542 c 0,17,18
 51 563 51 563 78 563 c 2,19,-1
 189 563 l 2,20,21
 216 563 216 563 216 542 c 0,22,23
 216 522 216 522 189 522 c 2,24,-1
 150 522 l 1,25,-1
 303 295 l 1,26,-1
 451 522 l 1,27,-1
 411 522 l 2,28,29
 383 522 383 522 383 542 c 0,30,31
 383 563 383 563 411 563 c 2,32,-1
 522 563 l 2,33,34
 549 563 549 563 549 542 c 0,35,36
 549 522 549 522 522 522 c 2,37,-1
 498 522 l 1,38,-1
 322 254 l 1,0,-1
400 749 m 2,39,-1
 286 649 l 2,40,41
 276 640 276 640 268 640 c 128,-1,42
 260 640 260 640 254 646 c 128,-1,43
 248 652 248 652 248 661 c 0,44,45
 248 669 248 669 260 680 c 2,46,-1
 374 780 l 1,47,48
 388 789 388 789 393 789 c 0,49,50
 401 789 401 789 407 783 c 128,-1,51
 413 777 413 777 413 768 c 128,-1,52
 413 759 413 759 400 749 c 2,39,-1
EndSplineSet
EndChar

StartChar: Zacute
Encoding: 377 377 201
Width: 600
GlyphClass: 2
Flags: W
LayerCount: 2
Fore
SplineSet
498 0 m 1,0,-1
 103 0 l 1,1,-1
 103 59 l 1,2,-1
 431 519 l 1,3,-1
 431 522 l 1,4,-1
 161 522 l 1,5,-1
 161 404 l 2,6,7
 161 376 161 376 142 376 c 0,8,9
 121 376 121 376 121 404 c 2,10,-1
 121 563 l 1,11,-1
 470 563 l 1,12,-1
 470 505 l 1,13,-1
 142 45 l 1,14,-1
 142 41 l 1,15,-1
 456 41 l 1,16,-1
 456 182 l 2,17,18
 456 209 456 209 476 209 c 0,19,20
 498 209 498 209 498 182 c 2,21,-1
 498 0 l 1,0,-1
433 749 m 2,22,-1
 319 649 l 2,23,24
 306 640 306 640 300 640 c 0,25,26
 292 640 292 640 286 646 c 128,-1,27
 280 652 280 652 280 661 c 0,28,29
 280 669 280 669 292 680 c 2,30,-1
 407 780 l 2,31,32
 419 789 419 789 425 789 c 0,33,34
 433 789 433 789 439 783 c 128,-1,35
 445 777 445 777 445 768 c 0,36,37
 445 760 445 760 433 749 c 2,22,-1
EndSplineSet
EndChar

StartChar: Zcaron
Encoding: 381 381 202
Width: 600
GlyphClass: 2
Flags: W
LayerCount: 2
Fore
SplineSet
498 0 m 1,0,-1
 103 0 l 1,1,-1
 103 59 l 1,2,-1
 431 519 l 1,3,-1
 431 522 l 1,4,-1
 161 522 l 1,5,-1
 161 404 l 2,6,7
 161 376 161 376 142 376 c 0,8,9
 121 376 121 376 121 404 c 2,10,-1
 121 563 l 1,11,-1
 470 563 l 1,12,-1
 470 505 l 1,13,-1
 142 45 l 1,14,-1
 142 41 l 1,15,-1
 456 41 l 1,16,-1
 456 182 l 2,17,18
 456 209 456 209 476 209 c 0,19,20
 498 209 498 209 498 182 c 2,21,-1
 498 0 l 1,0,-1
296 640 m 1,22,-1
 164 749 l 2,23,24
 150 759 150 759 150 769 c 0,25,26
 150 777 150 777 156.5 783 c 128,-1,27
 163 789 163 789 171 789 c 0,28,29
 177 789 177 789 189 782 c 1,30,-1
 296 693 l 1,31,-1
 403 782 l 1,32,33
 415 789 415 789 421 789 c 0,34,35
 428 789 428 789 434.5 782.5 c 128,-1,36
 441 776 441 776 441 769 c 0,37,38
 441 759 441 759 428 748 c 2,39,-1
 296 640 l 1,22,-1
EndSplineSet
EndChar

StartChar: Zdotaccent
Encoding: 379 379 203
Width: 600
GlyphClass: 2
Flags: W
LayerCount: 2
Fore
SplineSet
498 0 m 1,0,-1
 103 0 l 1,1,-1
 103 59 l 1,2,-1
 431 519 l 1,3,-1
 431 522 l 1,4,-1
 161 522 l 1,5,-1
 161 404 l 2,6,7
 161 376 161 376 142 376 c 0,8,9
 121 376 121 376 121 404 c 2,10,-1
 121 563 l 1,11,-1
 470 563 l 1,12,-1
 470 505 l 1,13,-1
 142 45 l 1,14,-1
 142 41 l 1,15,-1
 456 41 l 1,16,-1
 456 182 l 2,17,18
 456 209 456 209 476 209 c 0,19,20
 498 209 498 209 498 182 c 2,21,-1
 498 0 l 1,0,-1
300 761 m 0,22,23
 321 761 321 761 335.5 746 c 128,-1,24
 350 731 350 731 350 710 c 0,25,26
 350 691 350 691 335 676 c 128,-1,27
 320 661 320 661 300 661 c 128,-1,28
 280 661 280 661 265 676 c 128,-1,29
 250 691 250 691 250 711 c 128,-1,30
 250 731 250 731 265 746 c 128,-1,31
 280 761 280 761 300 761 c 0,22,23
EndSplineSet
EndChar

StartChar: Tcommaaccent
Encoding: 65538 -1 205
Width: 600
GlyphClass: 2
Flags: W
LayerCount: 2
Fore
SplineSet
322 41 m 1,0,-1
 426 41 l 2,1,2
 453 41 453 41 453 21 c 0,3,4
 453 0 453 0 426 0 c 2,5,-1
 175 0 l 2,6,7
 148 0 148 0 148 21 c 0,8,9
 148 41 148 41 175 41 c 2,10,-1
 280 41 l 1,11,-1
 280 522 l 1,12,-1
 113 522 l 1,13,-1
 113 449 l 2,14,15
 113 422 113 422 92 422 c 0,16,17
 72 422 72 422 72 449 c 2,18,-1
 72 563 l 1,19,-1
 528 563 l 1,20,-1
 528 449 l 2,21,22
 528 422 528 422 508 422 c 0,23,24
 499 422 499 422 493 429.5 c 128,-1,25
 487 437 487 437 487 449 c 2,26,-1
 487 522 l 1,27,-1
 322 522 l 1,28,-1
 322 41 l 1,0,-1
318 -97 m 1,29,-1
 234 -223 l 2,30,31
 224 -237 224 -237 214 -237 c 0,32,33
 193 -237 193 -237 193 -216 c 0,34,35
 193 -211 193 -211 200 -200 c 2,36,-1
 284 -74 l 2,37,38
 294 -59 294 -59 305 -59 c 0,39,40
 314 -59 314 -59 320 -65.5 c 128,-1,41
 326 -72 326 -72 326 -81 c 0,42,43
 326 -85 326 -85 322 -93 c 1,44,-1
 318 -97 l 1,29,-1
EndSplineSet
EndChar

StartChar: Ydieresis
Encoding: 376 376 206
Width: 600
GlyphClass: 2
Flags: W
LayerCount: 2
Fore
SplineSet
322 254 m 1,0,-1
 322 41 l 1,1,-1
 427 41 l 2,2,3
 454 41 454 41 454 21 c 0,4,5
 454 0 454 0 427 0 c 2,6,-1
 176 0 l 2,7,8
 149 0 149 0 149 21 c 0,9,10
 149 41 149 41 176 41 c 2,11,-1
 282 41 l 1,12,-1
 282 254 l 1,13,-1
 102 522 l 1,14,-1
 78 522 l 2,15,16
 51 522 51 522 51 542 c 0,17,18
 51 563 51 563 78 563 c 2,19,-1
 189 563 l 2,20,21
 216 563 216 563 216 542 c 0,22,23
 216 522 216 522 189 522 c 2,24,-1
 150 522 l 1,25,-1
 303 295 l 1,26,-1
 451 522 l 1,27,-1
 411 522 l 2,28,29
 383 522 383 522 383 542 c 0,30,31
 383 563 383 563 411 563 c 2,32,-1
 522 563 l 2,33,34
 549 563 549 563 549 542 c 0,35,36
 549 522 549 522 522 522 c 2,37,-1
 498 522 l 1,38,-1
 322 254 l 1,0,-1
189 761 m 128,-1,40
 210 761 210 761 224.5 746 c 128,-1,41
 239 731 239 731 239 710 c 0,42,43
 239 690 239 690 224 675.5 c 128,-1,44
 209 661 209 661 189 661 c 0,45,46
 168 661 168 661 154 675.5 c 128,-1,47
 140 690 140 690 140 711 c 128,-1,48
 140 732 140 732 154 746.5 c 128,-1,39
 168 761 168 761 189 761 c 128,-1,40
410 761 m 0,49,50
 431 761 431 761 445.5 746 c 128,-1,51
 460 731 460 731 460 710 c 0,52,53
 460 690 460 690 445 675.5 c 128,-1,54
 430 661 430 661 410 661 c 128,-1,55
 390 661 390 661 375 676 c 128,-1,56
 360 691 360 691 360 711 c 128,-1,57
 360 731 360 731 375 746 c 128,-1,58
 390 761 390 761 410 761 c 0,49,50
EndSplineSet
EndChar

StartChar: Emacron
Encoding: 274 274 207
Width: 600
GlyphClass: 2
Flags: W
LayerCount: 2
Fore
SplineSet
165 272 m 1,0,-1
 165 41 l 1,1,-1
 479 41 l 1,2,-1
 479 160 l 2,3,4
 479 187 479 187 500 187 c 0,5,6
 519 187 519 187 519 160 c 2,7,-1
 519 0 l 1,8,-1
 70 0 l 2,9,10
 42 0 42 0 42 21 c 0,11,12
 42 41 42 41 70 41 c 2,13,-1
 124 41 l 1,14,-1
 124 522 l 1,15,-1
 70 522 l 2,16,17
 42 522 42 522 42 542 c 0,18,19
 42 563 42 563 70 563 c 2,20,-1
 499 563 l 1,21,-1
 499 424 l 2,22,23
 499 397 499 397 478 397 c 0,24,25
 458 397 458 397 458 424 c 2,26,-1
 458 522 l 1,27,-1
 165 522 l 1,28,-1
 165 313 l 1,29,-1
 309 313 l 1,30,-1
 309 358 l 2,31,32
 309 385 309 385 331 385 c 0,33,34
 351 385 351 385 351 358 c 2,35,-1
 351 227 l 2,36,37
 351 200 351 200 331 200 c 0,38,39
 309 200 309 200 309 227 c 2,40,-1
 309 272 l 1,41,-1
 165 272 l 1,0,-1
417 686 m 2,42,-1
 182 686 l 2,43,44
 155 686 155 686 155 706 c 128,-1,45
 155 726 155 726 182 726 c 2,46,-1
 417 726 l 2,47,48
 445 726 445 726 445 706 c 128,-1,49
 445 686 445 686 417 686 c 2,42,-1
EndSplineSet
EndChar

StartChar: Imacron
Encoding: 298 298 208
Width: 600
GlyphClass: 2
Flags: W
LayerCount: 2
Fore
SplineSet
320 522 m 1,0,-1
 320 41 l 1,1,-1
 459 41 l 2,2,3
 487 41 487 41 487 21 c 0,4,5
 487 0 487 0 459 0 c 2,6,-1
 140 0 l 2,7,8
 113 0 113 0 113 21 c 0,9,10
 113 41 113 41 140 41 c 2,11,-1
 279 41 l 1,12,-1
 279 522 l 1,13,-1
 140 522 l 2,14,15
 113 522 113 522 113 542 c 0,16,17
 113 563 113 563 140 563 c 2,18,-1
 459 563 l 2,19,20
 487 563 487 563 487 542 c 0,21,22
 487 522 487 522 459 522 c 2,23,-1
 320 522 l 1,0,-1
417 686 m 2,24,-1
 182 686 l 2,25,26
 155 686 155 686 155 706 c 128,-1,27
 155 726 155 726 182 726 c 2,28,-1
 417 726 l 2,29,30
 445 726 445 726 445 706 c 128,-1,31
 445 686 445 686 417 686 c 2,24,-1
EndSplineSet
EndChar

StartChar: Iogonek
Encoding: 302 302 209
Width: 600
GlyphClass: 2
Flags: W
LayerCount: 2
Fore
SplineSet
320 522 m 1,0,-1
 320 41 l 1,1,-1
 459 41 l 2,2,3
 487 41 487 41 487 21 c 0,4,5
 487 7 487 7 468 -1 c 0,6,7
 432 -20 432 -20 409 -41 c 128,-1,8
 386 -62 386 -62 386 -89 c 0,9,10
 386 -123 386 -123 428 -123 c 0,11,12
 451 -123 451 -123 478 -107 c 0,13,14
 479 -106 479 -106 482 -105 c 0,15,16
 484 -104 484 -104 485 -104 c 0,17,18
 500 -104 500 -104 500 -119 c 0,19,20
 500 -132 500 -132 476 -143.5 c 128,-1,21
 452 -155 452 -155 424 -155 c 0,22,23
 387 -155 387 -155 367 -138.5 c 128,-1,24
 347 -122 347 -122 347 -93 c 0,25,26
 347 -62 347 -62 364.5 -41 c 128,-1,27
 382 -20 382 -20 424 0 c 1,28,-1
 140 0 l 2,29,30
 113 0 113 0 113 21 c 0,31,32
 113 41 113 41 140 41 c 2,33,-1
 279 41 l 1,34,-1
 279 522 l 1,35,-1
 140 522 l 2,36,37
 113 522 113 522 113 542 c 0,38,39
 113 563 113 563 140 563 c 2,40,-1
 459 563 l 2,41,42
 487 563 487 563 487 542 c 0,43,44
 487 522 487 522 459 522 c 2,45,-1
 320 522 l 1,0,-1
EndSplineSet
EndChar

StartChar: Kcommaaccent
Encoding: 310 310 210
Width: 600
GlyphClass: 2
Flags: W
LayerCount: 2
Fore
SplineSet
165 221 m 1,0,-1
 165 41 l 1,1,-1
 240 41 l 2,2,3
 267 41 267 41 267 21 c 0,4,5
 267 0 267 0 240 0 c 2,6,-1
 70 0 l 2,7,8
 42 0 42 0 42 21 c 0,9,10
 42 41 42 41 70 41 c 2,11,-1
 124 41 l 1,12,-1
 124 522 l 1,13,-1
 70 522 l 2,14,15
 42 522 42 522 42 542 c 0,16,17
 42 563 42 563 70 563 c 2,18,-1
 240 563 l 2,19,20
 267 563 267 563 267 542 c 0,21,22
 267 522 267 522 240 522 c 2,23,-1
 165 522 l 1,24,-1
 165 273 l 1,25,-1
 445 522 l 1,26,-1
 400 522 l 2,27,28
 373 522 373 522 373 542 c 0,29,30
 373 563 373 563 400 563 c 2,31,-1
 518 563 l 2,32,33
 546 563 546 563 546 542 c 0,34,35
 546 522 546 522 518 522 c 2,36,-1
 502 522 l 1,37,-1
 280 324 l 1,38,39
 353 294 353 294 393 239.5 c 128,-1,40
 433 185 433 185 489 41 c 1,41,-1
 545 41 l 2,42,43
 572 41 572 41 572 21 c 0,44,45
 572 0 572 0 545 0 c 2,46,-1
 458 0 l 1,47,48
 403 152 403 152 360 211.5 c 128,-1,49
 317 271 317 271 246 294 c 1,50,-1
 165 221 l 1,0,-1
358 -97 m 1,51,-1
 274 -223 l 2,52,53
 264 -237 264 -237 252 -237 c 0,54,55
 244 -237 244 -237 238.5 -231 c 128,-1,56
 233 -225 233 -225 233 -216 c 0,57,58
 233 -211 233 -211 240 -200 c 2,59,-1
 324 -74 l 2,60,61
 335 -59 335 -59 345 -59 c 0,62,63
 354 -59 354 -59 360.5 -65.5 c 128,-1,64
 367 -72 367 -72 367 -81 c 0,65,66
 367 -86 367 -86 360 -93 c 1,67,-1
 358 -97 l 1,51,-1
EndSplineSet
EndChar

StartChar: Lcommaaccent
Encoding: 315 315 211
Width: 600
GlyphClass: 2
Flags: W
LayerCount: 2
Fore
SplineSet
227 522 m 1,0,-1
 227 41 l 1,1,-1
 500 41 l 1,2,-1
 500 201 l 2,3,4
 500 228 500 228 521 228 c 0,5,6
 541 228 541 228 541 201 c 2,7,-1
 541 0 l 1,8,-1
 90 0 l 2,9,10
 63 0 63 0 63 21 c 0,11,12
 63 41 63 41 90 41 c 2,13,-1
 186 41 l 1,14,-1
 186 522 l 1,15,-1
 90 522 l 2,16,17
 63 522 63 522 63 542 c 0,18,19
 63 563 63 563 90 563 c 2,20,-1
 323 563 l 2,21,22
 350 563 350 563 350 542 c 0,23,24
 350 522 350 522 323 522 c 2,25,-1
 227 522 l 1,0,-1
328 -97 m 1,26,-1
 244 -223 l 2,27,28
 233 -237 233 -237 223 -237 c 0,29,30
 215 -237 215 -237 209 -231 c 128,-1,31
 203 -225 203 -225 203 -216 c 0,32,33
 203 -211 203 -211 210 -200 c 2,34,-1
 294 -74 l 2,35,36
 304 -59 304 -59 316 -59 c 0,37,38
 324 -59 324 -59 330 -65.5 c 128,-1,39
 336 -72 336 -72 336 -81 c 0,40,41
 336 -86 336 -86 331 -93 c 2,42,-1
 328 -97 l 1,26,-1
EndSplineSet
EndChar

StartChar: Ncommaaccent
Encoding: 325 325 212
Width: 600
GlyphClass: 2
Flags: W
LayerCount: 2
Fore
SplineSet
501 0 m 1,0,-1
 449 0 l 1,1,-1
 144 504 l 1,2,-1
 144 41 l 1,3,-1
 218 41 l 2,4,5
 246 41 246 41 246 21 c 0,6,7
 246 0 246 0 218 0 c 2,8,-1
 69 0 l 2,9,10
 42 0 42 0 42 21 c 0,11,12
 42 41 42 41 69 41 c 2,13,-1
 103 41 l 1,14,-1
 103 522 l 1,15,-1
 49 522 l 2,16,17
 22 522 22 522 22 542 c 0,18,19
 22 563 22 563 49 563 c 2,20,-1
 155 563 l 1,21,-1
 460 59 l 1,22,-1
 460 522 l 1,23,-1
 386 522 l 2,24,25
 358 522 358 522 358 542 c 0,26,27
 358 563 358 563 386 563 c 2,28,-1
 535 563 l 2,29,30
 562 563 562 563 562 542 c 0,31,32
 562 522 562 522 535 522 c 2,33,-1
 501 522 l 1,34,-1
 501 0 l 1,0,-1
339 -97 m 1,35,-1
 254 -223 l 2,36,37
 244 -237 244 -237 233 -237 c 0,38,39
 214 -237 214 -237 214 -216 c 0,40,41
 214 -210 214 -210 220 -200 c 2,42,-1
 303 -74 l 2,43,44
 315 -59 315 -59 325 -59 c 0,45,46
 334 -59 334 -59 340 -65.5 c 128,-1,47
 346 -72 346 -72 346 -81 c 0,48,49
 346 -83 346 -83 341 -93 c 2,50,-1
 339 -97 l 1,35,-1
EndSplineSet
EndChar

StartChar: Omacron
Encoding: 332 332 213
Width: 600
GlyphClass: 2
Flags: W
LayerCount: 2
Fore
SplineSet
300 576 m 0,0,1
 406 576 406 576 477.5 490 c 128,-1,2
 549 404 549 404 549 275 c 0,3,4
 549 155 549 155 476 69.5 c 128,-1,5
 403 -16 403 -16 300 -16 c 0,6,7
 196 -16 196 -16 123.5 70 c 128,-1,8
 51 156 51 156 51 280 c 128,-1,9
 51 404 51 404 123.5 490 c 128,-1,10
 196 576 196 576 300 576 c 0,0,1
300 535 m 128,-1,12
 213 535 213 535 152.5 460 c 128,-1,13
 92 385 92 385 92 280 c 128,-1,14
 92 175 92 175 153 100 c 128,-1,15
 214 25 214 25 300 25 c 0,16,17
 385 25 385 25 446.5 99.5 c 128,-1,18
 508 174 508 174 508 277 c 0,19,20
 508 385 508 385 447.5 460 c 128,-1,11
 387 535 387 535 300 535 c 128,-1,12
417 686 m 2,21,-1
 182 686 l 2,22,23
 155 686 155 686 155 706 c 128,-1,24
 155 726 155 726 182 726 c 2,25,-1
 417 726 l 2,26,27
 445 726 445 726 445 706 c 128,-1,28
 445 686 445 686 417 686 c 2,21,-1
EndSplineSet
EndChar

StartChar: Rcommaaccent
Encoding: 342 342 214
Width: 600
GlyphClass: 2
Flags: W
LayerCount: 2
Fore
SplineSet
165 251 m 1,0,-1
 165 41 l 1,1,-1
 240 41 l 2,2,3
 267 41 267 41 267 21 c 0,4,5
 267 0 267 0 240 0 c 2,6,-1
 70 0 l 2,7,8
 42 0 42 0 42 21 c 0,9,10
 42 41 42 41 70 41 c 2,11,-1
 124 41 l 1,12,-1
 124 522 l 1,13,-1
 70 522 l 2,14,15
 42 522 42 522 42 542 c 0,16,17
 42 563 42 563 70 563 c 2,18,-1
 318 563 l 2,19,20
 391 563 391 563 444.5 517 c 128,-1,21
 498 471 498 471 498 407 c 0,22,23
 498 310 498 310 359 262 c 1,24,25
 406 229 406 229 438 188 c 128,-1,26
 470 147 470 147 532 41 c 1,27,-1
 562 41 l 2,28,29
 589 41 589 41 589 21 c 0,30,31
 589 0 589 0 562 0 c 2,32,-1
 505 0 l 1,33,34
 438 122 438 122 395.5 173.5 c 128,-1,35
 353 225 353 225 297 251 c 1,36,-1
 165 251 l 1,0,-1
165 292 m 1,37,-1
 279 292 l 2,38,39
 353 292 353 292 405.5 326 c 128,-1,40
 458 360 458 360 458 408 c 0,41,42
 458 453 458 453 415 487.5 c 128,-1,43
 372 522 372 522 318 522 c 2,44,-1
 165 522 l 1,45,-1
 165 292 l 1,37,-1
358 -97 m 1,46,-1
 274 -223 l 2,47,48
 264 -237 264 -237 252 -237 c 0,49,50
 244 -237 244 -237 238.5 -231 c 128,-1,51
 233 -225 233 -225 233 -216 c 0,52,53
 233 -211 233 -211 240 -200 c 2,54,-1
 324 -74 l 2,55,56
 335 -59 335 -59 345 -59 c 0,57,58
 354 -59 354 -59 360.5 -65.5 c 128,-1,59
 367 -72 367 -72 367 -81 c 0,60,61
 367 -86 367 -86 360 -93 c 1,62,-1
 358 -97 l 1,46,-1
EndSplineSet
EndChar

StartChar: Gcommaaccent
Encoding: 290 290 215
Width: 600
GlyphClass: 2
Flags: W
LayerCount: 2
Fore
SplineSet
519 209 m 1,0,-1
 519 36 l 1,1,2
 430 -16 430 -16 333 -16 c 0,3,4
 210 -16 210 -16 136.5 55 c 128,-1,5
 63 126 63 126 63 244 c 2,6,-1
 63 318 l 2,7,8
 63 372 63 372 84.5 424 c 128,-1,9
 106 476 106 476 144 511 c 0,10,11
 214 576 214 576 313 576 c 128,-1,12
 412 576 412 576 479 522 c 1,13,-1
 479 536 l 2,14,15
 479 563 479 563 500 563 c 0,16,17
 519 563 519 563 519 536 c 2,18,-1
 519 445 l 2,19,20
 519 417 519 417 500 417 c 128,-1,21
 481 417 481 417 481 443 c 0,22,23
 477 481 477 481 429.5 508 c 128,-1,24
 382 535 382 535 316 535 c 0,25,26
 231 535 231 535 176 481 c 0,27,28
 143 451 143 451 123.5 406 c 128,-1,29
 104 361 104 361 104 317 c 2,30,-1
 104 244 l 2,31,32
 104 142 104 142 166 83.5 c 128,-1,33
 228 25 228 25 336 25 c 0,34,35
 407 25 407 25 479 59 c 1,36,-1
 479 209 l 1,37,-1
 340 209 l 2,38,39
 313 209 313 209 313 231 c 0,40,41
 313 250 313 250 340 250 c 2,42,-1
 534 250 l 2,43,44
 562 250 562 250 562 231 c 0,45,46
 562 209 562 209 534 209 c 2,47,-1
 519 209 l 1,0,-1
358 -97 m 1,48,-1
 274 -223 l 2,49,50
 264 -237 264 -237 252 -237 c 0,51,52
 244 -237 244 -237 238.5 -231 c 128,-1,53
 233 -225 233 -225 233 -216 c 0,54,55
 233 -211 233 -211 240 -200 c 2,56,-1
 324 -74 l 2,57,58
 335 -59 335 -59 345 -59 c 0,59,60
 354 -59 354 -59 360.5 -65.5 c 128,-1,61
 367 -72 367 -72 367 -81 c 0,62,63
 367 -86 367 -86 360 -93 c 1,64,-1
 358 -97 l 1,48,-1
EndSplineSet
EndChar

StartChar: Umacron
Encoding: 362 362 216
Width: 600
GlyphClass: 2
Flags: W
LayerCount: 2
Fore
SplineSet
499 522 m 1,0,-1
 499 184 l 2,1,2
 499 100 499 100 441 42 c 128,-1,3
 383 -16 383 -16 300 -16 c 0,4,5
 216 -16 216 -16 158.5 42 c 128,-1,6
 101 100 101 100 101 184 c 2,7,-1
 101 522 l 1,8,-1
 67 522 l 2,9,10
 40 522 40 522 40 542 c 0,11,12
 40 563 40 563 67 563 c 2,13,-1
 216 563 l 2,14,15
 243 563 243 563 243 542 c 0,16,17
 243 522 243 522 216 522 c 2,18,-1
 142 522 l 1,19,-1
 142 184 l 2,20,21
 142 117 142 117 187.5 71 c 128,-1,22
 233 25 233 25 300 25 c 0,23,24
 366 25 366 25 412 71 c 128,-1,25
 458 117 458 117 458 184 c 2,26,-1
 458 522 l 1,27,-1
 383 522 l 2,28,29
 357 522 357 522 357 542 c 0,30,31
 357 563 357 563 383 563 c 2,32,-1
 533 563 l 2,33,34
 559 563 559 563 559 542 c 0,35,36
 559 522 559 522 533 522 c 2,37,-1
 499 522 l 1,0,-1
417 686 m 2,38,-1
 182 686 l 2,39,40
 155 686 155 686 155 706 c 128,-1,41
 155 726 155 726 182 726 c 2,42,-1
 417 726 l 2,43,44
 445 726 445 726 445 706 c 128,-1,45
 445 686 445 686 417 686 c 2,38,-1
EndSplineSet
EndChar

StartChar: Uogonek
Encoding: 370 370 217
Width: 600
GlyphClass: 2
Flags: W
LayerCount: 2
Fore
SplineSet
499 522 m 1,0,-1
 499 184 l 2,1,2
 499 104 499 104 451 53 c 1,3,4
 447 47 447 47 425.5 27 c 128,-1,5
 404 7 404 7 399 2 c 0,6,7
 339 -47 339 -47 339 -89 c 0,8,9
 339 -123 339 -123 383 -123 c 0,10,11
 404 -123 404 -123 431 -107 c 1,12,13
 432 -107 432 -107 435 -105.5 c 128,-1,14
 438 -104 438 -104 439 -104 c 0,15,16
 453 -104 453 -104 453 -119 c 0,17,18
 453 -132 453 -132 428.5 -143.5 c 128,-1,19
 404 -155 404 -155 376 -155 c 0,20,21
 341 -155 341 -155 320.5 -138.5 c 128,-1,22
 300 -122 300 -122 300 -93 c 0,23,24
 300 -44 300 -44 360 -8 c 1,25,26
 327 -16 327 -16 299 -16 c 0,27,28
 215 -16 215 -16 158 42 c 128,-1,29
 101 100 101 100 101 184 c 2,30,-1
 101 522 l 1,31,-1
 67 522 l 2,32,33
 40 522 40 522 40 542 c 0,34,35
 40 563 40 563 67 563 c 2,36,-1
 216 563 l 2,37,38
 243 563 243 563 243 542 c 0,39,40
 243 522 243 522 216 522 c 2,41,-1
 142 522 l 1,42,-1
 142 184 l 2,43,44
 142 117 142 117 187.5 71 c 128,-1,45
 233 25 233 25 300 25 c 0,46,47
 366 25 366 25 412 71 c 128,-1,48
 458 117 458 117 458 184 c 2,49,-1
 458 522 l 1,50,-1
 383 522 l 2,51,52
 357 522 357 522 357 542 c 0,53,54
 357 563 357 563 383 563 c 2,55,-1
 533 563 l 2,56,57
 559 563 559 563 559 542 c 0,58,59
 559 522 559 522 533 522 c 2,60,-1
 499 522 l 1,0,-1
EndSplineSet
EndChar

StartChar: aogonek
Encoding: 261 261 225
Width: 600
GlyphClass: 2
Flags: W
LayerCount: 2
Fore
SplineSet
460 41 m 1,0,-1
 515 41 l 2,1,2
 541 41 541 41 541 21 c 0,3,4
 541 9 541 9 529 2 c 0,5,6
 482 -24 482 -24 462 -45 c 128,-1,7
 442 -66 442 -66 442 -89 c 0,8,9
 442 -123 442 -123 485 -123 c 0,10,11
 507 -123 507 -123 534 -107 c 0,12,13
 540 -104 540 -104 542 -104 c 0,14,15
 556 -104 556 -104 556 -119 c 0,16,17
 556 -132 556 -132 531.5 -143.5 c 128,-1,18
 507 -155 507 -155 479 -155 c 0,19,20
 443 -155 443 -155 423 -138.5 c 128,-1,21
 403 -122 403 -122 403 -93 c 0,22,23
 403 -62 403 -62 420.5 -41 c 128,-1,24
 438 -20 438 -20 481 0 c 1,25,-1
 419 0 l 1,26,-1
 419 67 l 1,27,28
 330 -16 330 -16 228 -16 c 0,29,30
 158 -16 158 -16 115 19.5 c 128,-1,31
 72 55 72 55 72 112 c 0,32,33
 72 177 72 177 130.5 217.5 c 128,-1,34
 189 258 189 258 283 258 c 0,35,36
 336 258 336 258 419 237 c 1,37,-1
 419 308 l 2,38,39
 419 345 419 345 385 367.5 c 128,-1,40
 351 390 351 390 296 390 c 0,41,42
 256 390 256 390 154 360 c 0,43,44
 146 358 146 358 144 358 c 0,45,46
 136 358 136 358 130.5 363.5 c 128,-1,47
 125 369 125 369 125 377 c 0,48,49
 125 391 125 391 142 399 c 0,50,51
 240 431 240 431 299 431 c 0,52,53
 369 431 369 431 414.5 396 c 128,-1,54
 460 361 460 361 460 308 c 2,55,-1
 460 41 l 1,0,-1
419 112 m 1,56,-1
 419 201 l 1,57,58
 361 217 361 217 291 217 c 0,59,60
 211 217 211 217 162 187.5 c 128,-1,61
 113 158 113 158 113 110 c 0,62,63
 113 72 113 72 144 48.5 c 128,-1,64
 175 25 175 25 227 25 c 0,65,66
 281 25 281 25 325 45 c 128,-1,67
 369 65 369 65 419 112 c 1,56,-1
EndSplineSet
EndChar

StartChar: cacute
Encoding: 263 263 226
Width: 600
GlyphClass: 2
Flags: W
LayerCount: 2
Fore
SplineSet
470 376 m 1,0,-1
 470 390 l 2,1,2
 470 417 470 417 492 417 c 0,3,4
 511 417 511 417 511 390 c 2,5,-1
 511 299 l 2,6,7
 511 271 511 271 492 271 c 128,-1,8
 473 271 473 271 470 295 c 0,9,10
 467 335 467 335 420.5 362.5 c 128,-1,11
 374 390 374 390 311 390 c 0,12,13
 228 390 228 390 176.5 339 c 128,-1,14
 125 288 125 288 125 205 c 0,15,16
 125 126 125 126 177 75.5 c 128,-1,17
 229 25 229 25 311 25 c 0,18,19
 422 25 422 25 498 97 c 0,20,21
 507 107 507 107 516 107 c 0,22,23
 523 107 523 107 529 101.5 c 128,-1,24
 535 96 535 96 535 89 c 0,25,26
 535 69 535 69 492 39 c 0,27,28
 412 -16 412 -16 309 -16 c 0,29,30
 211 -16 211 -16 147.5 46 c 128,-1,31
 84 108 84 108 84 204 c 0,32,33
 84 303 84 303 149 367 c 128,-1,34
 214 431 214 431 314 431 c 0,35,36
 404 431 404 431 470 376 c 1,0,-1
433 600 m 2,37,-1
 319 499 l 2,38,39
 306 490 306 490 300 490 c 0,40,41
 292 490 292 490 286 496 c 128,-1,42
 280 502 280 502 280 511 c 0,43,44
 280 519 280 519 292 530 c 2,45,-1
 407 630 l 2,46,47
 418 640 418 640 425 640 c 0,48,49
 433 640 433 640 439 633.5 c 128,-1,50
 445 627 445 627 445 618 c 128,-1,51
 445 609 445 609 433 600 c 2,37,-1
EndSplineSet
EndChar

StartChar: ccaron
Encoding: 269 269 227
Width: 600
GlyphClass: 2
Flags: W
LayerCount: 2
Fore
SplineSet
470 376 m 1,0,-1
 470 390 l 2,1,2
 470 417 470 417 492 417 c 0,3,4
 511 417 511 417 511 390 c 2,5,-1
 511 299 l 2,6,7
 511 271 511 271 492 271 c 128,-1,8
 473 271 473 271 470 295 c 0,9,10
 467 335 467 335 420.5 362.5 c 128,-1,11
 374 390 374 390 311 390 c 0,12,13
 228 390 228 390 176.5 339 c 128,-1,14
 125 288 125 288 125 205 c 0,15,16
 125 126 125 126 177 75.5 c 128,-1,17
 229 25 229 25 311 25 c 0,18,19
 422 25 422 25 498 97 c 0,20,21
 507 107 507 107 516 107 c 0,22,23
 523 107 523 107 529 101.5 c 128,-1,24
 535 96 535 96 535 89 c 0,25,26
 535 69 535 69 492 39 c 0,27,28
 412 -16 412 -16 309 -16 c 0,29,30
 211 -16 211 -16 147.5 46 c 128,-1,31
 84 108 84 108 84 204 c 0,32,33
 84 303 84 303 149 367 c 128,-1,34
 214 431 214 431 314 431 c 0,35,36
 404 431 404 431 470 376 c 1,0,-1
330 490 m 1,37,-1
 198 600 l 1,38,39
 184 608 184 608 184 619 c 0,40,41
 184 627 184 627 190.5 633.5 c 128,-1,42
 197 640 197 640 205 640 c 0,43,44
 210 640 210 640 223 631 c 2,45,-1
 330 542 l 1,46,-1
 437 631 l 2,47,48
 450 640 450 640 455 640 c 0,49,50
 462 640 462 640 468.5 633.5 c 128,-1,51
 475 627 475 627 475 619 c 0,52,53
 475 609 475 609 462 598 c 2,54,-1
 330 490 l 1,37,-1
EndSplineSet
EndChar

StartChar: ccedilla
Encoding: 231 231 228
Width: 600
GlyphClass: 2
Flags: W
LayerCount: 2
Fore
SplineSet
316 -16 m 1,0,-1
 316 -47 l 1,1,2
 380 -50 380 -50 380 -108 c 0,3,4
 380 -137 380 -137 358 -155.5 c 128,-1,5
 336 -174 336 -174 301 -174 c 0,6,7
 267 -174 267 -174 231 -155 c 0,8,9
 214 -146 214 -146 214 -133 c 0,10,11
 214 -125 214 -125 219.5 -119.5 c 128,-1,12
 225 -114 225 -114 233 -114 c 0,13,14
 238 -114 238 -114 248 -119 c 0,15,16
 279 -135 279 -135 299 -135 c 0,17,18
 318 -135 318 -135 330.5 -127 c 128,-1,19
 343 -119 343 -119 343 -106 c 0,20,21
 343 -81 343 -81 299 -81 c 2,22,-1
 277 -81 l 1,23,-1
 277 -15 l 1,24,25
 208 -4 208 -4 172 25 c 0,26,27
 84 91 84 91 84 204 c 0,28,29
 84 303 84 303 149 367 c 128,-1,30
 214 431 214 431 314 431 c 0,31,32
 404 431 404 431 470 376 c 1,33,-1
 470 390 l 2,34,35
 470 417 470 417 492 417 c 0,36,37
 511 417 511 417 511 390 c 2,38,-1
 511 299 l 2,39,40
 511 271 511 271 492 271 c 0,41,42
 471 271 471 271 470 295 c 0,43,44
 466 335 466 335 419.5 362.5 c 128,-1,45
 373 390 373 390 311 390 c 0,46,47
 228 390 228 390 176.5 339 c 128,-1,48
 125 288 125 288 125 205 c 0,49,50
 125 126 125 126 177 75.5 c 128,-1,51
 229 25 229 25 311 25 c 0,52,53
 422 25 422 25 498 97 c 0,54,55
 507 107 507 107 516 107 c 0,56,57
 523 107 523 107 529 101.5 c 128,-1,58
 535 96 535 96 535 89 c 0,59,60
 535 76 535 76 513 56 c 128,-1,61
 491 36 491 36 459 19 c 0,62,63
 396 -12 396 -12 316 -16 c 1,0,-1
EndSplineSet
EndChar

StartChar: dcaron
Encoding: 271 271 229
Width: 600
GlyphClass: 2
Flags: W
LayerCount: 2
Fore
SplineSet
502 604 m 1,0,-1
 502 41 l 1,1,-1
 556 41 l 2,2,3
 583 41 583 41 583 21 c 0,4,5
 583 0 583 0 556 0 c 2,6,-1
 461 0 l 1,7,-1
 461 89 l 1,8,9
 390 -16 390 -16 279 -16 c 0,10,11
 190 -16 190 -16 126.5 50 c 128,-1,12
 63 116 63 116 63 208 c 128,-1,13
 63 300 63 300 126.5 365.5 c 128,-1,14
 190 431 190 431 279 431 c 0,15,16
 388 431 388 431 461 326 c 1,17,-1
 461 563 l 1,18,-1
 407 563 l 2,19,20
 380 563 380 563 380 584 c 0,21,22
 380 604 380 604 407 604 c 2,23,-1
 502 604 l 1,0,-1
282 390 m 0,24,25
 208 390 208 390 156 337 c 128,-1,26
 104 284 104 284 104 208 c 0,27,28
 104 131 104 131 156 78 c 128,-1,29
 208 25 208 25 283 25 c 0,30,31
 357 25 357 25 409 78 c 128,-1,32
 461 131 461 131 461 206 c 0,33,34
 461 283 461 283 409.5 336.5 c 128,-1,35
 358 390 358 390 282 390 c 0,24,25
642 579 m 1,36,-1
 558 453 l 2,37,38
 548 439 548 439 536 439 c 0,39,40
 517 439 517 439 517 460 c 0,41,42
 517 465 517 465 524 476 c 2,43,-1
 608 602 l 2,44,45
 618 617 618 617 629 617 c 0,46,47
 638 617 638 617 644 610.5 c 128,-1,48
 650 604 650 604 650 595 c 0,49,50
 650 592 650 592 644 583 c 2,51,-1
 642 579 l 1,36,-1
EndSplineSet
EndChar

StartChar: edieresis
Encoding: 235 235 230
Width: 600
GlyphClass: 2
Flags: W
LayerCount: 2
Fore
SplineSet
519 199 m 1,0,-1
 104 199 l 1,1,2
 114 120 114 120 169.5 72.5 c 128,-1,3
 225 25 225 25 306 25 c 0,4,5
 353 25 353 25 402 40 c 128,-1,6
 451 55 451 55 481 79 c 0,7,8
 491 86 491 86 498 86 c 128,-1,9
 505 86 505 86 510.5 80 c 128,-1,10
 516 74 516 74 516 66 c 0,11,12
 516 40 516 40 444.5 12 c 128,-1,13
 373 -16 373 -16 305 -16 c 0,14,15
 204 -16 204 -16 133.5 52 c 128,-1,16
 63 120 63 120 63 217 c 0,17,18
 63 308 63 308 129 369.5 c 128,-1,19
 195 431 195 431 291 431 c 0,20,21
 363 431 363 431 419.5 395 c 128,-1,22
 476 359 476 359 502 297 c 0,23,24
 519 261 519 261 519 199 c 1,0,-1
104 240 m 1,25,-1
 478 240 l 1,26,27
 466 308 466 308 415 349 c 128,-1,28
 364 390 364 390 291 390 c 128,-1,29
 218 390 218 390 168 350 c 128,-1,30
 118 310 118 310 104 240 c 1,25,-1
194 610 m 128,-1,32
 215 610 215 610 229.5 595.5 c 128,-1,33
 244 581 244 581 244 559 c 0,34,35
 244 540 244 540 229 525.5 c 128,-1,36
 214 511 214 511 194 511 c 128,-1,37
 174 511 174 511 159 526 c 128,-1,38
 144 541 144 541 144 561 c 0,39,40
 144 582 144 582 158.5 596 c 128,-1,31
 173 610 173 610 194 610 c 128,-1,32
415 610 m 128,-1,42
 436 610 436 610 450.5 595.5 c 128,-1,43
 465 581 465 581 465 559 c 0,44,45
 465 540 465 540 450 525.5 c 128,-1,46
 435 511 435 511 415 511 c 128,-1,47
 395 511 395 511 380 526 c 128,-1,48
 365 541 365 541 365 561 c 0,49,50
 365 582 365 582 379.5 596 c 128,-1,41
 394 610 394 610 415 610 c 128,-1,42
EndSplineSet
EndChar

StartChar: eacute
Encoding: 233 233 231
Width: 600
GlyphClass: 2
Flags: W
LayerCount: 2
Fore
SplineSet
519 199 m 1,0,-1
 104 199 l 1,1,2
 114 120 114 120 169.5 72.5 c 128,-1,3
 225 25 225 25 306 25 c 0,4,5
 353 25 353 25 402 40 c 128,-1,6
 451 55 451 55 481 79 c 0,7,8
 491 86 491 86 498 86 c 128,-1,9
 505 86 505 86 510.5 80 c 128,-1,10
 516 74 516 74 516 66 c 0,11,12
 516 40 516 40 444.5 12 c 128,-1,13
 373 -16 373 -16 305 -16 c 0,14,15
 204 -16 204 -16 133.5 52 c 128,-1,16
 63 120 63 120 63 217 c 0,17,18
 63 308 63 308 129 369.5 c 128,-1,19
 195 431 195 431 291 431 c 0,20,21
 363 431 363 431 419.5 395 c 128,-1,22
 476 359 476 359 502 297 c 0,23,24
 519 261 519 261 519 199 c 1,0,-1
104 240 m 1,25,-1
 478 240 l 1,26,27
 466 308 466 308 415 349 c 128,-1,28
 364 390 364 390 291 390 c 128,-1,29
 218 390 218 390 168 350 c 128,-1,30
 118 310 118 310 104 240 c 1,25,-1
402 600 m 2,31,-1
 288 499 l 2,32,33
 276 490 276 490 269 490 c 0,34,35
 261 490 261 490 255 496 c 128,-1,36
 249 502 249 502 249 511 c 0,37,38
 249 519 249 519 261 530 c 2,39,-1
 375 630 l 2,40,41
 386 640 386 640 394 640 c 128,-1,42
 402 640 402 640 408 633.5 c 128,-1,43
 414 627 414 627 414 618 c 128,-1,44
 414 609 414 609 402 600 c 2,31,-1
EndSplineSet
EndChar

StartChar: egrave
Encoding: 232 232 232
Width: 600
GlyphClass: 2
Flags: W
LayerCount: 2
Fore
SplineSet
519 199 m 1,0,-1
 104 199 l 1,1,2
 114 120 114 120 169.5 72.5 c 128,-1,3
 225 25 225 25 306 25 c 0,4,5
 353 25 353 25 402 40 c 128,-1,6
 451 55 451 55 481 79 c 0,7,8
 491 86 491 86 498 86 c 128,-1,9
 505 86 505 86 510.5 80 c 128,-1,10
 516 74 516 74 516 66 c 0,11,12
 516 40 516 40 444.5 12 c 128,-1,13
 373 -16 373 -16 305 -16 c 0,14,15
 204 -16 204 -16 133.5 52 c 128,-1,16
 63 120 63 120 63 217 c 0,17,18
 63 308 63 308 129 369.5 c 128,-1,19
 195 431 195 431 291 431 c 0,20,21
 363 431 363 431 419.5 395 c 128,-1,22
 476 359 476 359 502 297 c 0,23,24
 519 261 519 261 519 199 c 1,0,-1
104 240 m 1,25,-1
 478 240 l 1,26,27
 466 308 466 308 415 349 c 128,-1,28
 364 390 364 390 291 390 c 128,-1,29
 218 390 218 390 168 350 c 128,-1,30
 118 310 118 310 104 240 c 1,25,-1
228 630 m 2,31,-1
 342 530 l 1,32,-1
 350 522 l 2,33,34
 354 517 354 517 354 511 c 0,35,36
 354 502 354 502 348 496 c 128,-1,37
 342 490 342 490 333 490 c 0,38,39
 325 490 325 490 316 499 c 2,40,-1
 201 600 l 2,41,42
 189 609 189 609 189 619 c 0,43,44
 189 627 189 627 195 633.5 c 128,-1,45
 201 640 201 640 209 640 c 0,46,47
 215 640 215 640 228 630 c 2,31,-1
EndSplineSet
EndChar

